<mxfile host="app.diagrams.net" agent="Mozilla/5.0 (Macintosh; Intel Mac OS X 10_15_7) AppleWebKit/537.36 (KHTML, like Gecko) Chrome/133.0.0.0 Safari/537.36" version="26.0.14">
  <diagram name="Page-1" id="sH-aKWooooJHjwbjUD3K">
    <mxGraphModel dx="3033" dy="1171" grid="1" gridSize="10" guides="1" tooltips="1" connect="1" arrows="1" fold="1" page="1" pageScale="1" pageWidth="827" pageHeight="1169" math="0" shadow="0">
      <root>
        <mxCell id="0" />
        <mxCell id="1" parent="0" />
        <mxCell id="jvcADhcVPLt3B4X78LWL-1" value="Diagramme de déploiement" style="shape=umlFrame;whiteSpace=wrap;html=1;pointerEvents=0;recursiveResize=0;container=1;collapsible=0;width=190;height=30;" parent="1" vertex="1">
          <mxGeometry x="-300" y="40" width="1420" height="740" as="geometry" />
        </mxCell>
        <mxCell id="jvcADhcVPLt3B4X78LWL-24" value="&lt;font style=&quot;font-size: 15px;&quot;&gt;&lt;b&gt;&lt;font style=&quot;vertical-align: inherit;&quot;&gt;&lt;font style=&quot;vertical-align: inherit;&quot;&gt;Sous-système : Lecteur RFID&amp;nbsp;&lt;/font&gt;&lt;/font&gt;&lt;/b&gt;&lt;/font&gt;" style="verticalAlign=top;align=center;spacingTop=8;spacingLeft=2;spacingRight=12;shape=cube;size=10;direction=south;fontStyle=4;html=1;whiteSpace=wrap;fillColor=#d5e8d4;strokeColor=#82b366;" parent="jvcADhcVPLt3B4X78LWL-1" vertex="1">
          <mxGeometry x="20" y="38" width="489.99" height="372" as="geometry" />
        </mxCell>
        <mxCell id="jvcADhcVPLt3B4X78LWL-25" value="&lt;font style=&quot;vertical-align: inherit;&quot;&gt;&lt;font style=&quot;vertical-align: inherit;&quot;&gt;Lecteur RFID (PN532)&lt;/font&gt;&lt;/font&gt;" style="verticalAlign=top;align=center;spacingTop=8;spacingLeft=2;spacingRight=12;shape=cube;size=10;direction=south;fontStyle=5;html=1;whiteSpace=wrap;" parent="jvcADhcVPLt3B4X78LWL-1" vertex="1">
          <mxGeometry x="250" y="133.5" width="221" height="256.5" as="geometry" />
        </mxCell>
        <mxCell id="jvcADhcVPLt3B4X78LWL-29" value="&lt;span style=&quot;text-wrap: nowrap;&quot;&gt;&lt;font style=&quot;vertical-align: inherit;&quot;&gt;&lt;font style=&quot;vertical-align: inherit;&quot;&gt;&lt;font style=&quot;vertical-align: inherit;&quot;&gt;&lt;font style=&quot;vertical-align: inherit;&quot;&gt;&lt;font style=&quot;vertical-align: inherit;&quot;&gt;&lt;font style=&quot;vertical-align: inherit;&quot;&gt;MATÉRIEL INFORMATIQUE&amp;nbsp;&lt;/font&gt;&lt;/font&gt;&lt;/font&gt;&lt;/font&gt;&lt;/font&gt;&lt;/font&gt;&lt;/span&gt;&lt;div&gt;&lt;br&gt;&lt;/div&gt;&lt;div&gt;&lt;font style=&quot;vertical-align: inherit;&quot;&gt;&lt;font style=&quot;vertical-align: inherit;&quot;&gt;TAGS RFID&lt;/font&gt;&lt;/font&gt;&lt;/div&gt;" style="verticalAlign=top;align=center;spacingTop=8;spacingLeft=2;spacingRight=12;shape=cube;size=10;direction=south;fontStyle=1;html=1;whiteSpace=wrap;fillColor=#33FF33;" parent="jvcADhcVPLt3B4X78LWL-1" vertex="1">
          <mxGeometry x="33.66" y="216.87" width="180" height="86.75" as="geometry" />
        </mxCell>
        <mxCell id="jvcADhcVPLt3B4X78LWL-34" value="&lt;span style=&quot;font-size: 15px;&quot;&gt;&lt;b&gt;PC CLIENT (IT)&lt;/b&gt;&lt;/span&gt;" style="verticalAlign=top;align=center;spacingTop=8;spacingLeft=2;spacingRight=12;shape=cube;size=10;direction=south;fontStyle=4;html=1;whiteSpace=wrap;" parent="jvcADhcVPLt3B4X78LWL-1" vertex="1">
          <mxGeometry x="880" y="477" width="170" height="246.5" as="geometry" />
        </mxCell>
        <mxCell id="jvcADhcVPLt3B4X78LWL-39" value="OS" style="html=1;whiteSpace=wrap;fontStyle=1;align=left;fillColor=#33FF33;" parent="jvcADhcVPLt3B4X78LWL-1" vertex="1">
          <mxGeometry x="908.67" y="542.5" width="112.67" height="40" as="geometry" />
        </mxCell>
        <mxCell id="stSaYYKcVWD6naMzTqCq-35" style="edgeStyle=orthogonalEdgeStyle;rounded=0;orthogonalLoop=1;jettySize=auto;html=1;exitX=0;exitY=0.5;exitDx=0;exitDy=0;entryX=0;entryY=0.25;entryDx=0;entryDy=0;" parent="jvcADhcVPLt3B4X78LWL-1" source="jvcADhcVPLt3B4X78LWL-40" target="jvcADhcVPLt3B4X78LWL-49" edge="1">
          <mxGeometry relative="1" as="geometry">
            <Array as="points">
              <mxPoint x="909" y="670" />
              <mxPoint x="780" y="670" />
              <mxPoint x="780" y="130" />
            </Array>
          </mxGeometry>
        </mxCell>
        <mxCell id="jvcADhcVPLt3B4X78LWL-40" value="Navigateur" style="html=1;whiteSpace=wrap;fontStyle=1;align=left;fillColor=#33FF33;" parent="jvcADhcVPLt3B4X78LWL-1" vertex="1">
          <mxGeometry x="908.67" y="656" width="112.67" height="40" as="geometry" />
        </mxCell>
        <mxCell id="jvcADhcVPLt3B4X78LWL-42" value="" style="shape=image;verticalLabelPosition=bottom;labelBackgroundColor=default;verticalAlign=top;aspect=fixed;imageAspect=0;image=data:image/png,iVBORw0KGgoAAAANSUhEUgAAAEQAAAA8CAYAAADfYhweAAAMP2lDQ1BJQ0MgUHJvZmlsZQAASImVVwdYU8kWnltSIbQAAlJCb4KIlABSQmihdwRRCUmAUGIMBBU7uqjg2sUCNnRVRMEKiAVF7CyKvS8WFJR1sWBX3qSArvvK9+b75s5//znznzPnztx7BwD1E1yxOBfVACBPVCCJDfZnjE1OYZC6AQmQAQUYAJzLyxezoqPDASyD7d/LuxsAkbVXHWRa/+z/r0WTL8jnAYBEQ5zOz+flQXwQALySJ5YUAECU8eZTCsQyDCvQlsAAIV4ow5kKXCnD6Qq8V24TH8uGuBUAsiqXK8kEQO0y5BmFvEyoodYHsZOILxQBoM6A2CcvbxIf4jSIbaCNGGKZPjP9B53Mv2mmD2lyuZlDWDEXeSEHCPPFudxp/2c6/nfJy5UO+rCCVTVLEhIrmzPM262cSWEyrApxryg9MgpiLYg/CPlye4hRapY0JEFhjxry8tkwZ0AXYic+NyAMYkOIg0S5keFKPj1DGMSBGK4QdKqwgBMPsR7ECwX5gXFKm82SSbFKX2h9hoTNUvLnuBK5X5mvB9KcBJZS/3WWgKPUx9SKsuKTIKZCbFEoTIyEWA1ix/ycuDClzZiiLHbkoI1EGiuL3wLiWIEo2F+hjxVmSIJilfalefmD88U2Zwk5kUq8vyArPkSRH6yVx5XHD+eCXRaIWAmDOoL8seGDc+ELAgIVc8e6BaKEOKXOB3GBf6xiLE4V50Yr7XEzQW6wjDeD2CW/ME45Fk8sgAtSoY9niAui4xVx4kXZ3NBoRTz4MhAO2CAAMIAU1nQwCWQDYXtvQy+8U/QEAS6QgEwgAA5KZnBEkrxHBK9xoAj8CZEA5A+N85f3CkAh5L8OsYqrA8iQ9xbKR+SApxDngTCQC++l8lGiIW+J4AlkhP/wzoWVB+PNhVXW/+/5QfY7w4JMuJKRDnpkqA9aEgOJAcQQYhDRFjfAfXAvPBxe/WB1xpm4x+A8vtsTnhI6CI8I1wmdhNsThcWSn6KMAJ1QP0iZi/Qfc4FbQU1X3B/3hupQGdfFDYAD7gL9sHBf6NkVsmxl3LKsMH7S/tsMfngaSjuKEwWlDKP4UWx+Hqlmp+Y6pCLL9Y/5UcSaPpRv9lDPz/7ZP2SfD9uwny2xhdgB7Cx2EjuPHcUaAANrxhqxNuyYDA+trify1TXoLVYeTw7UEf7D3+CTlWUy36nGqcfpi6KvQDBV9o4G7EniaRJhZlYBgwW/CAIGR8RzHMFwdnJ2AUD2fVG8vt7EyL8biG7bd27eHwB4Nw8MDBz5zoU2A7DPHW7/w985Gyb8dKgAcO4wTyopVHC47EKAbwl1uNP0gTEwBzZwPs7ADXgBPxAIQkEUiAfJYAKMPguucwmYAmaAuaAElIFlYDVYDzaBrWAn2AP2gwZwFJwEZ8BFcBlcB3fh6ukCL0AfeAc+IwhCQmgIHdFHTBBLxB5xRpiIDxKIhCOxSDKShmQiIkSKzEDmIWXICmQ9sgWpRvYhh5GTyHmkA7mNPER6kNfIJxRDVVFt1Ai1QkeiTJSFhqHx6Hg0E52MFqHz0SXoWrQK3Y3WoyfRi+h1tBN9gfZjAFPBdDFTzAFjYmwsCkvBMjAJNgsrxcqxKqwWa4LP+SrWifViH3EiTscZuANcwSF4As7DJ+Oz8MX4enwnXo+34lfxh3gf/o1AIxgS7AmeBA5hLCGTMIVQQignbCccIpyGe6mL8I5IJOoSrYnucC8mE7OJ04mLiRuIdcQTxA7iY2I/iUTSJ9mTvElRJC6pgFRCWkfaTWomXSF1kT6QVcgmZGdyEDmFLCIXk8vJu8jHyVfIz8ifKRoUS4onJYrCp0yjLKVsozRRLlG6KJ+pmlRrqjc1nppNnUtdS62lnqbeo75RUVExU/FQiVERqsxRWauyV+WcykOVj6paqnaqbNVUVanqEtUdqidUb6u+odFoVjQ/WgqtgLaEVk07RXtA+6BGV3NU46jx1WarVajVq11Re6lOUbdUZ6lPUC9SL1c/oH5JvVeDomGlwdbgaszSqNA4rHFTo1+TrjlKM0ozT3Ox5i7N85rdWiQtK61ALb7WfK2tWqe0HtMxujmdTefR59G30U/Tu7SJ2tbaHO1s7TLtPdrt2n06WjouOok6U3UqdI7pdOpiula6HN1c3aW6+3Vv6H4aZjSMNUwwbNGw2mFXhr3XG67npyfQK9Wr07uu90mfoR+on6O/XL9B/74BbmBnEGMwxWCjwWmD3uHaw72G84aXDt8//I4hamhnGGs43XCrYZthv5GxUbCR2Gid0SmjXmNdYz/jbONVxseNe0zoJj4mQpNVJs0mzxk6DBYjl7GW0croMzU0DTGVmm4xbTf9bGZtlmBWbFZndt+cas40zzBfZd5i3mdhYhFhMcOixuKOJcWSaZllucbyrOV7K2urJKsFVg1W3dZ61hzrIusa63s2NBtfm8k2VTbXbIm2TNsc2w22l+1QO1e7LLsKu0v2qL2bvdB+g33HCMIIjxGiEVUjbjqoOrAcCh1qHB466jqGOxY7Nji+HGkxMmXk8pFnR35zcnXKddrmdHeU1qjQUcWjmka9drZz5jlXOF8bTRsdNHr26MbRr1zsXQQuG11uudJdI1wXuLa4fnVzd5O41br1uFu4p7lXut9kajOjmYuZ5zwIHv4esz2Oenz0dPMs8Nzv+ZeXg1eO1y6v7jHWYwRjto157G3mzfXe4t3pw/BJ89ns0+lr6sv1rfJ95Gfux/fb7veMZcvKZu1mvfR38pf4H/J/z/Zkz2SfCMACggNKA9oDtQITAtcHPggyC8oMqgnqC3YNnh58IoQQEhayPOQmx4jD41Rz+kLdQ2eGtoaphsWFrQ97FG4XLglvikAjQiNWRtyLtIwURTZEgShO1Mqo+9HW0ZOjj8QQY6JjKmKexo6KnRF7No4eNzFuV9y7eP/4pfF3E2wSpAktieqJqYnVie+TApJWJHWOHTl25tiLyQbJwuTGFFJKYsr2lP5xgeNWj+tKdU0tSb0x3nr81PHnJxhMyJ1wbKL6RO7EA2mEtKS0XWlfuFHcKm5/Oie9Mr2Px+at4b3g+/FX8XsE3oIVgmcZ3hkrMrozvTNXZvZk+WaVZ/UK2cL1wlfZIdmbst/nROXsyBnITcqtyyPnpeUdFmmJckStk4wnTZ3UIbYXl4g7J3tOXj25TxIm2Z6P5I/PbyzQhj/ybVIb6S/Sh4U+hRWFH6YkTjkwVXOqaGrbNLtpi6Y9Kwoq+m06Pp03vWWG6Yy5Mx7OZM3cMguZlT6rZbb57Pmzu+YEz9k5lzo3Z+7vxU7FK4rfzkua1zTfaP6c+Y9/Cf6lpkStRFJyc4HXgk0L8YXChe2LRi9at+hbKb/0QplTWXnZl8W8xRd+HfXr2l8HlmQsaV/qtnTjMuIy0bIby32X71yhuaJoxeOVESvrVzFWla56u3ri6vPlLuWb1lDXSNd0rg1f27jOYt2ydV/WZ62/XuFfUVdpWLmo8v0G/oYrG/021m4y2lS26dNm4eZbW4K31FdZVZVvJW4t3Pp0W+K2s78xf6vebrC9bPvXHaIdnTtjd7ZWu1dX7zLctbQGrZHW9OxO3X15T8CexlqH2i11unVle8Fe6d7n+9L23dgftr/lAPNA7UHLg5WH6IdK65H6afV9DVkNnY3JjR2HQw+3NHk1HTrieGTHUdOjFcd0ji09Tj0+//hAc1Fz/wnxid6TmScft0xsuXtq7KlrrTGt7afDTp87E3Tm1FnW2eZz3ueOnvc8f/gC80LDRbeL9W2ubYd+d/39ULtbe/0l90uNlz0uN3WM6Th+xffKyasBV89c41y7eD3yeseNhBu3bqbe7LzFv9V9O/f2qzuFdz7fnXOPcK/0vsb98geGD6r+sP2jrtOt89jDgIdtj+Ie3X3Me/ziSf6TL13zn9Kelj8zeVbd7dx9tCeo5/Lzcc+7XohffO4t+VPzz8qXNi8P/uX3V1vf2L6uV5JXA68Xv9F/s+Oty9uW/uj+B+/y3n1+X/pB/8POj8yPZz8lfXr2ecoX0pe1X22/Nn0L+3ZvIG9gQMyVcOW/AhisaEYGAK93AEBLBoAOz2fUcYrzn7wgijOrHIH/hBVnRHlxA6AW/r/H9MK/m5sA7N0Gj19QXz0VgGgaAPEeAB09eqgOntXk50pZIcJzwOb4r+l56eDfFMWZ84e4f26BTNUF/Nz+C9nzfEbVa0KNAAAAlmVYSWZNTQAqAAAACAAFARIAAwAAAAEAAQAAARoABQAAAAEAAABKARsABQAAAAEAAABSASgAAwAAAAEAAgAAh2kABAAAAAEAAABaAAAAAAAAAJAAAAABAAAAkAAAAAEAA5KGAAcAAAASAAAAhKACAAQAAAABAAAARKADAAQAAAABAAAAPAAAAABBU0NJSQAAAFNjcmVlbnNob3QEKSxcAAAACXBIWXMAABYlAAAWJQFJUiTwAAAC2WlUWHRYTUw6Y29tLmFkb2JlLnhtcAAAAAAAPHg6eG1wbWV0YSB4bWxuczp4PSJhZG9iZTpuczptZXRhLyIgeDp4bXB0az0iWE1QIENvcmUgNi4wLjAiPgogICA8cmRmOlJERiB4bWxuczpyZGY9Imh0dHA6Ly93d3cudzMub3JnLzE5OTkvMDIvMjItcmRmLXN5bnRheC1ucyMiPgogICAgICA8cmRmOkRlc2NyaXB0aW9uIHJkZjphYm91dD0iIgogICAgICAgICAgICB4bWxuczpleGlmPSJodHRwOi8vbnMuYWRvYmUuY29tL2V4aWYvMS4wLyIKICAgICAgICAgICAgeG1sbnM6dGlmZj0iaHR0cDovL25zLmFkb2JlLmNvbS90aWZmLzEuMC8iPgogICAgICAgICA8ZXhpZjpVc2VyQ29tbWVudD5TY3JlZW5zaG90PC9leGlmOlVzZXJDb21tZW50PgogICAgICAgICA8ZXhpZjpQaXhlbFhEaW1lbnNpb24+Njg8L2V4aWY6UGl4ZWxYRGltZW5zaW9uPgogICAgICAgICA8ZXhpZjpQaXhlbFlEaW1lbnNpb24+NjA8L2V4aWY6UGl4ZWxZRGltZW5zaW9uPgogICAgICAgICA8dGlmZjpSZXNvbHV0aW9uVW5pdD4yPC90aWZmOlJlc29sdXRpb25Vbml0PgogICAgICAgICA8dGlmZjpYUmVzb2x1dGlvbj4xNDQvMTwvdGlmZjpYUmVzb2x1dGlvbj4KICAgICAgICAgPHRpZmY6WVJlc29sdXRpb24+MTQ0LzE8L3RpZmY6WVJlc29sdXRpb24+CiAgICAgICAgIDx0aWZmOk9yaWVudGF0aW9uPjE8L3RpZmY6T3JpZW50YXRpb24+CiAgICAgIDwvcmRmOkRlc2NyaXB0aW9uPgogICA8L3JkZjpSREY+CjwveDp4bXBtZXRhPgrInBAqAAAGNklEQVRoBe3aC0/cOhCG4UCXUuiFwv//fUjcWmjpDQqcPpa+yOtmEalO2aTakUZOso4z83o8ngS27u/vH7qN9AS2+6PNQSGwAdIEwqI5f/T04eGh+7XEit7d3ZW+W1tbXfTRm9f4I7uJlq3b29u9tmaNAvLz58/u69evvRpssVh0Ozs7pW0Hn8I5CCYvyta9vb1eWxtHA7m+vu4+fPhQFO1Xr151u7u7pW0Hn8K5iL69vS16c3PT7e/vdwcHByVC2M6HWv4IyPn5eXd8fFwGff36dRetB57Kscj48eNH9/3799K+ffu2QAADmFZGAUn4Ie4hL168KNFhFlrS7YPWeQ4Km0ERzZY+m4dkFBDJKGvwzZs3JW+g/O7du0HaQw987mtAyHNsN6GA8MFkDskoIKLAYMINkJcvXxYQoLx//35o/LVfE8nsTnSzOYCGjBsFpI0QYEQHGIeHh0Pjr/0aICTLJhHClyFZWEs6p0WSaHOcG799+9bZZT5//lxa4Zjc0a5JDzQb0VUhmrH/VitfeDZlE2Vz7G6fuwDDdhTlWHQISLZcrdBTl4B0dXW1NDYDklu06wKyZNQTTkqEgGH2KaIgJWrqMTgPxMXFRWnRBiOFTt1XZBgXCHu/UJ2D9BEChqUACLUcQKlFn48fPxYFRgRxNMui7us6YGqUo6Oj+qdJHy84lfwBhLXFmaEqzkzbZVLt8cx5ynf7fHTSXj9iXNllAElUAAEI5Wwt+phxu4poIZZE9PLysqPGE2FzlJURosQVCbUEHDCU1Fnb0tFHrpk1kHrZWDIiQ6JUfI0Ry+XTp0+/RdaYMdbdd7g6WbdVa3z+BkgDfwOkAbKQMyRGO4Xt07nEmGKt7i/XpGhLjaJ/xkgy1c94Sbj1GFM/XjAaCDuEROocDBVoXozihJ3Fdht13b1R5TsoxHiSMzCAzUVKhHBI3ZGtUpvj2hGAOB3lKMfdq3UPmCLENePODkgbIZyOtlDM/tnZWa/uVcjlXSZVKxAAafWZVYTUQMys8yiHapFbAEg1a/bzPVWbZZI6RnGnr35zkT6HMLiGw5EkzjhjGYACnFkHjNNR5xQAcBR2omdWQOJYDYPT0cDQghQYcdrnw2giKy0oIM4KSIyvHV91bLYJB6lznw6jq+6b0/XyPSS1hW1VBNRaO5PvIb6F+C4iAiRgyda3lFqAFlHRNh/Vfad03H8xy86SpZK2NhYQMKKiJDC89tcCgM8ENLml/n2qx0tfzDgnSkSMFpRa/A6GT4hUFIgMS0ck1CJ6jAHG2LfmepznPi4Rot7w6v7ly5el0rwFkq9hii/3WFr6cFyEOc61bL0SbrtbPbeTY5732wcis56dwXEtag2/mXGJlPN1MSaCqKXltznKEhCzLvw5rRX2tYiEwBAtRB4BTpvcIiJEzBxlCQiH1SXywdAnRLPOWUsjy0D/qHxhDEtvtkDMYtY9RzlntkWHKBkjXvqy3MbcN6W+y0liSpatyZYNkAb8BkgDpHwgkjNsn/KGHCIx2jod1yKR+o3mW4kdJupPEJJptuPsQPUYUz/uX/+TRDnHWZ8Qs7XGCdfVGXYRLWApywFVtfoNEOO5BkoLNuNNsV0CYrvlDMdVo3adWgDyzuLFTstRu0pUBGU7BgQsgGcLBABOC/u0NRCzf3p6WvTk5KQ4a2v2J88UdEAAFCCzi5CEPSeIGTWzHJIrask1UQCefsp51avWEomKNm+6QIEyF+mXDIPB4BA4HEn4xxnXs4yA1Nd/B6lq819CnE9eAWm2QAKDw1H5pJa84uvLcYDyH4ha14GiGQ80gOYi/bb7lLDmWLZd0QOIt15LQ7tKAnjV73/zOjuzxE1wdNUzR02dwQCxA0m6HgSSaJiqsFUJoa6ye7L3sQkaDQQEAwOiDQzXpygmUM3EXnAsYUDadBDb/whIIkSuMHAgZdAptWxjLzWBzv83IADINdmJOJ4ls4r4uuHUNjtOfZTIbu0bFSFgKMIk0AwITrQdfArnJkpEiAyqDFAOADMko4CIBkCQNjABBqin7FJDBjzHtSwRbaIbEH60svWr03Kx0faozkPbwJQYdGjg6rbJHLKfrSYxbWvcKCDtzf/i+XQLiDXR3gBpwG+ANED+A8I8opteDCP0AAAAAElFTkSuQmCC;movable=1;resizable=1;rotatable=1;deletable=1;editable=1;locked=0;connectable=1;container=0;" parent="jvcADhcVPLt3B4X78LWL-1" vertex="1">
          <mxGeometry x="986.29" y="549" width="27" height="27" as="geometry" />
        </mxCell>
        <mxCell id="jvcADhcVPLt3B4X78LWL-45" value="&lt;span style=&quot;font-size: 15px;&quot;&gt;&lt;b&gt;Serveur&lt;/b&gt;&lt;/span&gt;" style="verticalAlign=top;align=center;spacingTop=8;spacingLeft=2;spacingRight=12;shape=cube;size=10;direction=south;fontStyle=4;html=1;whiteSpace=wrap;fillColor=#d5e8d4;strokeColor=#82b366;" parent="jvcADhcVPLt3B4X78LWL-1" vertex="1">
          <mxGeometry x="1026.29" y="40" width="200" height="370" as="geometry" />
        </mxCell>
        <mxCell id="jvcADhcVPLt3B4X78LWL-46" value="&lt;font style=&quot;font-size: 11px;&quot;&gt;OS GNU/Linux&lt;/font&gt;" style="html=1;whiteSpace=wrap;fontStyle=1;align=left;fillColor=#33FF33;" parent="jvcADhcVPLt3B4X78LWL-1" vertex="1">
          <mxGeometry x="1069.95" y="70" width="112.67" height="40" as="geometry" />
        </mxCell>
        <mxCell id="jvcADhcVPLt3B4X78LWL-47" value="" style="shape=image;verticalLabelPosition=bottom;labelBackgroundColor=default;verticalAlign=top;aspect=fixed;imageAspect=0;image=data:image/png,iVBORw0KGgoAAAANSUhEUgAAAEQAAAA8CAYAAADfYhweAAAMP2lDQ1BJQ0MgUHJvZmlsZQAASImVVwdYU8kWnltSIbQAAlJCb4KIlABSQmihdwRRCUmAUGIMBBU7uqjg2sUCNnRVRMEKiAVF7CyKvS8WFJR1sWBX3qSArvvK9+b75s5//znznzPnztx7BwD1E1yxOBfVACBPVCCJDfZnjE1OYZC6AQmQAQUYAJzLyxezoqPDASyD7d/LuxsAkbVXHWRa/+z/r0WTL8jnAYBEQ5zOz+flQXwQALySJ5YUAECU8eZTCsQyDCvQlsAAIV4ow5kKXCnD6Qq8V24TH8uGuBUAsiqXK8kEQO0y5BmFvEyoodYHsZOILxQBoM6A2CcvbxIf4jSIbaCNGGKZPjP9B53Mv2mmD2lyuZlDWDEXeSEHCPPFudxp/2c6/nfJy5UO+rCCVTVLEhIrmzPM262cSWEyrApxryg9MgpiLYg/CPlye4hRapY0JEFhjxry8tkwZ0AXYic+NyAMYkOIg0S5keFKPj1DGMSBGK4QdKqwgBMPsR7ECwX5gXFKm82SSbFKX2h9hoTNUvLnuBK5X5mvB9KcBJZS/3WWgKPUx9SKsuKTIKZCbFEoTIyEWA1ix/ycuDClzZiiLHbkoI1EGiuL3wLiWIEo2F+hjxVmSIJilfalefmD88U2Zwk5kUq8vyArPkSRH6yVx5XHD+eCXRaIWAmDOoL8seGDc+ELAgIVc8e6BaKEOKXOB3GBf6xiLE4V50Yr7XEzQW6wjDeD2CW/ME45Fk8sgAtSoY9niAui4xVx4kXZ3NBoRTz4MhAO2CAAMIAU1nQwCWQDYXtvQy+8U/QEAS6QgEwgAA5KZnBEkrxHBK9xoAj8CZEA5A+N85f3CkAh5L8OsYqrA8iQ9xbKR+SApxDngTCQC++l8lGiIW+J4AlkhP/wzoWVB+PNhVXW/+/5QfY7w4JMuJKRDnpkqA9aEgOJAcQQYhDRFjfAfXAvPBxe/WB1xpm4x+A8vtsTnhI6CI8I1wmdhNsThcWSn6KMAJ1QP0iZi/Qfc4FbQU1X3B/3hupQGdfFDYAD7gL9sHBf6NkVsmxl3LKsMH7S/tsMfngaSjuKEwWlDKP4UWx+Hqlmp+Y6pCLL9Y/5UcSaPpRv9lDPz/7ZP2SfD9uwny2xhdgB7Cx2EjuPHcUaAANrxhqxNuyYDA+trify1TXoLVYeTw7UEf7D3+CTlWUy36nGqcfpi6KvQDBV9o4G7EniaRJhZlYBgwW/CAIGR8RzHMFwdnJ2AUD2fVG8vt7EyL8biG7bd27eHwB4Nw8MDBz5zoU2A7DPHW7/w985Gyb8dKgAcO4wTyopVHC47EKAbwl1uNP0gTEwBzZwPs7ADXgBPxAIQkEUiAfJYAKMPguucwmYAmaAuaAElIFlYDVYDzaBrWAn2AP2gwZwFJwEZ8BFcBlcB3fh6ukCL0AfeAc+IwhCQmgIHdFHTBBLxB5xRpiIDxKIhCOxSDKShmQiIkSKzEDmIWXICmQ9sgWpRvYhh5GTyHmkA7mNPER6kNfIJxRDVVFt1Ai1QkeiTJSFhqHx6Hg0E52MFqHz0SXoWrQK3Y3WoyfRi+h1tBN9gfZjAFPBdDFTzAFjYmwsCkvBMjAJNgsrxcqxKqwWa4LP+SrWifViH3EiTscZuANcwSF4As7DJ+Oz8MX4enwnXo+34lfxh3gf/o1AIxgS7AmeBA5hLCGTMIVQQignbCccIpyGe6mL8I5IJOoSrYnucC8mE7OJ04mLiRuIdcQTxA7iY2I/iUTSJ9mTvElRJC6pgFRCWkfaTWomXSF1kT6QVcgmZGdyEDmFLCIXk8vJu8jHyVfIz8ifKRoUS4onJYrCp0yjLKVsozRRLlG6KJ+pmlRrqjc1nppNnUtdS62lnqbeo75RUVExU/FQiVERqsxRWauyV+WcykOVj6paqnaqbNVUVanqEtUdqidUb6u+odFoVjQ/WgqtgLaEVk07RXtA+6BGV3NU46jx1WarVajVq11Re6lOUbdUZ6lPUC9SL1c/oH5JvVeDomGlwdbgaszSqNA4rHFTo1+TrjlKM0ozT3Ox5i7N85rdWiQtK61ALb7WfK2tWqe0HtMxujmdTefR59G30U/Tu7SJ2tbaHO1s7TLtPdrt2n06WjouOok6U3UqdI7pdOpiula6HN1c3aW6+3Vv6H4aZjSMNUwwbNGw2mFXhr3XG67npyfQK9Wr07uu90mfoR+on6O/XL9B/74BbmBnEGMwxWCjwWmD3uHaw72G84aXDt8//I4hamhnGGs43XCrYZthv5GxUbCR2Gid0SmjXmNdYz/jbONVxseNe0zoJj4mQpNVJs0mzxk6DBYjl7GW0croMzU0DTGVmm4xbTf9bGZtlmBWbFZndt+cas40zzBfZd5i3mdhYhFhMcOixuKOJcWSaZllucbyrOV7K2urJKsFVg1W3dZ61hzrIusa63s2NBtfm8k2VTbXbIm2TNsc2w22l+1QO1e7LLsKu0v2qL2bvdB+g33HCMIIjxGiEVUjbjqoOrAcCh1qHB466jqGOxY7Nji+HGkxMmXk8pFnR35zcnXKddrmdHeU1qjQUcWjmka9drZz5jlXOF8bTRsdNHr26MbRr1zsXQQuG11uudJdI1wXuLa4fnVzd5O41br1uFu4p7lXut9kajOjmYuZ5zwIHv4esz2Oenz0dPMs8Nzv+ZeXg1eO1y6v7jHWYwRjto157G3mzfXe4t3pw/BJ89ns0+lr6sv1rfJ95Gfux/fb7veMZcvKZu1mvfR38pf4H/J/z/Zkz2SfCMACggNKA9oDtQITAtcHPggyC8oMqgnqC3YNnh58IoQQEhayPOQmx4jD41Rz+kLdQ2eGtoaphsWFrQ97FG4XLglvikAjQiNWRtyLtIwURTZEgShO1Mqo+9HW0ZOjj8QQY6JjKmKexo6KnRF7No4eNzFuV9y7eP/4pfF3E2wSpAktieqJqYnVie+TApJWJHWOHTl25tiLyQbJwuTGFFJKYsr2lP5xgeNWj+tKdU0tSb0x3nr81PHnJxhMyJ1wbKL6RO7EA2mEtKS0XWlfuFHcKm5/Oie9Mr2Px+at4b3g+/FX8XsE3oIVgmcZ3hkrMrozvTNXZvZk+WaVZ/UK2cL1wlfZIdmbst/nROXsyBnITcqtyyPnpeUdFmmJckStk4wnTZ3UIbYXl4g7J3tOXj25TxIm2Z6P5I/PbyzQhj/ybVIb6S/Sh4U+hRWFH6YkTjkwVXOqaGrbNLtpi6Y9Kwoq+m06Pp03vWWG6Yy5Mx7OZM3cMguZlT6rZbb57Pmzu+YEz9k5lzo3Z+7vxU7FK4rfzkua1zTfaP6c+Y9/Cf6lpkStRFJyc4HXgk0L8YXChe2LRi9at+hbKb/0QplTWXnZl8W8xRd+HfXr2l8HlmQsaV/qtnTjMuIy0bIby32X71yhuaJoxeOVESvrVzFWla56u3ri6vPlLuWb1lDXSNd0rg1f27jOYt2ydV/WZ62/XuFfUVdpWLmo8v0G/oYrG/021m4y2lS26dNm4eZbW4K31FdZVZVvJW4t3Pp0W+K2s78xf6vebrC9bPvXHaIdnTtjd7ZWu1dX7zLctbQGrZHW9OxO3X15T8CexlqH2i11unVle8Fe6d7n+9L23dgftr/lAPNA7UHLg5WH6IdK65H6afV9DVkNnY3JjR2HQw+3NHk1HTrieGTHUdOjFcd0ji09Tj0+//hAc1Fz/wnxid6TmScft0xsuXtq7KlrrTGt7afDTp87E3Tm1FnW2eZz3ueOnvc8f/gC80LDRbeL9W2ubYd+d/39ULtbe/0l90uNlz0uN3WM6Th+xffKyasBV89c41y7eD3yeseNhBu3bqbe7LzFv9V9O/f2qzuFdz7fnXOPcK/0vsb98geGD6r+sP2jrtOt89jDgIdtj+Ie3X3Me/ziSf6TL13zn9Kelj8zeVbd7dx9tCeo5/Lzcc+7XohffO4t+VPzz8qXNi8P/uX3V1vf2L6uV5JXA68Xv9F/s+Oty9uW/uj+B+/y3n1+X/pB/8POj8yPZz8lfXr2ecoX0pe1X22/Nn0L+3ZvIG9gQMyVcOW/AhisaEYGAK93AEBLBoAOz2fUcYrzn7wgijOrHIH/hBVnRHlxA6AW/r/H9MK/m5sA7N0Gj19QXz0VgGgaAPEeAB09eqgOntXk50pZIcJzwOb4r+l56eDfFMWZ84e4f26BTNUF/Nz+C9nzfEbVa0KNAAAAlmVYSWZNTQAqAAAACAAFARIAAwAAAAEAAQAAARoABQAAAAEAAABKARsABQAAAAEAAABSASgAAwAAAAEAAgAAh2kABAAAAAEAAABaAAAAAAAAAJAAAAABAAAAkAAAAAEAA5KGAAcAAAASAAAAhKACAAQAAAABAAAARKADAAQAAAABAAAAPAAAAABBU0NJSQAAAFNjcmVlbnNob3QEKSxcAAAACXBIWXMAABYlAAAWJQFJUiTwAAAC2WlUWHRYTUw6Y29tLmFkb2JlLnhtcAAAAAAAPHg6eG1wbWV0YSB4bWxuczp4PSJhZG9iZTpuczptZXRhLyIgeDp4bXB0az0iWE1QIENvcmUgNi4wLjAiPgogICA8cmRmOlJERiB4bWxuczpyZGY9Imh0dHA6Ly93d3cudzMub3JnLzE5OTkvMDIvMjItcmRmLXN5bnRheC1ucyMiPgogICAgICA8cmRmOkRlc2NyaXB0aW9uIHJkZjphYm91dD0iIgogICAgICAgICAgICB4bWxuczpleGlmPSJodHRwOi8vbnMuYWRvYmUuY29tL2V4aWYvMS4wLyIKICAgICAgICAgICAgeG1sbnM6dGlmZj0iaHR0cDovL25zLmFkb2JlLmNvbS90aWZmLzEuMC8iPgogICAgICAgICA8ZXhpZjpVc2VyQ29tbWVudD5TY3JlZW5zaG90PC9leGlmOlVzZXJDb21tZW50PgogICAgICAgICA8ZXhpZjpQaXhlbFhEaW1lbnNpb24+Njg8L2V4aWY6UGl4ZWxYRGltZW5zaW9uPgogICAgICAgICA8ZXhpZjpQaXhlbFlEaW1lbnNpb24+NjA8L2V4aWY6UGl4ZWxZRGltZW5zaW9uPgogICAgICAgICA8dGlmZjpSZXNvbHV0aW9uVW5pdD4yPC90aWZmOlJlc29sdXRpb25Vbml0PgogICAgICAgICA8dGlmZjpYUmVzb2x1dGlvbj4xNDQvMTwvdGlmZjpYUmVzb2x1dGlvbj4KICAgICAgICAgPHRpZmY6WVJlc29sdXRpb24+MTQ0LzE8L3RpZmY6WVJlc29sdXRpb24+CiAgICAgICAgIDx0aWZmOk9yaWVudGF0aW9uPjE8L3RpZmY6T3JpZW50YXRpb24+CiAgICAgIDwvcmRmOkRlc2NyaXB0aW9uPgogICA8L3JkZjpSREY+CjwveDp4bXBtZXRhPgrInBAqAAAGNklEQVRoBe3aC0/cOhCG4UCXUuiFwv//fUjcWmjpDQqcPpa+yOtmEalO2aTakUZOso4z83o8ngS27u/vH7qN9AS2+6PNQSGwAdIEwqI5f/T04eGh+7XEit7d3ZW+W1tbXfTRm9f4I7uJlq3b29u9tmaNAvLz58/u69evvRpssVh0Ozs7pW0Hn8I5CCYvyta9vb1eWxtHA7m+vu4+fPhQFO1Xr151u7u7pW0Hn8K5iL69vS16c3PT7e/vdwcHByVC2M6HWv4IyPn5eXd8fFwGff36dRetB57Kscj48eNH9/3799K+ffu2QAADmFZGAUn4Ie4hL168KNFhFlrS7YPWeQ4Km0ERzZY+m4dkFBDJKGvwzZs3JW+g/O7du0HaQw987mtAyHNsN6GA8MFkDskoIKLAYMINkJcvXxYQoLx//35o/LVfE8nsTnSzOYCGjBsFpI0QYEQHGIeHh0Pjr/0aICTLJhHClyFZWEs6p0WSaHOcG799+9bZZT5//lxa4Zjc0a5JDzQb0VUhmrH/VitfeDZlE2Vz7G6fuwDDdhTlWHQISLZcrdBTl4B0dXW1NDYDklu06wKyZNQTTkqEgGH2KaIgJWrqMTgPxMXFRWnRBiOFTt1XZBgXCHu/UJ2D9BEChqUACLUcQKlFn48fPxYFRgRxNMui7us6YGqUo6Oj+qdJHy84lfwBhLXFmaEqzkzbZVLt8cx5ynf7fHTSXj9iXNllAElUAAEI5Wwt+phxu4poIZZE9PLysqPGE2FzlJURosQVCbUEHDCU1Fnb0tFHrpk1kHrZWDIiQ6JUfI0Ry+XTp0+/RdaYMdbdd7g6WbdVa3z+BkgDfwOkAbKQMyRGO4Xt07nEmGKt7i/XpGhLjaJ/xkgy1c94Sbj1GFM/XjAaCDuEROocDBVoXozihJ3Fdht13b1R5TsoxHiSMzCAzUVKhHBI3ZGtUpvj2hGAOB3lKMfdq3UPmCLENePODkgbIZyOtlDM/tnZWa/uVcjlXSZVKxAAafWZVYTUQMys8yiHapFbAEg1a/bzPVWbZZI6RnGnr35zkT6HMLiGw5EkzjhjGYACnFkHjNNR5xQAcBR2omdWQOJYDYPT0cDQghQYcdrnw2giKy0oIM4KSIyvHV91bLYJB6lznw6jq+6b0/XyPSS1hW1VBNRaO5PvIb6F+C4iAiRgyda3lFqAFlHRNh/Vfad03H8xy86SpZK2NhYQMKKiJDC89tcCgM8ENLml/n2qx0tfzDgnSkSMFpRa/A6GT4hUFIgMS0ck1CJ6jAHG2LfmepznPi4Rot7w6v7ly5el0rwFkq9hii/3WFr6cFyEOc61bL0SbrtbPbeTY5732wcis56dwXEtag2/mXGJlPN1MSaCqKXltznKEhCzLvw5rRX2tYiEwBAtRB4BTpvcIiJEzBxlCQiH1SXywdAnRLPOWUsjy0D/qHxhDEtvtkDMYtY9RzlntkWHKBkjXvqy3MbcN6W+y0liSpatyZYNkAb8BkgDpHwgkjNsn/KGHCIx2jod1yKR+o3mW4kdJupPEJJptuPsQPUYUz/uX/+TRDnHWZ8Qs7XGCdfVGXYRLWApywFVtfoNEOO5BkoLNuNNsV0CYrvlDMdVo3adWgDyzuLFTstRu0pUBGU7BgQsgGcLBABOC/u0NRCzf3p6WvTk5KQ4a2v2J88UdEAAFCCzi5CEPSeIGTWzHJIrask1UQCefsp51avWEomKNm+6QIEyF+mXDIPB4BA4HEn4xxnXs4yA1Nd/B6lq819CnE9eAWm2QAKDw1H5pJa84uvLcYDyH4ha14GiGQ80gOYi/bb7lLDmWLZd0QOIt15LQ7tKAnjV73/zOjuzxE1wdNUzR02dwQCxA0m6HgSSaJiqsFUJoa6ye7L3sQkaDQQEAwOiDQzXpygmUM3EXnAsYUDadBDb/whIIkSuMHAgZdAptWxjLzWBzv83IADINdmJOJ4ls4r4uuHUNjtOfZTIbu0bFSFgKMIk0AwITrQdfArnJkpEiAyqDFAOADMko4CIBkCQNjABBqin7FJDBjzHtSwRbaIbEH60svWr03Kx0faozkPbwJQYdGjg6rbJHLKfrSYxbWvcKCDtzf/i+XQLiDXR3gBpwG+ANED+A8I8opteDCP0AAAAAElFTkSuQmCC;movable=1;resizable=1;rotatable=1;deletable=1;editable=1;locked=0;connectable=1;container=0;" parent="jvcADhcVPLt3B4X78LWL-1" vertex="1">
          <mxGeometry x="1150.29" y="76.5" width="27" height="27" as="geometry" />
        </mxCell>
        <mxCell id="07bfvZG-6_nP_2OwuIHk-5" style="edgeStyle=orthogonalEdgeStyle;rounded=0;orthogonalLoop=1;jettySize=auto;html=1;exitX=0;exitY=0.5;exitDx=0;exitDy=0;entryX=0;entryY=0.25;entryDx=0;entryDy=0;" parent="jvcADhcVPLt3B4X78LWL-1" source="jvcADhcVPLt3B4X78LWL-49" target="jvcADhcVPLt3B4X78LWL-53" edge="1">
          <mxGeometry relative="1" as="geometry" />
        </mxCell>
        <mxCell id="jvcADhcVPLt3B4X78LWL-49" value="&lt;span style=&quot;text-wrap: nowrap;&quot;&gt;NodeRed&lt;/span&gt;" style="html=1;whiteSpace=wrap;fontStyle=1;align=left;fontSize=12;fillColor=#FF8000;" parent="jvcADhcVPLt3B4X78LWL-1" vertex="1">
          <mxGeometry x="1069.95" y="120" width="112.67" height="40" as="geometry" />
        </mxCell>
        <mxCell id="jvcADhcVPLt3B4X78LWL-50" value="" style="shape=image;verticalLabelPosition=bottom;labelBackgroundColor=default;verticalAlign=top;aspect=fixed;imageAspect=0;image=data:image/png,iVBORw0KGgoAAAANSUhEUgAAAEQAAAA8CAYAAADfYhweAAAMP2lDQ1BJQ0MgUHJvZmlsZQAASImVVwdYU8kWnltSIbQAAlJCb4KIlABSQmihdwRRCUmAUGIMBBU7uqjg2sUCNnRVRMEKiAVF7CyKvS8WFJR1sWBX3qSArvvK9+b75s5//znznzPnztx7BwD1E1yxOBfVACBPVCCJDfZnjE1OYZC6AQmQAQUYAJzLyxezoqPDASyD7d/LuxsAkbVXHWRa/+z/r0WTL8jnAYBEQ5zOz+flQXwQALySJ5YUAECU8eZTCsQyDCvQlsAAIV4ow5kKXCnD6Qq8V24TH8uGuBUAsiqXK8kEQO0y5BmFvEyoodYHsZOILxQBoM6A2CcvbxIf4jSIbaCNGGKZPjP9B53Mv2mmD2lyuZlDWDEXeSEHCPPFudxp/2c6/nfJy5UO+rCCVTVLEhIrmzPM262cSWEyrApxryg9MgpiLYg/CPlye4hRapY0JEFhjxry8tkwZ0AXYic+NyAMYkOIg0S5keFKPj1DGMSBGK4QdKqwgBMPsR7ECwX5gXFKm82SSbFKX2h9hoTNUvLnuBK5X5mvB9KcBJZS/3WWgKPUx9SKsuKTIKZCbFEoTIyEWA1ix/ycuDClzZiiLHbkoI1EGiuL3wLiWIEo2F+hjxVmSIJilfalefmD88U2Zwk5kUq8vyArPkSRH6yVx5XHD+eCXRaIWAmDOoL8seGDc+ELAgIVc8e6BaKEOKXOB3GBf6xiLE4V50Yr7XEzQW6wjDeD2CW/ME45Fk8sgAtSoY9niAui4xVx4kXZ3NBoRTz4MhAO2CAAMIAU1nQwCWQDYXtvQy+8U/QEAS6QgEwgAA5KZnBEkrxHBK9xoAj8CZEA5A+N85f3CkAh5L8OsYqrA8iQ9xbKR+SApxDngTCQC++l8lGiIW+J4AlkhP/wzoWVB+PNhVXW/+/5QfY7w4JMuJKRDnpkqA9aEgOJAcQQYhDRFjfAfXAvPBxe/WB1xpm4x+A8vtsTnhI6CI8I1wmdhNsThcWSn6KMAJ1QP0iZi/Qfc4FbQU1X3B/3hupQGdfFDYAD7gL9sHBf6NkVsmxl3LKsMH7S/tsMfngaSjuKEwWlDKP4UWx+Hqlmp+Y6pCLL9Y/5UcSaPpRv9lDPz/7ZP2SfD9uwny2xhdgB7Cx2EjuPHcUaAANrxhqxNuyYDA+trify1TXoLVYeTw7UEf7D3+CTlWUy36nGqcfpi6KvQDBV9o4G7EniaRJhZlYBgwW/CAIGR8RzHMFwdnJ2AUD2fVG8vt7EyL8biG7bd27eHwB4Nw8MDBz5zoU2A7DPHW7/w985Gyb8dKgAcO4wTyopVHC47EKAbwl1uNP0gTEwBzZwPs7ADXgBPxAIQkEUiAfJYAKMPguucwmYAmaAuaAElIFlYDVYDzaBrWAn2AP2gwZwFJwEZ8BFcBlcB3fh6ukCL0AfeAc+IwhCQmgIHdFHTBBLxB5xRpiIDxKIhCOxSDKShmQiIkSKzEDmIWXICmQ9sgWpRvYhh5GTyHmkA7mNPER6kNfIJxRDVVFt1Ai1QkeiTJSFhqHx6Hg0E52MFqHz0SXoWrQK3Y3WoyfRi+h1tBN9gfZjAFPBdDFTzAFjYmwsCkvBMjAJNgsrxcqxKqwWa4LP+SrWifViH3EiTscZuANcwSF4As7DJ+Oz8MX4enwnXo+34lfxh3gf/o1AIxgS7AmeBA5hLCGTMIVQQignbCccIpyGe6mL8I5IJOoSrYnucC8mE7OJ04mLiRuIdcQTxA7iY2I/iUTSJ9mTvElRJC6pgFRCWkfaTWomXSF1kT6QVcgmZGdyEDmFLCIXk8vJu8jHyVfIz8ifKRoUS4onJYrCp0yjLKVsozRRLlG6KJ+pmlRrqjc1nppNnUtdS62lnqbeo75RUVExU/FQiVERqsxRWauyV+WcykOVj6paqnaqbNVUVanqEtUdqidUb6u+odFoVjQ/WgqtgLaEVk07RXtA+6BGV3NU46jx1WarVajVq11Re6lOUbdUZ6lPUC9SL1c/oH5JvVeDomGlwdbgaszSqNA4rHFTo1+TrjlKM0ozT3Ox5i7N85rdWiQtK61ALb7WfK2tWqe0HtMxujmdTefR59G30U/Tu7SJ2tbaHO1s7TLtPdrt2n06WjouOok6U3UqdI7pdOpiula6HN1c3aW6+3Vv6H4aZjSMNUwwbNGw2mFXhr3XG67npyfQK9Wr07uu90mfoR+on6O/XL9B/74BbmBnEGMwxWCjwWmD3uHaw72G84aXDt8//I4hamhnGGs43XCrYZthv5GxUbCR2Gid0SmjXmNdYz/jbONVxseNe0zoJj4mQpNVJs0mzxk6DBYjl7GW0croMzU0DTGVmm4xbTf9bGZtlmBWbFZndt+cas40zzBfZd5i3mdhYhFhMcOixuKOJcWSaZllucbyrOV7K2urJKsFVg1W3dZ61hzrIusa63s2NBtfm8k2VTbXbIm2TNsc2w22l+1QO1e7LLsKu0v2qL2bvdB+g33HCMIIjxGiEVUjbjqoOrAcCh1qHB466jqGOxY7Nji+HGkxMmXk8pFnR35zcnXKddrmdHeU1qjQUcWjmka9drZz5jlXOF8bTRsdNHr26MbRr1zsXQQuG11uudJdI1wXuLa4fnVzd5O41br1uFu4p7lXut9kajOjmYuZ5zwIHv4esz2Oenz0dPMs8Nzv+ZeXg1eO1y6v7jHWYwRjto157G3mzfXe4t3pw/BJ89ns0+lr6sv1rfJ95Gfux/fb7veMZcvKZu1mvfR38pf4H/J/z/Zkz2SfCMACggNKA9oDtQITAtcHPggyC8oMqgnqC3YNnh58IoQQEhayPOQmx4jD41Rz+kLdQ2eGtoaphsWFrQ97FG4XLglvikAjQiNWRtyLtIwURTZEgShO1Mqo+9HW0ZOjj8QQY6JjKmKexo6KnRF7No4eNzFuV9y7eP/4pfF3E2wSpAktieqJqYnVie+TApJWJHWOHTl25tiLyQbJwuTGFFJKYsr2lP5xgeNWj+tKdU0tSb0x3nr81PHnJxhMyJ1wbKL6RO7EA2mEtKS0XWlfuFHcKm5/Oie9Mr2Px+at4b3g+/FX8XsE3oIVgmcZ3hkrMrozvTNXZvZk+WaVZ/UK2cL1wlfZIdmbst/nROXsyBnITcqtyyPnpeUdFmmJckStk4wnTZ3UIbYXl4g7J3tOXj25TxIm2Z6P5I/PbyzQhj/ybVIb6S/Sh4U+hRWFH6YkTjkwVXOqaGrbNLtpi6Y9Kwoq+m06Pp03vWWG6Yy5Mx7OZM3cMguZlT6rZbb57Pmzu+YEz9k5lzo3Z+7vxU7FK4rfzkua1zTfaP6c+Y9/Cf6lpkStRFJyc4HXgk0L8YXChe2LRi9at+hbKb/0QplTWXnZl8W8xRd+HfXr2l8HlmQsaV/qtnTjMuIy0bIby32X71yhuaJoxeOVESvrVzFWla56u3ri6vPlLuWb1lDXSNd0rg1f27jOYt2ydV/WZ62/XuFfUVdpWLmo8v0G/oYrG/021m4y2lS26dNm4eZbW4K31FdZVZVvJW4t3Pp0W+K2s78xf6vebrC9bPvXHaIdnTtjd7ZWu1dX7zLctbQGrZHW9OxO3X15T8CexlqH2i11unVle8Fe6d7n+9L23dgftr/lAPNA7UHLg5WH6IdK65H6afV9DVkNnY3JjR2HQw+3NHk1HTrieGTHUdOjFcd0ji09Tj0+//hAc1Fz/wnxid6TmScft0xsuXtq7KlrrTGt7afDTp87E3Tm1FnW2eZz3ueOnvc8f/gC80LDRbeL9W2ubYd+d/39ULtbe/0l90uNlz0uN3WM6Th+xffKyasBV89c41y7eD3yeseNhBu3bqbe7LzFv9V9O/f2qzuFdz7fnXOPcK/0vsb98geGD6r+sP2jrtOt89jDgIdtj+Ie3X3Me/ziSf6TL13zn9Kelj8zeVbd7dx9tCeo5/Lzcc+7XohffO4t+VPzz8qXNi8P/uX3V1vf2L6uV5JXA68Xv9F/s+Oty9uW/uj+B+/y3n1+X/pB/8POj8yPZz8lfXr2ecoX0pe1X22/Nn0L+3ZvIG9gQMyVcOW/AhisaEYGAK93AEBLBoAOz2fUcYrzn7wgijOrHIH/hBVnRHlxA6AW/r/H9MK/m5sA7N0Gj19QXz0VgGgaAPEeAB09eqgOntXk50pZIcJzwOb4r+l56eDfFMWZ84e4f26BTNUF/Nz+C9nzfEbVa0KNAAAAlmVYSWZNTQAqAAAACAAFARIAAwAAAAEAAQAAARoABQAAAAEAAABKARsABQAAAAEAAABSASgAAwAAAAEAAgAAh2kABAAAAAEAAABaAAAAAAAAAJAAAAABAAAAkAAAAAEAA5KGAAcAAAASAAAAhKACAAQAAAABAAAARKADAAQAAAABAAAAPAAAAABBU0NJSQAAAFNjcmVlbnNob3QEKSxcAAAACXBIWXMAABYlAAAWJQFJUiTwAAAC2WlUWHRYTUw6Y29tLmFkb2JlLnhtcAAAAAAAPHg6eG1wbWV0YSB4bWxuczp4PSJhZG9iZTpuczptZXRhLyIgeDp4bXB0az0iWE1QIENvcmUgNi4wLjAiPgogICA8cmRmOlJERiB4bWxuczpyZGY9Imh0dHA6Ly93d3cudzMub3JnLzE5OTkvMDIvMjItcmRmLXN5bnRheC1ucyMiPgogICAgICA8cmRmOkRlc2NyaXB0aW9uIHJkZjphYm91dD0iIgogICAgICAgICAgICB4bWxuczpleGlmPSJodHRwOi8vbnMuYWRvYmUuY29tL2V4aWYvMS4wLyIKICAgICAgICAgICAgeG1sbnM6dGlmZj0iaHR0cDovL25zLmFkb2JlLmNvbS90aWZmLzEuMC8iPgogICAgICAgICA8ZXhpZjpVc2VyQ29tbWVudD5TY3JlZW5zaG90PC9leGlmOlVzZXJDb21tZW50PgogICAgICAgICA8ZXhpZjpQaXhlbFhEaW1lbnNpb24+Njg8L2V4aWY6UGl4ZWxYRGltZW5zaW9uPgogICAgICAgICA8ZXhpZjpQaXhlbFlEaW1lbnNpb24+NjA8L2V4aWY6UGl4ZWxZRGltZW5zaW9uPgogICAgICAgICA8dGlmZjpSZXNvbHV0aW9uVW5pdD4yPC90aWZmOlJlc29sdXRpb25Vbml0PgogICAgICAgICA8dGlmZjpYUmVzb2x1dGlvbj4xNDQvMTwvdGlmZjpYUmVzb2x1dGlvbj4KICAgICAgICAgPHRpZmY6WVJlc29sdXRpb24+MTQ0LzE8L3RpZmY6WVJlc29sdXRpb24+CiAgICAgICAgIDx0aWZmOk9yaWVudGF0aW9uPjE8L3RpZmY6T3JpZW50YXRpb24+CiAgICAgIDwvcmRmOkRlc2NyaXB0aW9uPgogICA8L3JkZjpSREY+CjwveDp4bXBtZXRhPgrInBAqAAAGNklEQVRoBe3aC0/cOhCG4UCXUuiFwv//fUjcWmjpDQqcPpa+yOtmEalO2aTakUZOso4z83o8ngS27u/vH7qN9AS2+6PNQSGwAdIEwqI5f/T04eGh+7XEit7d3ZW+W1tbXfTRm9f4I7uJlq3b29u9tmaNAvLz58/u69evvRpssVh0Ozs7pW0Hn8I5CCYvyta9vb1eWxtHA7m+vu4+fPhQFO1Xr151u7u7pW0Hn8K5iL69vS16c3PT7e/vdwcHByVC2M6HWv4IyPn5eXd8fFwGff36dRetB57Kscj48eNH9/3799K+ffu2QAADmFZGAUn4Ie4hL168KNFhFlrS7YPWeQ4Km0ERzZY+m4dkFBDJKGvwzZs3JW+g/O7du0HaQw987mtAyHNsN6GA8MFkDskoIKLAYMINkJcvXxYQoLx//35o/LVfE8nsTnSzOYCGjBsFpI0QYEQHGIeHh0Pjr/0aICTLJhHClyFZWEs6p0WSaHOcG799+9bZZT5//lxa4Zjc0a5JDzQb0VUhmrH/VitfeDZlE2Vz7G6fuwDDdhTlWHQISLZcrdBTl4B0dXW1NDYDklu06wKyZNQTTkqEgGH2KaIgJWrqMTgPxMXFRWnRBiOFTt1XZBgXCHu/UJ2D9BEChqUACLUcQKlFn48fPxYFRgRxNMui7us6YGqUo6Oj+qdJHy84lfwBhLXFmaEqzkzbZVLt8cx5ynf7fHTSXj9iXNllAElUAAEI5Wwt+phxu4poIZZE9PLysqPGE2FzlJURosQVCbUEHDCU1Fnb0tFHrpk1kHrZWDIiQ6JUfI0Ry+XTp0+/RdaYMdbdd7g6WbdVa3z+BkgDfwOkAbKQMyRGO4Xt07nEmGKt7i/XpGhLjaJ/xkgy1c94Sbj1GFM/XjAaCDuEROocDBVoXozihJ3Fdht13b1R5TsoxHiSMzCAzUVKhHBI3ZGtUpvj2hGAOB3lKMfdq3UPmCLENePODkgbIZyOtlDM/tnZWa/uVcjlXSZVKxAAafWZVYTUQMys8yiHapFbAEg1a/bzPVWbZZI6RnGnr35zkT6HMLiGw5EkzjhjGYACnFkHjNNR5xQAcBR2omdWQOJYDYPT0cDQghQYcdrnw2giKy0oIM4KSIyvHV91bLYJB6lznw6jq+6b0/XyPSS1hW1VBNRaO5PvIb6F+C4iAiRgyda3lFqAFlHRNh/Vfad03H8xy86SpZK2NhYQMKKiJDC89tcCgM8ENLml/n2qx0tfzDgnSkSMFpRa/A6GT4hUFIgMS0ck1CJ6jAHG2LfmepznPi4Rot7w6v7ly5el0rwFkq9hii/3WFr6cFyEOc61bL0SbrtbPbeTY5732wcis56dwXEtag2/mXGJlPN1MSaCqKXltznKEhCzLvw5rRX2tYiEwBAtRB4BTpvcIiJEzBxlCQiH1SXywdAnRLPOWUsjy0D/qHxhDEtvtkDMYtY9RzlntkWHKBkjXvqy3MbcN6W+y0liSpatyZYNkAb8BkgDpHwgkjNsn/KGHCIx2jod1yKR+o3mW4kdJupPEJJptuPsQPUYUz/uX/+TRDnHWZ8Qs7XGCdfVGXYRLWApywFVtfoNEOO5BkoLNuNNsV0CYrvlDMdVo3adWgDyzuLFTstRu0pUBGU7BgQsgGcLBABOC/u0NRCzf3p6WvTk5KQ4a2v2J88UdEAAFCCzi5CEPSeIGTWzHJIrask1UQCefsp51avWEomKNm+6QIEyF+mXDIPB4BA4HEn4xxnXs4yA1Nd/B6lq819CnE9eAWm2QAKDw1H5pJa84uvLcYDyH4ha14GiGQ80gOYi/bb7lLDmWLZd0QOIt15LQ7tKAnjV73/zOjuzxE1wdNUzR02dwQCxA0m6HgSSaJiqsFUJoa6ye7L3sQkaDQQEAwOiDQzXpygmUM3EXnAsYUDadBDb/whIIkSuMHAgZdAptWxjLzWBzv83IADINdmJOJ4ls4r4uuHUNjtOfZTIbu0bFSFgKMIk0AwITrQdfArnJkpEiAyqDFAOADMko4CIBkCQNjABBqin7FJDBjzHtSwRbaIbEH60svWr03Kx0faozkPbwJQYdGjg6rbJHLKfrSYxbWvcKCDtzf/i+XQLiDXR3gBpwG+ANED+A8I8opteDCP0AAAAAElFTkSuQmCC;movable=1;resizable=1;rotatable=1;deletable=1;editable=1;locked=0;connectable=1;container=0;" parent="jvcADhcVPLt3B4X78LWL-1" vertex="1">
          <mxGeometry x="1150.29" y="126.5" width="27" height="27" as="geometry" />
        </mxCell>
        <mxCell id="jvcADhcVPLt3B4X78LWL-51" value="&lt;span style=&quot;text-wrap: nowrap;&quot;&gt;MQTT&lt;/span&gt;" style="html=1;whiteSpace=wrap;fontStyle=1;align=left;fontSize=12;fillColor=#33FF33;" parent="jvcADhcVPLt3B4X78LWL-1" vertex="1">
          <mxGeometry x="1069.95" y="170" width="112.67" height="40" as="geometry" />
        </mxCell>
        <mxCell id="jvcADhcVPLt3B4X78LWL-52" value="" style="shape=image;verticalLabelPosition=bottom;labelBackgroundColor=default;verticalAlign=top;aspect=fixed;imageAspect=0;image=data:image/png,iVBORw0KGgoAAAANSUhEUgAAAEQAAAA8CAYAAADfYhweAAAMP2lDQ1BJQ0MgUHJvZmlsZQAASImVVwdYU8kWnltSIbQAAlJCb4KIlABSQmihdwRRCUmAUGIMBBU7uqjg2sUCNnRVRMEKiAVF7CyKvS8WFJR1sWBX3qSArvvK9+b75s5//znznzPnztx7BwD1E1yxOBfVACBPVCCJDfZnjE1OYZC6AQmQAQUYAJzLyxezoqPDASyD7d/LuxsAkbVXHWRa/+z/r0WTL8jnAYBEQ5zOz+flQXwQALySJ5YUAECU8eZTCsQyDCvQlsAAIV4ow5kKXCnD6Qq8V24TH8uGuBUAsiqXK8kEQO0y5BmFvEyoodYHsZOILxQBoM6A2CcvbxIf4jSIbaCNGGKZPjP9B53Mv2mmD2lyuZlDWDEXeSEHCPPFudxp/2c6/nfJy5UO+rCCVTVLEhIrmzPM262cSWEyrApxryg9MgpiLYg/CPlye4hRapY0JEFhjxry8tkwZ0AXYic+NyAMYkOIg0S5keFKPj1DGMSBGK4QdKqwgBMPsR7ECwX5gXFKm82SSbFKX2h9hoTNUvLnuBK5X5mvB9KcBJZS/3WWgKPUx9SKsuKTIKZCbFEoTIyEWA1ix/ycuDClzZiiLHbkoI1EGiuL3wLiWIEo2F+hjxVmSIJilfalefmD88U2Zwk5kUq8vyArPkSRH6yVx5XHD+eCXRaIWAmDOoL8seGDc+ELAgIVc8e6BaKEOKXOB3GBf6xiLE4V50Yr7XEzQW6wjDeD2CW/ME45Fk8sgAtSoY9niAui4xVx4kXZ3NBoRTz4MhAO2CAAMIAU1nQwCWQDYXtvQy+8U/QEAS6QgEwgAA5KZnBEkrxHBK9xoAj8CZEA5A+N85f3CkAh5L8OsYqrA8iQ9xbKR+SApxDngTCQC++l8lGiIW+J4AlkhP/wzoWVB+PNhVXW/+/5QfY7w4JMuJKRDnpkqA9aEgOJAcQQYhDRFjfAfXAvPBxe/WB1xpm4x+A8vtsTnhI6CI8I1wmdhNsThcWSn6KMAJ1QP0iZi/Qfc4FbQU1X3B/3hupQGdfFDYAD7gL9sHBf6NkVsmxl3LKsMH7S/tsMfngaSjuKEwWlDKP4UWx+Hqlmp+Y6pCLL9Y/5UcSaPpRv9lDPz/7ZP2SfD9uwny2xhdgB7Cx2EjuPHcUaAANrxhqxNuyYDA+trify1TXoLVYeTw7UEf7D3+CTlWUy36nGqcfpi6KvQDBV9o4G7EniaRJhZlYBgwW/CAIGR8RzHMFwdnJ2AUD2fVG8vt7EyL8biG7bd27eHwB4Nw8MDBz5zoU2A7DPHW7/w985Gyb8dKgAcO4wTyopVHC47EKAbwl1uNP0gTEwBzZwPs7ADXgBPxAIQkEUiAfJYAKMPguucwmYAmaAuaAElIFlYDVYDzaBrWAn2AP2gwZwFJwEZ8BFcBlcB3fh6ukCL0AfeAc+IwhCQmgIHdFHTBBLxB5xRpiIDxKIhCOxSDKShmQiIkSKzEDmIWXICmQ9sgWpRvYhh5GTyHmkA7mNPER6kNfIJxRDVVFt1Ai1QkeiTJSFhqHx6Hg0E52MFqHz0SXoWrQK3Y3WoyfRi+h1tBN9gfZjAFPBdDFTzAFjYmwsCkvBMjAJNgsrxcqxKqwWa4LP+SrWifViH3EiTscZuANcwSF4As7DJ+Oz8MX4enwnXo+34lfxh3gf/o1AIxgS7AmeBA5hLCGTMIVQQignbCccIpyGe6mL8I5IJOoSrYnucC8mE7OJ04mLiRuIdcQTxA7iY2I/iUTSJ9mTvElRJC6pgFRCWkfaTWomXSF1kT6QVcgmZGdyEDmFLCIXk8vJu8jHyVfIz8ifKRoUS4onJYrCp0yjLKVsozRRLlG6KJ+pmlRrqjc1nppNnUtdS62lnqbeo75RUVExU/FQiVERqsxRWauyV+WcykOVj6paqnaqbNVUVanqEtUdqidUb6u+odFoVjQ/WgqtgLaEVk07RXtA+6BGV3NU46jx1WarVajVq11Re6lOUbdUZ6lPUC9SL1c/oH5JvVeDomGlwdbgaszSqNA4rHFTo1+TrjlKM0ozT3Ox5i7N85rdWiQtK61ALb7WfK2tWqe0HtMxujmdTefR59G30U/Tu7SJ2tbaHO1s7TLtPdrt2n06WjouOok6U3UqdI7pdOpiula6HN1c3aW6+3Vv6H4aZjSMNUwwbNGw2mFXhr3XG67npyfQK9Wr07uu90mfoR+on6O/XL9B/74BbmBnEGMwxWCjwWmD3uHaw72G84aXDt8//I4hamhnGGs43XCrYZthv5GxUbCR2Gid0SmjXmNdYz/jbONVxseNe0zoJj4mQpNVJs0mzxk6DBYjl7GW0croMzU0DTGVmm4xbTf9bGZtlmBWbFZndt+cas40zzBfZd5i3mdhYhFhMcOixuKOJcWSaZllucbyrOV7K2urJKsFVg1W3dZ61hzrIusa63s2NBtfm8k2VTbXbIm2TNsc2w22l+1QO1e7LLsKu0v2qL2bvdB+g33HCMIIjxGiEVUjbjqoOrAcCh1qHB466jqGOxY7Nji+HGkxMmXk8pFnR35zcnXKddrmdHeU1qjQUcWjmka9drZz5jlXOF8bTRsdNHr26MbRr1zsXQQuG11uudJdI1wXuLa4fnVzd5O41br1uFu4p7lXut9kajOjmYuZ5zwIHv4esz2Oenz0dPMs8Nzv+ZeXg1eO1y6v7jHWYwRjto157G3mzfXe4t3pw/BJ89ns0+lr6sv1rfJ95Gfux/fb7veMZcvKZu1mvfR38pf4H/J/z/Zkz2SfCMACggNKA9oDtQITAtcHPggyC8oMqgnqC3YNnh58IoQQEhayPOQmx4jD41Rz+kLdQ2eGtoaphsWFrQ97FG4XLglvikAjQiNWRtyLtIwURTZEgShO1Mqo+9HW0ZOjj8QQY6JjKmKexo6KnRF7No4eNzFuV9y7eP/4pfF3E2wSpAktieqJqYnVie+TApJWJHWOHTl25tiLyQbJwuTGFFJKYsr2lP5xgeNWj+tKdU0tSb0x3nr81PHnJxhMyJ1wbKL6RO7EA2mEtKS0XWlfuFHcKm5/Oie9Mr2Px+at4b3g+/FX8XsE3oIVgmcZ3hkrMrozvTNXZvZk+WaVZ/UK2cL1wlfZIdmbst/nROXsyBnITcqtyyPnpeUdFmmJckStk4wnTZ3UIbYXl4g7J3tOXj25TxIm2Z6P5I/PbyzQhj/ybVIb6S/Sh4U+hRWFH6YkTjkwVXOqaGrbNLtpi6Y9Kwoq+m06Pp03vWWG6Yy5Mx7OZM3cMguZlT6rZbb57Pmzu+YEz9k5lzo3Z+7vxU7FK4rfzkua1zTfaP6c+Y9/Cf6lpkStRFJyc4HXgk0L8YXChe2LRi9at+hbKb/0QplTWXnZl8W8xRd+HfXr2l8HlmQsaV/qtnTjMuIy0bIby32X71yhuaJoxeOVESvrVzFWla56u3ri6vPlLuWb1lDXSNd0rg1f27jOYt2ydV/WZ62/XuFfUVdpWLmo8v0G/oYrG/021m4y2lS26dNm4eZbW4K31FdZVZVvJW4t3Pp0W+K2s78xf6vebrC9bPvXHaIdnTtjd7ZWu1dX7zLctbQGrZHW9OxO3X15T8CexlqH2i11unVle8Fe6d7n+9L23dgftr/lAPNA7UHLg5WH6IdK65H6afV9DVkNnY3JjR2HQw+3NHk1HTrieGTHUdOjFcd0ji09Tj0+//hAc1Fz/wnxid6TmScft0xsuXtq7KlrrTGt7afDTp87E3Tm1FnW2eZz3ueOnvc8f/gC80LDRbeL9W2ubYd+d/39ULtbe/0l90uNlz0uN3WM6Th+xffKyasBV89c41y7eD3yeseNhBu3bqbe7LzFv9V9O/f2qzuFdz7fnXOPcK/0vsb98geGD6r+sP2jrtOt89jDgIdtj+Ie3X3Me/ziSf6TL13zn9Kelj8zeVbd7dx9tCeo5/Lzcc+7XohffO4t+VPzz8qXNi8P/uX3V1vf2L6uV5JXA68Xv9F/s+Oty9uW/uj+B+/y3n1+X/pB/8POj8yPZz8lfXr2ecoX0pe1X22/Nn0L+3ZvIG9gQMyVcOW/AhisaEYGAK93AEBLBoAOz2fUcYrzn7wgijOrHIH/hBVnRHlxA6AW/r/H9MK/m5sA7N0Gj19QXz0VgGgaAPEeAB09eqgOntXk50pZIcJzwOb4r+l56eDfFMWZ84e4f26BTNUF/Nz+C9nzfEbVa0KNAAAAlmVYSWZNTQAqAAAACAAFARIAAwAAAAEAAQAAARoABQAAAAEAAABKARsABQAAAAEAAABSASgAAwAAAAEAAgAAh2kABAAAAAEAAABaAAAAAAAAAJAAAAABAAAAkAAAAAEAA5KGAAcAAAASAAAAhKACAAQAAAABAAAARKADAAQAAAABAAAAPAAAAABBU0NJSQAAAFNjcmVlbnNob3QEKSxcAAAACXBIWXMAABYlAAAWJQFJUiTwAAAC2WlUWHRYTUw6Y29tLmFkb2JlLnhtcAAAAAAAPHg6eG1wbWV0YSB4bWxuczp4PSJhZG9iZTpuczptZXRhLyIgeDp4bXB0az0iWE1QIENvcmUgNi4wLjAiPgogICA8cmRmOlJERiB4bWxuczpyZGY9Imh0dHA6Ly93d3cudzMub3JnLzE5OTkvMDIvMjItcmRmLXN5bnRheC1ucyMiPgogICAgICA8cmRmOkRlc2NyaXB0aW9uIHJkZjphYm91dD0iIgogICAgICAgICAgICB4bWxuczpleGlmPSJodHRwOi8vbnMuYWRvYmUuY29tL2V4aWYvMS4wLyIKICAgICAgICAgICAgeG1sbnM6dGlmZj0iaHR0cDovL25zLmFkb2JlLmNvbS90aWZmLzEuMC8iPgogICAgICAgICA8ZXhpZjpVc2VyQ29tbWVudD5TY3JlZW5zaG90PC9leGlmOlVzZXJDb21tZW50PgogICAgICAgICA8ZXhpZjpQaXhlbFhEaW1lbnNpb24+Njg8L2V4aWY6UGl4ZWxYRGltZW5zaW9uPgogICAgICAgICA8ZXhpZjpQaXhlbFlEaW1lbnNpb24+NjA8L2V4aWY6UGl4ZWxZRGltZW5zaW9uPgogICAgICAgICA8dGlmZjpSZXNvbHV0aW9uVW5pdD4yPC90aWZmOlJlc29sdXRpb25Vbml0PgogICAgICAgICA8dGlmZjpYUmVzb2x1dGlvbj4xNDQvMTwvdGlmZjpYUmVzb2x1dGlvbj4KICAgICAgICAgPHRpZmY6WVJlc29sdXRpb24+MTQ0LzE8L3RpZmY6WVJlc29sdXRpb24+CiAgICAgICAgIDx0aWZmOk9yaWVudGF0aW9uPjE8L3RpZmY6T3JpZW50YXRpb24+CiAgICAgIDwvcmRmOkRlc2NyaXB0aW9uPgogICA8L3JkZjpSREY+CjwveDp4bXBtZXRhPgrInBAqAAAGNklEQVRoBe3aC0/cOhCG4UCXUuiFwv//fUjcWmjpDQqcPpa+yOtmEalO2aTakUZOso4z83o8ngS27u/vH7qN9AS2+6PNQSGwAdIEwqI5f/T04eGh+7XEit7d3ZW+W1tbXfTRm9f4I7uJlq3b29u9tmaNAvLz58/u69evvRpssVh0Ozs7pW0Hn8I5CCYvyta9vb1eWxtHA7m+vu4+fPhQFO1Xr151u7u7pW0Hn8K5iL69vS16c3PT7e/vdwcHByVC2M6HWv4IyPn5eXd8fFwGff36dRetB57Kscj48eNH9/3799K+ffu2QAADmFZGAUn4Ie4hL168KNFhFlrS7YPWeQ4Km0ERzZY+m4dkFBDJKGvwzZs3JW+g/O7du0HaQw987mtAyHNsN6GA8MFkDskoIKLAYMINkJcvXxYQoLx//35o/LVfE8nsTnSzOYCGjBsFpI0QYEQHGIeHh0Pjr/0aICTLJhHClyFZWEs6p0WSaHOcG799+9bZZT5//lxa4Zjc0a5JDzQb0VUhmrH/VitfeDZlE2Vz7G6fuwDDdhTlWHQISLZcrdBTl4B0dXW1NDYDklu06wKyZNQTTkqEgGH2KaIgJWrqMTgPxMXFRWnRBiOFTt1XZBgXCHu/UJ2D9BEChqUACLUcQKlFn48fPxYFRgRxNMui7us6YGqUo6Oj+qdJHy84lfwBhLXFmaEqzkzbZVLt8cx5ynf7fHTSXj9iXNllAElUAAEI5Wwt+phxu4poIZZE9PLysqPGE2FzlJURosQVCbUEHDCU1Fnb0tFHrpk1kHrZWDIiQ6JUfI0Ry+XTp0+/RdaYMdbdd7g6WbdVa3z+BkgDfwOkAbKQMyRGO4Xt07nEmGKt7i/XpGhLjaJ/xkgy1c94Sbj1GFM/XjAaCDuEROocDBVoXozihJ3Fdht13b1R5TsoxHiSMzCAzUVKhHBI3ZGtUpvj2hGAOB3lKMfdq3UPmCLENePODkgbIZyOtlDM/tnZWa/uVcjlXSZVKxAAafWZVYTUQMys8yiHapFbAEg1a/bzPVWbZZI6RnGnr35zkT6HMLiGw5EkzjhjGYACnFkHjNNR5xQAcBR2omdWQOJYDYPT0cDQghQYcdrnw2giKy0oIM4KSIyvHV91bLYJB6lznw6jq+6b0/XyPSS1hW1VBNRaO5PvIb6F+C4iAiRgyda3lFqAFlHRNh/Vfad03H8xy86SpZK2NhYQMKKiJDC89tcCgM8ENLml/n2qx0tfzDgnSkSMFpRa/A6GT4hUFIgMS0ck1CJ6jAHG2LfmepznPi4Rot7w6v7ly5el0rwFkq9hii/3WFr6cFyEOc61bL0SbrtbPbeTY5732wcis56dwXEtag2/mXGJlPN1MSaCqKXltznKEhCzLvw5rRX2tYiEwBAtRB4BTpvcIiJEzBxlCQiH1SXywdAnRLPOWUsjy0D/qHxhDEtvtkDMYtY9RzlntkWHKBkjXvqy3MbcN6W+y0liSpatyZYNkAb8BkgDpHwgkjNsn/KGHCIx2jod1yKR+o3mW4kdJupPEJJptuPsQPUYUz/uX/+TRDnHWZ8Qs7XGCdfVGXYRLWApywFVtfoNEOO5BkoLNuNNsV0CYrvlDMdVo3adWgDyzuLFTstRu0pUBGU7BgQsgGcLBABOC/u0NRCzf3p6WvTk5KQ4a2v2J88UdEAAFCCzi5CEPSeIGTWzHJIrask1UQCefsp51avWEomKNm+6QIEyF+mXDIPB4BA4HEn4xxnXs4yA1Nd/B6lq819CnE9eAWm2QAKDw1H5pJa84uvLcYDyH4ha14GiGQ80gOYi/bb7lLDmWLZd0QOIt15LQ7tKAnjV73/zOjuzxE1wdNUzR02dwQCxA0m6HgSSaJiqsFUJoa6ye7L3sQkaDQQEAwOiDQzXpygmUM3EXnAsYUDadBDb/whIIkSuMHAgZdAptWxjLzWBzv83IADINdmJOJ4ls4r4uuHUNjtOfZTIbu0bFSFgKMIk0AwITrQdfArnJkpEiAyqDFAOADMko4CIBkCQNjABBqin7FJDBjzHtSwRbaIbEH60svWr03Kx0faozkPbwJQYdGjg6rbJHLKfrSYxbWvcKCDtzf/i+XQLiDXR3gBpwG+ANED+A8I8opteDCP0AAAAAElFTkSuQmCC;movable=1;resizable=1;rotatable=1;deletable=1;editable=1;locked=0;connectable=1;container=0;" parent="jvcADhcVPLt3B4X78LWL-1" vertex="1">
          <mxGeometry x="1150.29" y="176.5" width="27" height="27" as="geometry" />
        </mxCell>
        <mxCell id="jvcADhcVPLt3B4X78LWL-53" value="&lt;span style=&quot;text-wrap: nowrap;&quot;&gt;MariaDB&lt;/span&gt;" style="html=1;whiteSpace=wrap;fontStyle=1;align=left;fontSize=12;fillColor=#FF8000;" parent="jvcADhcVPLt3B4X78LWL-1" vertex="1">
          <mxGeometry x="1069.95" y="220" width="112.67" height="40" as="geometry" />
        </mxCell>
        <mxCell id="jvcADhcVPLt3B4X78LWL-54" value="" style="shape=image;verticalLabelPosition=bottom;labelBackgroundColor=default;verticalAlign=top;aspect=fixed;imageAspect=0;image=data:image/png,iVBORw0KGgoAAAANSUhEUgAAAEQAAAA8CAYAAADfYhweAAAMP2lDQ1BJQ0MgUHJvZmlsZQAASImVVwdYU8kWnltSIbQAAlJCb4KIlABSQmihdwRRCUmAUGIMBBU7uqjg2sUCNnRVRMEKiAVF7CyKvS8WFJR1sWBX3qSArvvK9+b75s5//znznzPnztx7BwD1E1yxOBfVACBPVCCJDfZnjE1OYZC6AQmQAQUYAJzLyxezoqPDASyD7d/LuxsAkbVXHWRa/+z/r0WTL8jnAYBEQ5zOz+flQXwQALySJ5YUAECU8eZTCsQyDCvQlsAAIV4ow5kKXCnD6Qq8V24TH8uGuBUAsiqXK8kEQO0y5BmFvEyoodYHsZOILxQBoM6A2CcvbxIf4jSIbaCNGGKZPjP9B53Mv2mmD2lyuZlDWDEXeSEHCPPFudxp/2c6/nfJy5UO+rCCVTVLEhIrmzPM262cSWEyrApxryg9MgpiLYg/CPlye4hRapY0JEFhjxry8tkwZ0AXYic+NyAMYkOIg0S5keFKPj1DGMSBGK4QdKqwgBMPsR7ECwX5gXFKm82SSbFKX2h9hoTNUvLnuBK5X5mvB9KcBJZS/3WWgKPUx9SKsuKTIKZCbFEoTIyEWA1ix/ycuDClzZiiLHbkoI1EGiuL3wLiWIEo2F+hjxVmSIJilfalefmD88U2Zwk5kUq8vyArPkSRH6yVx5XHD+eCXRaIWAmDOoL8seGDc+ELAgIVc8e6BaKEOKXOB3GBf6xiLE4V50Yr7XEzQW6wjDeD2CW/ME45Fk8sgAtSoY9niAui4xVx4kXZ3NBoRTz4MhAO2CAAMIAU1nQwCWQDYXtvQy+8U/QEAS6QgEwgAA5KZnBEkrxHBK9xoAj8CZEA5A+N85f3CkAh5L8OsYqrA8iQ9xbKR+SApxDngTCQC++l8lGiIW+J4AlkhP/wzoWVB+PNhVXW/+/5QfY7w4JMuJKRDnpkqA9aEgOJAcQQYhDRFjfAfXAvPBxe/WB1xpm4x+A8vtsTnhI6CI8I1wmdhNsThcWSn6KMAJ1QP0iZi/Qfc4FbQU1X3B/3hupQGdfFDYAD7gL9sHBf6NkVsmxl3LKsMH7S/tsMfngaSjuKEwWlDKP4UWx+Hqlmp+Y6pCLL9Y/5UcSaPpRv9lDPz/7ZP2SfD9uwny2xhdgB7Cx2EjuPHcUaAANrxhqxNuyYDA+trify1TXoLVYeTw7UEf7D3+CTlWUy36nGqcfpi6KvQDBV9o4G7EniaRJhZlYBgwW/CAIGR8RzHMFwdnJ2AUD2fVG8vt7EyL8biG7bd27eHwB4Nw8MDBz5zoU2A7DPHW7/w985Gyb8dKgAcO4wTyopVHC47EKAbwl1uNP0gTEwBzZwPs7ADXgBPxAIQkEUiAfJYAKMPguucwmYAmaAuaAElIFlYDVYDzaBrWAn2AP2gwZwFJwEZ8BFcBlcB3fh6ukCL0AfeAc+IwhCQmgIHdFHTBBLxB5xRpiIDxKIhCOxSDKShmQiIkSKzEDmIWXICmQ9sgWpRvYhh5GTyHmkA7mNPER6kNfIJxRDVVFt1Ai1QkeiTJSFhqHx6Hg0E52MFqHz0SXoWrQK3Y3WoyfRi+h1tBN9gfZjAFPBdDFTzAFjYmwsCkvBMjAJNgsrxcqxKqwWa4LP+SrWifViH3EiTscZuANcwSF4As7DJ+Oz8MX4enwnXo+34lfxh3gf/o1AIxgS7AmeBA5hLCGTMIVQQignbCccIpyGe6mL8I5IJOoSrYnucC8mE7OJ04mLiRuIdcQTxA7iY2I/iUTSJ9mTvElRJC6pgFRCWkfaTWomXSF1kT6QVcgmZGdyEDmFLCIXk8vJu8jHyVfIz8ifKRoUS4onJYrCp0yjLKVsozRRLlG6KJ+pmlRrqjc1nppNnUtdS62lnqbeo75RUVExU/FQiVERqsxRWauyV+WcykOVj6paqnaqbNVUVanqEtUdqidUb6u+odFoVjQ/WgqtgLaEVk07RXtA+6BGV3NU46jx1WarVajVq11Re6lOUbdUZ6lPUC9SL1c/oH5JvVeDomGlwdbgaszSqNA4rHFTo1+TrjlKM0ozT3Ox5i7N85rdWiQtK61ALb7WfK2tWqe0HtMxujmdTefR59G30U/Tu7SJ2tbaHO1s7TLtPdrt2n06WjouOok6U3UqdI7pdOpiula6HN1c3aW6+3Vv6H4aZjSMNUwwbNGw2mFXhr3XG67npyfQK9Wr07uu90mfoR+on6O/XL9B/74BbmBnEGMwxWCjwWmD3uHaw72G84aXDt8//I4hamhnGGs43XCrYZthv5GxUbCR2Gid0SmjXmNdYz/jbONVxseNe0zoJj4mQpNVJs0mzxk6DBYjl7GW0croMzU0DTGVmm4xbTf9bGZtlmBWbFZndt+cas40zzBfZd5i3mdhYhFhMcOixuKOJcWSaZllucbyrOV7K2urJKsFVg1W3dZ61hzrIusa63s2NBtfm8k2VTbXbIm2TNsc2w22l+1QO1e7LLsKu0v2qL2bvdB+g33HCMIIjxGiEVUjbjqoOrAcCh1qHB466jqGOxY7Nji+HGkxMmXk8pFnR35zcnXKddrmdHeU1qjQUcWjmka9drZz5jlXOF8bTRsdNHr26MbRr1zsXQQuG11uudJdI1wXuLa4fnVzd5O41br1uFu4p7lXut9kajOjmYuZ5zwIHv4esz2Oenz0dPMs8Nzv+ZeXg1eO1y6v7jHWYwRjto157G3mzfXe4t3pw/BJ89ns0+lr6sv1rfJ95Gfux/fb7veMZcvKZu1mvfR38pf4H/J/z/Zkz2SfCMACggNKA9oDtQITAtcHPggyC8oMqgnqC3YNnh58IoQQEhayPOQmx4jD41Rz+kLdQ2eGtoaphsWFrQ97FG4XLglvikAjQiNWRtyLtIwURTZEgShO1Mqo+9HW0ZOjj8QQY6JjKmKexo6KnRF7No4eNzFuV9y7eP/4pfF3E2wSpAktieqJqYnVie+TApJWJHWOHTl25tiLyQbJwuTGFFJKYsr2lP5xgeNWj+tKdU0tSb0x3nr81PHnJxhMyJ1wbKL6RO7EA2mEtKS0XWlfuFHcKm5/Oie9Mr2Px+at4b3g+/FX8XsE3oIVgmcZ3hkrMrozvTNXZvZk+WaVZ/UK2cL1wlfZIdmbst/nROXsyBnITcqtyyPnpeUdFmmJckStk4wnTZ3UIbYXl4g7J3tOXj25TxIm2Z6P5I/PbyzQhj/ybVIb6S/Sh4U+hRWFH6YkTjkwVXOqaGrbNLtpi6Y9Kwoq+m06Pp03vWWG6Yy5Mx7OZM3cMguZlT6rZbb57Pmzu+YEz9k5lzo3Z+7vxU7FK4rfzkua1zTfaP6c+Y9/Cf6lpkStRFJyc4HXgk0L8YXChe2LRi9at+hbKb/0QplTWXnZl8W8xRd+HfXr2l8HlmQsaV/qtnTjMuIy0bIby32X71yhuaJoxeOVESvrVzFWla56u3ri6vPlLuWb1lDXSNd0rg1f27jOYt2ydV/WZ62/XuFfUVdpWLmo8v0G/oYrG/021m4y2lS26dNm4eZbW4K31FdZVZVvJW4t3Pp0W+K2s78xf6vebrC9bPvXHaIdnTtjd7ZWu1dX7zLctbQGrZHW9OxO3X15T8CexlqH2i11unVle8Fe6d7n+9L23dgftr/lAPNA7UHLg5WH6IdK65H6afV9DVkNnY3JjR2HQw+3NHk1HTrieGTHUdOjFcd0ji09Tj0+//hAc1Fz/wnxid6TmScft0xsuXtq7KlrrTGt7afDTp87E3Tm1FnW2eZz3ueOnvc8f/gC80LDRbeL9W2ubYd+d/39ULtbe/0l90uNlz0uN3WM6Th+xffKyasBV89c41y7eD3yeseNhBu3bqbe7LzFv9V9O/f2qzuFdz7fnXOPcK/0vsb98geGD6r+sP2jrtOt89jDgIdtj+Ie3X3Me/ziSf6TL13zn9Kelj8zeVbd7dx9tCeo5/Lzcc+7XohffO4t+VPzz8qXNi8P/uX3V1vf2L6uV5JXA68Xv9F/s+Oty9uW/uj+B+/y3n1+X/pB/8POj8yPZz8lfXr2ecoX0pe1X22/Nn0L+3ZvIG9gQMyVcOW/AhisaEYGAK93AEBLBoAOz2fUcYrzn7wgijOrHIH/hBVnRHlxA6AW/r/H9MK/m5sA7N0Gj19QXz0VgGgaAPEeAB09eqgOntXk50pZIcJzwOb4r+l56eDfFMWZ84e4f26BTNUF/Nz+C9nzfEbVa0KNAAAAlmVYSWZNTQAqAAAACAAFARIAAwAAAAEAAQAAARoABQAAAAEAAABKARsABQAAAAEAAABSASgAAwAAAAEAAgAAh2kABAAAAAEAAABaAAAAAAAAAJAAAAABAAAAkAAAAAEAA5KGAAcAAAASAAAAhKACAAQAAAABAAAARKADAAQAAAABAAAAPAAAAABBU0NJSQAAAFNjcmVlbnNob3QEKSxcAAAACXBIWXMAABYlAAAWJQFJUiTwAAAC2WlUWHRYTUw6Y29tLmFkb2JlLnhtcAAAAAAAPHg6eG1wbWV0YSB4bWxuczp4PSJhZG9iZTpuczptZXRhLyIgeDp4bXB0az0iWE1QIENvcmUgNi4wLjAiPgogICA8cmRmOlJERiB4bWxuczpyZGY9Imh0dHA6Ly93d3cudzMub3JnLzE5OTkvMDIvMjItcmRmLXN5bnRheC1ucyMiPgogICAgICA8cmRmOkRlc2NyaXB0aW9uIHJkZjphYm91dD0iIgogICAgICAgICAgICB4bWxuczpleGlmPSJodHRwOi8vbnMuYWRvYmUuY29tL2V4aWYvMS4wLyIKICAgICAgICAgICAgeG1sbnM6dGlmZj0iaHR0cDovL25zLmFkb2JlLmNvbS90aWZmLzEuMC8iPgogICAgICAgICA8ZXhpZjpVc2VyQ29tbWVudD5TY3JlZW5zaG90PC9leGlmOlVzZXJDb21tZW50PgogICAgICAgICA8ZXhpZjpQaXhlbFhEaW1lbnNpb24+Njg8L2V4aWY6UGl4ZWxYRGltZW5zaW9uPgogICAgICAgICA8ZXhpZjpQaXhlbFlEaW1lbnNpb24+NjA8L2V4aWY6UGl4ZWxZRGltZW5zaW9uPgogICAgICAgICA8dGlmZjpSZXNvbHV0aW9uVW5pdD4yPC90aWZmOlJlc29sdXRpb25Vbml0PgogICAgICAgICA8dGlmZjpYUmVzb2x1dGlvbj4xNDQvMTwvdGlmZjpYUmVzb2x1dGlvbj4KICAgICAgICAgPHRpZmY6WVJlc29sdXRpb24+MTQ0LzE8L3RpZmY6WVJlc29sdXRpb24+CiAgICAgICAgIDx0aWZmOk9yaWVudGF0aW9uPjE8L3RpZmY6T3JpZW50YXRpb24+CiAgICAgIDwvcmRmOkRlc2NyaXB0aW9uPgogICA8L3JkZjpSREY+CjwveDp4bXBtZXRhPgrInBAqAAAGNklEQVRoBe3aC0/cOhCG4UCXUuiFwv//fUjcWmjpDQqcPpa+yOtmEalO2aTakUZOso4z83o8ngS27u/vH7qN9AS2+6PNQSGwAdIEwqI5f/T04eGh+7XEit7d3ZW+W1tbXfTRm9f4I7uJlq3b29u9tmaNAvLz58/u69evvRpssVh0Ozs7pW0Hn8I5CCYvyta9vb1eWxtHA7m+vu4+fPhQFO1Xr151u7u7pW0Hn8K5iL69vS16c3PT7e/vdwcHByVC2M6HWv4IyPn5eXd8fFwGff36dRetB57Kscj48eNH9/3799K+ffu2QAADmFZGAUn4Ie4hL168KNFhFlrS7YPWeQ4Km0ERzZY+m4dkFBDJKGvwzZs3JW+g/O7du0HaQw987mtAyHNsN6GA8MFkDskoIKLAYMINkJcvXxYQoLx//35o/LVfE8nsTnSzOYCGjBsFpI0QYEQHGIeHh0Pjr/0aICTLJhHClyFZWEs6p0WSaHOcG799+9bZZT5//lxa4Zjc0a5JDzQb0VUhmrH/VitfeDZlE2Vz7G6fuwDDdhTlWHQISLZcrdBTl4B0dXW1NDYDklu06wKyZNQTTkqEgGH2KaIgJWrqMTgPxMXFRWnRBiOFTt1XZBgXCHu/UJ2D9BEChqUACLUcQKlFn48fPxYFRgRxNMui7us6YGqUo6Oj+qdJHy84lfwBhLXFmaEqzkzbZVLt8cx5ynf7fHTSXj9iXNllAElUAAEI5Wwt+phxu4poIZZE9PLysqPGE2FzlJURosQVCbUEHDCU1Fnb0tFHrpk1kHrZWDIiQ6JUfI0Ry+XTp0+/RdaYMdbdd7g6WbdVa3z+BkgDfwOkAbKQMyRGO4Xt07nEmGKt7i/XpGhLjaJ/xkgy1c94Sbj1GFM/XjAaCDuEROocDBVoXozihJ3Fdht13b1R5TsoxHiSMzCAzUVKhHBI3ZGtUpvj2hGAOB3lKMfdq3UPmCLENePODkgbIZyOtlDM/tnZWa/uVcjlXSZVKxAAafWZVYTUQMys8yiHapFbAEg1a/bzPVWbZZI6RnGnr35zkT6HMLiGw5EkzjhjGYACnFkHjNNR5xQAcBR2omdWQOJYDYPT0cDQghQYcdrnw2giKy0oIM4KSIyvHV91bLYJB6lznw6jq+6b0/XyPSS1hW1VBNRaO5PvIb6F+C4iAiRgyda3lFqAFlHRNh/Vfad03H8xy86SpZK2NhYQMKKiJDC89tcCgM8ENLml/n2qx0tfzDgnSkSMFpRa/A6GT4hUFIgMS0ck1CJ6jAHG2LfmepznPi4Rot7w6v7ly5el0rwFkq9hii/3WFr6cFyEOc61bL0SbrtbPbeTY5732wcis56dwXEtag2/mXGJlPN1MSaCqKXltznKEhCzLvw5rRX2tYiEwBAtRB4BTpvcIiJEzBxlCQiH1SXywdAnRLPOWUsjy0D/qHxhDEtvtkDMYtY9RzlntkWHKBkjXvqy3MbcN6W+y0liSpatyZYNkAb8BkgDpHwgkjNsn/KGHCIx2jod1yKR+o3mW4kdJupPEJJptuPsQPUYUz/uX/+TRDnHWZ8Qs7XGCdfVGXYRLWApywFVtfoNEOO5BkoLNuNNsV0CYrvlDMdVo3adWgDyzuLFTstRu0pUBGU7BgQsgGcLBABOC/u0NRCzf3p6WvTk5KQ4a2v2J88UdEAAFCCzi5CEPSeIGTWzHJIrask1UQCefsp51avWEomKNm+6QIEyF+mXDIPB4BA4HEn4xxnXs4yA1Nd/B6lq819CnE9eAWm2QAKDw1H5pJa84uvLcYDyH4ha14GiGQ80gOYi/bb7lLDmWLZd0QOIt15LQ7tKAnjV73/zOjuzxE1wdNUzR02dwQCxA0m6HgSSaJiqsFUJoa6ye7L3sQkaDQQEAwOiDQzXpygmUM3EXnAsYUDadBDb/whIIkSuMHAgZdAptWxjLzWBzv83IADINdmJOJ4ls4r4uuHUNjtOfZTIbu0bFSFgKMIk0AwITrQdfArnJkpEiAyqDFAOADMko4CIBkCQNjABBqin7FJDBjzHtSwRbaIbEH60svWr03Kx0faozkPbwJQYdGjg6rbJHLKfrSYxbWvcKCDtzf/i+XQLiDXR3gBpwG+ANED+A8I8opteDCP0AAAAAElFTkSuQmCC;movable=1;resizable=1;rotatable=1;deletable=1;editable=1;locked=0;connectable=1;container=0;" parent="jvcADhcVPLt3B4X78LWL-1" vertex="1">
          <mxGeometry x="1150.29" y="226.5" width="27" height="27" as="geometry" />
        </mxCell>
        <mxCell id="24B6y2jBF2ZlIk-FCo1w-1" value="&lt;span style=&quot;text-wrap: nowrap;&quot;&gt;Postfix&lt;/span&gt;" style="html=1;whiteSpace=wrap;fontStyle=1;align=left;fontSize=12;" parent="jvcADhcVPLt3B4X78LWL-1" vertex="1">
          <mxGeometry x="1069.95" y="270" width="112.67" height="40" as="geometry" />
        </mxCell>
        <mxCell id="24B6y2jBF2ZlIk-FCo1w-2" value="" style="shape=image;verticalLabelPosition=bottom;labelBackgroundColor=default;verticalAlign=top;aspect=fixed;imageAspect=0;image=data:image/png,iVBORw0KGgoAAAANSUhEUgAAAEQAAAA8CAYAAADfYhweAAAMP2lDQ1BJQ0MgUHJvZmlsZQAASImVVwdYU8kWnltSIbQAAlJCb4KIlABSQmihdwRRCUmAUGIMBBU7uqjg2sUCNnRVRMEKiAVF7CyKvS8WFJR1sWBX3qSArvvK9+b75s5//znznzPnztx7BwD1E1yxOBfVACBPVCCJDfZnjE1OYZC6AQmQAQUYAJzLyxezoqPDASyD7d/LuxsAkbVXHWRa/+z/r0WTL8jnAYBEQ5zOz+flQXwQALySJ5YUAECU8eZTCsQyDCvQlsAAIV4ow5kKXCnD6Qq8V24TH8uGuBUAsiqXK8kEQO0y5BmFvEyoodYHsZOILxQBoM6A2CcvbxIf4jSIbaCNGGKZPjP9B53Mv2mmD2lyuZlDWDEXeSEHCPPFudxp/2c6/nfJy5UO+rCCVTVLEhIrmzPM262cSWEyrApxryg9MgpiLYg/CPlye4hRapY0JEFhjxry8tkwZ0AXYic+NyAMYkOIg0S5keFKPj1DGMSBGK4QdKqwgBMPsR7ECwX5gXFKm82SSbFKX2h9hoTNUvLnuBK5X5mvB9KcBJZS/3WWgKPUx9SKsuKTIKZCbFEoTIyEWA1ix/ycuDClzZiiLHbkoI1EGiuL3wLiWIEo2F+hjxVmSIJilfalefmD88U2Zwk5kUq8vyArPkSRH6yVx5XHD+eCXRaIWAmDOoL8seGDc+ELAgIVc8e6BaKEOKXOB3GBf6xiLE4V50Yr7XEzQW6wjDeD2CW/ME45Fk8sgAtSoY9niAui4xVx4kXZ3NBoRTz4MhAO2CAAMIAU1nQwCWQDYXtvQy+8U/QEAS6QgEwgAA5KZnBEkrxHBK9xoAj8CZEA5A+N85f3CkAh5L8OsYqrA8iQ9xbKR+SApxDngTCQC++l8lGiIW+J4AlkhP/wzoWVB+PNhVXW/+/5QfY7w4JMuJKRDnpkqA9aEgOJAcQQYhDRFjfAfXAvPBxe/WB1xpm4x+A8vtsTnhI6CI8I1wmdhNsThcWSn6KMAJ1QP0iZi/Qfc4FbQU1X3B/3hupQGdfFDYAD7gL9sHBf6NkVsmxl3LKsMH7S/tsMfngaSjuKEwWlDKP4UWx+Hqlmp+Y6pCLL9Y/5UcSaPpRv9lDPz/7ZP2SfD9uwny2xhdgB7Cx2EjuPHcUaAANrxhqxNuyYDA+trify1TXoLVYeTw7UEf7D3+CTlWUy36nGqcfpi6KvQDBV9o4G7EniaRJhZlYBgwW/CAIGR8RzHMFwdnJ2AUD2fVG8vt7EyL8biG7bd27eHwB4Nw8MDBz5zoU2A7DPHW7/w985Gyb8dKgAcO4wTyopVHC47EKAbwl1uNP0gTEwBzZwPs7ADXgBPxAIQkEUiAfJYAKMPguucwmYAmaAuaAElIFlYDVYDzaBrWAn2AP2gwZwFJwEZ8BFcBlcB3fh6ukCL0AfeAc+IwhCQmgIHdFHTBBLxB5xRpiIDxKIhCOxSDKShmQiIkSKzEDmIWXICmQ9sgWpRvYhh5GTyHmkA7mNPER6kNfIJxRDVVFt1Ai1QkeiTJSFhqHx6Hg0E52MFqHz0SXoWrQK3Y3WoyfRi+h1tBN9gfZjAFPBdDFTzAFjYmwsCkvBMjAJNgsrxcqxKqwWa4LP+SrWifViH3EiTscZuANcwSF4As7DJ+Oz8MX4enwnXo+34lfxh3gf/o1AIxgS7AmeBA5hLCGTMIVQQignbCccIpyGe6mL8I5IJOoSrYnucC8mE7OJ04mLiRuIdcQTxA7iY2I/iUTSJ9mTvElRJC6pgFRCWkfaTWomXSF1kT6QVcgmZGdyEDmFLCIXk8vJu8jHyVfIz8ifKRoUS4onJYrCp0yjLKVsozRRLlG6KJ+pmlRrqjc1nppNnUtdS62lnqbeo75RUVExU/FQiVERqsxRWauyV+WcykOVj6paqnaqbNVUVanqEtUdqidUb6u+odFoVjQ/WgqtgLaEVk07RXtA+6BGV3NU46jx1WarVajVq11Re6lOUbdUZ6lPUC9SL1c/oH5JvVeDomGlwdbgaszSqNA4rHFTo1+TrjlKM0ozT3Ox5i7N85rdWiQtK61ALb7WfK2tWqe0HtMxujmdTefR59G30U/Tu7SJ2tbaHO1s7TLtPdrt2n06WjouOok6U3UqdI7pdOpiula6HN1c3aW6+3Vv6H4aZjSMNUwwbNGw2mFXhr3XG67npyfQK9Wr07uu90mfoR+on6O/XL9B/74BbmBnEGMwxWCjwWmD3uHaw72G84aXDt8//I4hamhnGGs43XCrYZthv5GxUbCR2Gid0SmjXmNdYz/jbONVxseNe0zoJj4mQpNVJs0mzxk6DBYjl7GW0croMzU0DTGVmm4xbTf9bGZtlmBWbFZndt+cas40zzBfZd5i3mdhYhFhMcOixuKOJcWSaZllucbyrOV7K2urJKsFVg1W3dZ61hzrIusa63s2NBtfm8k2VTbXbIm2TNsc2w22l+1QO1e7LLsKu0v2qL2bvdB+g33HCMIIjxGiEVUjbjqoOrAcCh1qHB466jqGOxY7Nji+HGkxMmXk8pFnR35zcnXKddrmdHeU1qjQUcWjmka9drZz5jlXOF8bTRsdNHr26MbRr1zsXQQuG11uudJdI1wXuLa4fnVzd5O41br1uFu4p7lXut9kajOjmYuZ5zwIHv4esz2Oenz0dPMs8Nzv+ZeXg1eO1y6v7jHWYwRjto157G3mzfXe4t3pw/BJ89ns0+lr6sv1rfJ95Gfux/fb7veMZcvKZu1mvfR38pf4H/J/z/Zkz2SfCMACggNKA9oDtQITAtcHPggyC8oMqgnqC3YNnh58IoQQEhayPOQmx4jD41Rz+kLdQ2eGtoaphsWFrQ97FG4XLglvikAjQiNWRtyLtIwURTZEgShO1Mqo+9HW0ZOjj8QQY6JjKmKexo6KnRF7No4eNzFuV9y7eP/4pfF3E2wSpAktieqJqYnVie+TApJWJHWOHTl25tiLyQbJwuTGFFJKYsr2lP5xgeNWj+tKdU0tSb0x3nr81PHnJxhMyJ1wbKL6RO7EA2mEtKS0XWlfuFHcKm5/Oie9Mr2Px+at4b3g+/FX8XsE3oIVgmcZ3hkrMrozvTNXZvZk+WaVZ/UK2cL1wlfZIdmbst/nROXsyBnITcqtyyPnpeUdFmmJckStk4wnTZ3UIbYXl4g7J3tOXj25TxIm2Z6P5I/PbyzQhj/ybVIb6S/Sh4U+hRWFH6YkTjkwVXOqaGrbNLtpi6Y9Kwoq+m06Pp03vWWG6Yy5Mx7OZM3cMguZlT6rZbb57Pmzu+YEz9k5lzo3Z+7vxU7FK4rfzkua1zTfaP6c+Y9/Cf6lpkStRFJyc4HXgk0L8YXChe2LRi9at+hbKb/0QplTWXnZl8W8xRd+HfXr2l8HlmQsaV/qtnTjMuIy0bIby32X71yhuaJoxeOVESvrVzFWla56u3ri6vPlLuWb1lDXSNd0rg1f27jOYt2ydV/WZ62/XuFfUVdpWLmo8v0G/oYrG/021m4y2lS26dNm4eZbW4K31FdZVZVvJW4t3Pp0W+K2s78xf6vebrC9bPvXHaIdnTtjd7ZWu1dX7zLctbQGrZHW9OxO3X15T8CexlqH2i11unVle8Fe6d7n+9L23dgftr/lAPNA7UHLg5WH6IdK65H6afV9DVkNnY3JjR2HQw+3NHk1HTrieGTHUdOjFcd0ji09Tj0+//hAc1Fz/wnxid6TmScft0xsuXtq7KlrrTGt7afDTp87E3Tm1FnW2eZz3ueOnvc8f/gC80LDRbeL9W2ubYd+d/39ULtbe/0l90uNlz0uN3WM6Th+xffKyasBV89c41y7eD3yeseNhBu3bqbe7LzFv9V9O/f2qzuFdz7fnXOPcK/0vsb98geGD6r+sP2jrtOt89jDgIdtj+Ie3X3Me/ziSf6TL13zn9Kelj8zeVbd7dx9tCeo5/Lzcc+7XohffO4t+VPzz8qXNi8P/uX3V1vf2L6uV5JXA68Xv9F/s+Oty9uW/uj+B+/y3n1+X/pB/8POj8yPZz8lfXr2ecoX0pe1X22/Nn0L+3ZvIG9gQMyVcOW/AhisaEYGAK93AEBLBoAOz2fUcYrzn7wgijOrHIH/hBVnRHlxA6AW/r/H9MK/m5sA7N0Gj19QXz0VgGgaAPEeAB09eqgOntXk50pZIcJzwOb4r+l56eDfFMWZ84e4f26BTNUF/Nz+C9nzfEbVa0KNAAAAlmVYSWZNTQAqAAAACAAFARIAAwAAAAEAAQAAARoABQAAAAEAAABKARsABQAAAAEAAABSASgAAwAAAAEAAgAAh2kABAAAAAEAAABaAAAAAAAAAJAAAAABAAAAkAAAAAEAA5KGAAcAAAASAAAAhKACAAQAAAABAAAARKADAAQAAAABAAAAPAAAAABBU0NJSQAAAFNjcmVlbnNob3QEKSxcAAAACXBIWXMAABYlAAAWJQFJUiTwAAAC2WlUWHRYTUw6Y29tLmFkb2JlLnhtcAAAAAAAPHg6eG1wbWV0YSB4bWxuczp4PSJhZG9iZTpuczptZXRhLyIgeDp4bXB0az0iWE1QIENvcmUgNi4wLjAiPgogICA8cmRmOlJERiB4bWxuczpyZGY9Imh0dHA6Ly93d3cudzMub3JnLzE5OTkvMDIvMjItcmRmLXN5bnRheC1ucyMiPgogICAgICA8cmRmOkRlc2NyaXB0aW9uIHJkZjphYm91dD0iIgogICAgICAgICAgICB4bWxuczpleGlmPSJodHRwOi8vbnMuYWRvYmUuY29tL2V4aWYvMS4wLyIKICAgICAgICAgICAgeG1sbnM6dGlmZj0iaHR0cDovL25zLmFkb2JlLmNvbS90aWZmLzEuMC8iPgogICAgICAgICA8ZXhpZjpVc2VyQ29tbWVudD5TY3JlZW5zaG90PC9leGlmOlVzZXJDb21tZW50PgogICAgICAgICA8ZXhpZjpQaXhlbFhEaW1lbnNpb24+Njg8L2V4aWY6UGl4ZWxYRGltZW5zaW9uPgogICAgICAgICA8ZXhpZjpQaXhlbFlEaW1lbnNpb24+NjA8L2V4aWY6UGl4ZWxZRGltZW5zaW9uPgogICAgICAgICA8dGlmZjpSZXNvbHV0aW9uVW5pdD4yPC90aWZmOlJlc29sdXRpb25Vbml0PgogICAgICAgICA8dGlmZjpYUmVzb2x1dGlvbj4xNDQvMTwvdGlmZjpYUmVzb2x1dGlvbj4KICAgICAgICAgPHRpZmY6WVJlc29sdXRpb24+MTQ0LzE8L3RpZmY6WVJlc29sdXRpb24+CiAgICAgICAgIDx0aWZmOk9yaWVudGF0aW9uPjE8L3RpZmY6T3JpZW50YXRpb24+CiAgICAgIDwvcmRmOkRlc2NyaXB0aW9uPgogICA8L3JkZjpSREY+CjwveDp4bXBtZXRhPgrInBAqAAAGNklEQVRoBe3aC0/cOhCG4UCXUuiFwv//fUjcWmjpDQqcPpa+yOtmEalO2aTakUZOso4z83o8ngS27u/vH7qN9AS2+6PNQSGwAdIEwqI5f/T04eGh+7XEit7d3ZW+W1tbXfTRm9f4I7uJlq3b29u9tmaNAvLz58/u69evvRpssVh0Ozs7pW0Hn8I5CCYvyta9vb1eWxtHA7m+vu4+fPhQFO1Xr151u7u7pW0Hn8K5iL69vS16c3PT7e/vdwcHByVC2M6HWv4IyPn5eXd8fFwGff36dRetB57Kscj48eNH9/3799K+ffu2QAADmFZGAUn4Ie4hL168KNFhFlrS7YPWeQ4Km0ERzZY+m4dkFBDJKGvwzZs3JW+g/O7du0HaQw987mtAyHNsN6GA8MFkDskoIKLAYMINkJcvXxYQoLx//35o/LVfE8nsTnSzOYCGjBsFpI0QYEQHGIeHh0Pjr/0aICTLJhHClyFZWEs6p0WSaHOcG799+9bZZT5//lxa4Zjc0a5JDzQb0VUhmrH/VitfeDZlE2Vz7G6fuwDDdhTlWHQISLZcrdBTl4B0dXW1NDYDklu06wKyZNQTTkqEgGH2KaIgJWrqMTgPxMXFRWnRBiOFTt1XZBgXCHu/UJ2D9BEChqUACLUcQKlFn48fPxYFRgRxNMui7us6YGqUo6Oj+qdJHy84lfwBhLXFmaEqzkzbZVLt8cx5ynf7fHTSXj9iXNllAElUAAEI5Wwt+phxu4poIZZE9PLysqPGE2FzlJURosQVCbUEHDCU1Fnb0tFHrpk1kHrZWDIiQ6JUfI0Ry+XTp0+/RdaYMdbdd7g6WbdVa3z+BkgDfwOkAbKQMyRGO4Xt07nEmGKt7i/XpGhLjaJ/xkgy1c94Sbj1GFM/XjAaCDuEROocDBVoXozihJ3Fdht13b1R5TsoxHiSMzCAzUVKhHBI3ZGtUpvj2hGAOB3lKMfdq3UPmCLENePODkgbIZyOtlDM/tnZWa/uVcjlXSZVKxAAafWZVYTUQMys8yiHapFbAEg1a/bzPVWbZZI6RnGnr35zkT6HMLiGw5EkzjhjGYACnFkHjNNR5xQAcBR2omdWQOJYDYPT0cDQghQYcdrnw2giKy0oIM4KSIyvHV91bLYJB6lznw6jq+6b0/XyPSS1hW1VBNRaO5PvIb6F+C4iAiRgyda3lFqAFlHRNh/Vfad03H8xy86SpZK2NhYQMKKiJDC89tcCgM8ENLml/n2qx0tfzDgnSkSMFpRa/A6GT4hUFIgMS0ck1CJ6jAHG2LfmepznPi4Rot7w6v7ly5el0rwFkq9hii/3WFr6cFyEOc61bL0SbrtbPbeTY5732wcis56dwXEtag2/mXGJlPN1MSaCqKXltznKEhCzLvw5rRX2tYiEwBAtRB4BTpvcIiJEzBxlCQiH1SXywdAnRLPOWUsjy0D/qHxhDEtvtkDMYtY9RzlntkWHKBkjXvqy3MbcN6W+y0liSpatyZYNkAb8BkgDpHwgkjNsn/KGHCIx2jod1yKR+o3mW4kdJupPEJJptuPsQPUYUz/uX/+TRDnHWZ8Qs7XGCdfVGXYRLWApywFVtfoNEOO5BkoLNuNNsV0CYrvlDMdVo3adWgDyzuLFTstRu0pUBGU7BgQsgGcLBABOC/u0NRCzf3p6WvTk5KQ4a2v2J88UdEAAFCCzi5CEPSeIGTWzHJIrask1UQCefsp51avWEomKNm+6QIEyF+mXDIPB4BA4HEn4xxnXs4yA1Nd/B6lq819CnE9eAWm2QAKDw1H5pJa84uvLcYDyH4ha14GiGQ80gOYi/bb7lLDmWLZd0QOIt15LQ7tKAnjV73/zOjuzxE1wdNUzR02dwQCxA0m6HgSSaJiqsFUJoa6ye7L3sQkaDQQEAwOiDQzXpygmUM3EXnAsYUDadBDb/whIIkSuMHAgZdAptWxjLzWBzv83IADINdmJOJ4ls4r4uuHUNjtOfZTIbu0bFSFgKMIk0AwITrQdfArnJkpEiAyqDFAOADMko4CIBkCQNjABBqin7FJDBjzHtSwRbaIbEH60svWr03Kx0faozkPbwJQYdGjg6rbJHLKfrSYxbWvcKCDtzf/i+XQLiDXR3gBpwG+ANED+A8I8opteDCP0AAAAAElFTkSuQmCC;movable=1;resizable=1;rotatable=1;deletable=1;editable=1;locked=0;connectable=1;container=0;" parent="jvcADhcVPLt3B4X78LWL-1" vertex="1">
          <mxGeometry x="1150.29" y="276.5" width="27" height="27" as="geometry" />
        </mxCell>
        <mxCell id="07bfvZG-6_nP_2OwuIHk-3" value="Arduino UNO&amp;nbsp;" style="html=1;whiteSpace=wrap;fontStyle=1;align=left;fillColor=#FF8000;" parent="jvcADhcVPLt3B4X78LWL-1" vertex="1">
          <mxGeometry x="270" y="174.5" width="170" height="52.5" as="geometry" />
        </mxCell>
        <mxCell id="07bfvZG-6_nP_2OwuIHk-6" value="&lt;span style=&quot;font-size: 15px;&quot;&gt;&lt;b&gt;PC Client Collaborateur&lt;/b&gt;&lt;/span&gt;" style="verticalAlign=top;align=center;spacingTop=8;spacingLeft=2;spacingRight=12;shape=cube;size=10;direction=south;fontStyle=4;html=1;whiteSpace=wrap;fillColor=#d5e8d4;strokeColor=#82b366;" parent="jvcADhcVPLt3B4X78LWL-1" vertex="1">
          <mxGeometry x="1169.99" y="632.5" width="240" height="100" as="geometry" />
        </mxCell>
        <mxCell id="stSaYYKcVWD6naMzTqCq-23" style="edgeStyle=orthogonalEdgeStyle;rounded=0;orthogonalLoop=1;jettySize=auto;html=1;exitX=1;exitY=0.5;exitDx=0;exitDy=0;entryX=1;entryY=0.75;entryDx=0;entryDy=0;jumpStyle=arc;jumpSize=14;" parent="jvcADhcVPLt3B4X78LWL-1" source="07bfvZG-6_nP_2OwuIHk-7" target="24B6y2jBF2ZlIk-FCo1w-1" edge="1">
          <mxGeometry relative="1" as="geometry">
            <Array as="points">
              <mxPoint x="1390" y="697" />
              <mxPoint x="1390" y="300" />
            </Array>
          </mxGeometry>
        </mxCell>
        <mxCell id="07bfvZG-6_nP_2OwuIHk-7" value="Outlook" style="html=1;whiteSpace=wrap;fontStyle=1;align=left;fillColor=#33FF33;" parent="jvcADhcVPLt3B4X78LWL-1" vertex="1">
          <mxGeometry x="1224.33" y="676.5" width="112.67" height="40" as="geometry" />
        </mxCell>
        <mxCell id="stSaYYKcVWD6naMzTqCq-25" style="edgeStyle=orthogonalEdgeStyle;rounded=0;orthogonalLoop=1;jettySize=auto;html=1;exitX=1;exitY=0.5;exitDx=0;exitDy=0;entryX=1;entryY=0.75;entryDx=0;entryDy=0;jumpStyle=arc;jumpSize=14;" parent="jvcADhcVPLt3B4X78LWL-1" source="07bfvZG-6_nP_2OwuIHk-11" target="24B6y2jBF2ZlIk-FCo1w-1" edge="1">
          <mxGeometry relative="1" as="geometry">
            <Array as="points">
              <mxPoint x="1390" y="619" />
              <mxPoint x="1390" y="300" />
            </Array>
          </mxGeometry>
        </mxCell>
        <mxCell id="07bfvZG-6_nP_2OwuIHk-11" value="Outlook" style="html=1;whiteSpace=wrap;fontStyle=1;align=left;fillColor=#33FF33;" parent="jvcADhcVPLt3B4X78LWL-1" vertex="1">
          <mxGeometry x="908.67" y="599" width="112.67" height="40" as="geometry" />
        </mxCell>
        <mxCell id="07bfvZG-6_nP_2OwuIHk-12" value="" style="shape=image;verticalLabelPosition=bottom;labelBackgroundColor=default;verticalAlign=top;aspect=fixed;imageAspect=0;image=data:image/png,iVBORw0KGgoAAAANSUhEUgAAAEQAAAA8CAYAAADfYhweAAAMP2lDQ1BJQ0MgUHJvZmlsZQAASImVVwdYU8kWnltSIbQAAlJCb4KIlABSQmihdwRRCUmAUGIMBBU7uqjg2sUCNnRVRMEKiAVF7CyKvS8WFJR1sWBX3qSArvvK9+b75s5//znznzPnztx7BwD1E1yxOBfVACBPVCCJDfZnjE1OYZC6AQmQAQUYAJzLyxezoqPDASyD7d/LuxsAkbVXHWRa/+z/r0WTL8jnAYBEQ5zOz+flQXwQALySJ5YUAECU8eZTCsQyDCvQlsAAIV4ow5kKXCnD6Qq8V24TH8uGuBUAsiqXK8kEQO0y5BmFvEyoodYHsZOILxQBoM6A2CcvbxIf4jSIbaCNGGKZPjP9B53Mv2mmD2lyuZlDWDEXeSEHCPPFudxp/2c6/nfJy5UO+rCCVTVLEhIrmzPM262cSWEyrApxryg9MgpiLYg/CPlye4hRapY0JEFhjxry8tkwZ0AXYic+NyAMYkOIg0S5keFKPj1DGMSBGK4QdKqwgBMPsR7ECwX5gXFKm82SSbFKX2h9hoTNUvLnuBK5X5mvB9KcBJZS/3WWgKPUx9SKsuKTIKZCbFEoTIyEWA1ix/ycuDClzZiiLHbkoI1EGiuL3wLiWIEo2F+hjxVmSIJilfalefmD88U2Zwk5kUq8vyArPkSRH6yVx5XHD+eCXRaIWAmDOoL8seGDc+ELAgIVc8e6BaKEOKXOB3GBf6xiLE4V50Yr7XEzQW6wjDeD2CW/ME45Fk8sgAtSoY9niAui4xVx4kXZ3NBoRTz4MhAO2CAAMIAU1nQwCWQDYXtvQy+8U/QEAS6QgEwgAA5KZnBEkrxHBK9xoAj8CZEA5A+N85f3CkAh5L8OsYqrA8iQ9xbKR+SApxDngTCQC++l8lGiIW+J4AlkhP/wzoWVB+PNhVXW/+/5QfY7w4JMuJKRDnpkqA9aEgOJAcQQYhDRFjfAfXAvPBxe/WB1xpm4x+A8vtsTnhI6CI8I1wmdhNsThcWSn6KMAJ1QP0iZi/Qfc4FbQU1X3B/3hupQGdfFDYAD7gL9sHBf6NkVsmxl3LKsMH7S/tsMfngaSjuKEwWlDKP4UWx+Hqlmp+Y6pCLL9Y/5UcSaPpRv9lDPz/7ZP2SfD9uwny2xhdgB7Cx2EjuPHcUaAANrxhqxNuyYDA+trify1TXoLVYeTw7UEf7D3+CTlWUy36nGqcfpi6KvQDBV9o4G7EniaRJhZlYBgwW/CAIGR8RzHMFwdnJ2AUD2fVG8vt7EyL8biG7bd27eHwB4Nw8MDBz5zoU2A7DPHW7/w985Gyb8dKgAcO4wTyopVHC47EKAbwl1uNP0gTEwBzZwPs7ADXgBPxAIQkEUiAfJYAKMPguucwmYAmaAuaAElIFlYDVYDzaBrWAn2AP2gwZwFJwEZ8BFcBlcB3fh6ukCL0AfeAc+IwhCQmgIHdFHTBBLxB5xRpiIDxKIhCOxSDKShmQiIkSKzEDmIWXICmQ9sgWpRvYhh5GTyHmkA7mNPER6kNfIJxRDVVFt1Ai1QkeiTJSFhqHx6Hg0E52MFqHz0SXoWrQK3Y3WoyfRi+h1tBN9gfZjAFPBdDFTzAFjYmwsCkvBMjAJNgsrxcqxKqwWa4LP+SrWifViH3EiTscZuANcwSF4As7DJ+Oz8MX4enwnXo+34lfxh3gf/o1AIxgS7AmeBA5hLCGTMIVQQignbCccIpyGe6mL8I5IJOoSrYnucC8mE7OJ04mLiRuIdcQTxA7iY2I/iUTSJ9mTvElRJC6pgFRCWkfaTWomXSF1kT6QVcgmZGdyEDmFLCIXk8vJu8jHyVfIz8ifKRoUS4onJYrCp0yjLKVsozRRLlG6KJ+pmlRrqjc1nppNnUtdS62lnqbeo75RUVExU/FQiVERqsxRWauyV+WcykOVj6paqnaqbNVUVanqEtUdqidUb6u+odFoVjQ/WgqtgLaEVk07RXtA+6BGV3NU46jx1WarVajVq11Re6lOUbdUZ6lPUC9SL1c/oH5JvVeDomGlwdbgaszSqNA4rHFTo1+TrjlKM0ozT3Ox5i7N85rdWiQtK61ALb7WfK2tWqe0HtMxujmdTefR59G30U/Tu7SJ2tbaHO1s7TLtPdrt2n06WjouOok6U3UqdI7pdOpiula6HN1c3aW6+3Vv6H4aZjSMNUwwbNGw2mFXhr3XG67npyfQK9Wr07uu90mfoR+on6O/XL9B/74BbmBnEGMwxWCjwWmD3uHaw72G84aXDt8//I4hamhnGGs43XCrYZthv5GxUbCR2Gid0SmjXmNdYz/jbONVxseNe0zoJj4mQpNVJs0mzxk6DBYjl7GW0croMzU0DTGVmm4xbTf9bGZtlmBWbFZndt+cas40zzBfZd5i3mdhYhFhMcOixuKOJcWSaZllucbyrOV7K2urJKsFVg1W3dZ61hzrIusa63s2NBtfm8k2VTbXbIm2TNsc2w22l+1QO1e7LLsKu0v2qL2bvdB+g33HCMIIjxGiEVUjbjqoOrAcCh1qHB466jqGOxY7Nji+HGkxMmXk8pFnR35zcnXKddrmdHeU1qjQUcWjmka9drZz5jlXOF8bTRsdNHr26MbRr1zsXQQuG11uudJdI1wXuLa4fnVzd5O41br1uFu4p7lXut9kajOjmYuZ5zwIHv4esz2Oenz0dPMs8Nzv+ZeXg1eO1y6v7jHWYwRjto157G3mzfXe4t3pw/BJ89ns0+lr6sv1rfJ95Gfux/fb7veMZcvKZu1mvfR38pf4H/J/z/Zkz2SfCMACggNKA9oDtQITAtcHPggyC8oMqgnqC3YNnh58IoQQEhayPOQmx4jD41Rz+kLdQ2eGtoaphsWFrQ97FG4XLglvikAjQiNWRtyLtIwURTZEgShO1Mqo+9HW0ZOjj8QQY6JjKmKexo6KnRF7No4eNzFuV9y7eP/4pfF3E2wSpAktieqJqYnVie+TApJWJHWOHTl25tiLyQbJwuTGFFJKYsr2lP5xgeNWj+tKdU0tSb0x3nr81PHnJxhMyJ1wbKL6RO7EA2mEtKS0XWlfuFHcKm5/Oie9Mr2Px+at4b3g+/FX8XsE3oIVgmcZ3hkrMrozvTNXZvZk+WaVZ/UK2cL1wlfZIdmbst/nROXsyBnITcqtyyPnpeUdFmmJckStk4wnTZ3UIbYXl4g7J3tOXj25TxIm2Z6P5I/PbyzQhj/ybVIb6S/Sh4U+hRWFH6YkTjkwVXOqaGrbNLtpi6Y9Kwoq+m06Pp03vWWG6Yy5Mx7OZM3cMguZlT6rZbb57Pmzu+YEz9k5lzo3Z+7vxU7FK4rfzkua1zTfaP6c+Y9/Cf6lpkStRFJyc4HXgk0L8YXChe2LRi9at+hbKb/0QplTWXnZl8W8xRd+HfXr2l8HlmQsaV/qtnTjMuIy0bIby32X71yhuaJoxeOVESvrVzFWla56u3ri6vPlLuWb1lDXSNd0rg1f27jOYt2ydV/WZ62/XuFfUVdpWLmo8v0G/oYrG/021m4y2lS26dNm4eZbW4K31FdZVZVvJW4t3Pp0W+K2s78xf6vebrC9bPvXHaIdnTtjd7ZWu1dX7zLctbQGrZHW9OxO3X15T8CexlqH2i11unVle8Fe6d7n+9L23dgftr/lAPNA7UHLg5WH6IdK65H6afV9DVkNnY3JjR2HQw+3NHk1HTrieGTHUdOjFcd0ji09Tj0+//hAc1Fz/wnxid6TmScft0xsuXtq7KlrrTGt7afDTp87E3Tm1FnW2eZz3ueOnvc8f/gC80LDRbeL9W2ubYd+d/39ULtbe/0l90uNlz0uN3WM6Th+xffKyasBV89c41y7eD3yeseNhBu3bqbe7LzFv9V9O/f2qzuFdz7fnXOPcK/0vsb98geGD6r+sP2jrtOt89jDgIdtj+Ie3X3Me/ziSf6TL13zn9Kelj8zeVbd7dx9tCeo5/Lzcc+7XohffO4t+VPzz8qXNi8P/uX3V1vf2L6uV5JXA68Xv9F/s+Oty9uW/uj+B+/y3n1+X/pB/8POj8yPZz8lfXr2ecoX0pe1X22/Nn0L+3ZvIG9gQMyVcOW/AhisaEYGAK93AEBLBoAOz2fUcYrzn7wgijOrHIH/hBVnRHlxA6AW/r/H9MK/m5sA7N0Gj19QXz0VgGgaAPEeAB09eqgOntXk50pZIcJzwOb4r+l56eDfFMWZ84e4f26BTNUF/Nz+C9nzfEbVa0KNAAAAlmVYSWZNTQAqAAAACAAFARIAAwAAAAEAAQAAARoABQAAAAEAAABKARsABQAAAAEAAABSASgAAwAAAAEAAgAAh2kABAAAAAEAAABaAAAAAAAAAJAAAAABAAAAkAAAAAEAA5KGAAcAAAASAAAAhKACAAQAAAABAAAARKADAAQAAAABAAAAPAAAAABBU0NJSQAAAFNjcmVlbnNob3QEKSxcAAAACXBIWXMAABYlAAAWJQFJUiTwAAAC2WlUWHRYTUw6Y29tLmFkb2JlLnhtcAAAAAAAPHg6eG1wbWV0YSB4bWxuczp4PSJhZG9iZTpuczptZXRhLyIgeDp4bXB0az0iWE1QIENvcmUgNi4wLjAiPgogICA8cmRmOlJERiB4bWxuczpyZGY9Imh0dHA6Ly93d3cudzMub3JnLzE5OTkvMDIvMjItcmRmLXN5bnRheC1ucyMiPgogICAgICA8cmRmOkRlc2NyaXB0aW9uIHJkZjphYm91dD0iIgogICAgICAgICAgICB4bWxuczpleGlmPSJodHRwOi8vbnMuYWRvYmUuY29tL2V4aWYvMS4wLyIKICAgICAgICAgICAgeG1sbnM6dGlmZj0iaHR0cDovL25zLmFkb2JlLmNvbS90aWZmLzEuMC8iPgogICAgICAgICA8ZXhpZjpVc2VyQ29tbWVudD5TY3JlZW5zaG90PC9leGlmOlVzZXJDb21tZW50PgogICAgICAgICA8ZXhpZjpQaXhlbFhEaW1lbnNpb24+Njg8L2V4aWY6UGl4ZWxYRGltZW5zaW9uPgogICAgICAgICA8ZXhpZjpQaXhlbFlEaW1lbnNpb24+NjA8L2V4aWY6UGl4ZWxZRGltZW5zaW9uPgogICAgICAgICA8dGlmZjpSZXNvbHV0aW9uVW5pdD4yPC90aWZmOlJlc29sdXRpb25Vbml0PgogICAgICAgICA8dGlmZjpYUmVzb2x1dGlvbj4xNDQvMTwvdGlmZjpYUmVzb2x1dGlvbj4KICAgICAgICAgPHRpZmY6WVJlc29sdXRpb24+MTQ0LzE8L3RpZmY6WVJlc29sdXRpb24+CiAgICAgICAgIDx0aWZmOk9yaWVudGF0aW9uPjE8L3RpZmY6T3JpZW50YXRpb24+CiAgICAgIDwvcmRmOkRlc2NyaXB0aW9uPgogICA8L3JkZjpSREY+CjwveDp4bXBtZXRhPgrInBAqAAAGNklEQVRoBe3aC0/cOhCG4UCXUuiFwv//fUjcWmjpDQqcPpa+yOtmEalO2aTakUZOso4z83o8ngS27u/vH7qN9AS2+6PNQSGwAdIEwqI5f/T04eGh+7XEit7d3ZW+W1tbXfTRm9f4I7uJlq3b29u9tmaNAvLz58/u69evvRpssVh0Ozs7pW0Hn8I5CCYvyta9vb1eWxtHA7m+vu4+fPhQFO1Xr151u7u7pW0Hn8K5iL69vS16c3PT7e/vdwcHByVC2M6HWv4IyPn5eXd8fFwGff36dRetB57Kscj48eNH9/3799K+ffu2QAADmFZGAUn4Ie4hL168KNFhFlrS7YPWeQ4Km0ERzZY+m4dkFBDJKGvwzZs3JW+g/O7du0HaQw987mtAyHNsN6GA8MFkDskoIKLAYMINkJcvXxYQoLx//35o/LVfE8nsTnSzOYCGjBsFpI0QYEQHGIeHh0Pjr/0aICTLJhHClyFZWEs6p0WSaHOcG799+9bZZT5//lxa4Zjc0a5JDzQb0VUhmrH/VitfeDZlE2Vz7G6fuwDDdhTlWHQISLZcrdBTl4B0dXW1NDYDklu06wKyZNQTTkqEgGH2KaIgJWrqMTgPxMXFRWnRBiOFTt1XZBgXCHu/UJ2D9BEChqUACLUcQKlFn48fPxYFRgRxNMui7us6YGqUo6Oj+qdJHy84lfwBhLXFmaEqzkzbZVLt8cx5ynf7fHTSXj9iXNllAElUAAEI5Wwt+phxu4poIZZE9PLysqPGE2FzlJURosQVCbUEHDCU1Fnb0tFHrpk1kHrZWDIiQ6JUfI0Ry+XTp0+/RdaYMdbdd7g6WbdVa3z+BkgDfwOkAbKQMyRGO4Xt07nEmGKt7i/XpGhLjaJ/xkgy1c94Sbj1GFM/XjAaCDuEROocDBVoXozihJ3Fdht13b1R5TsoxHiSMzCAzUVKhHBI3ZGtUpvj2hGAOB3lKMfdq3UPmCLENePODkgbIZyOtlDM/tnZWa/uVcjlXSZVKxAAafWZVYTUQMys8yiHapFbAEg1a/bzPVWbZZI6RnGnr35zkT6HMLiGw5EkzjhjGYACnFkHjNNR5xQAcBR2omdWQOJYDYPT0cDQghQYcdrnw2giKy0oIM4KSIyvHV91bLYJB6lznw6jq+6b0/XyPSS1hW1VBNRaO5PvIb6F+C4iAiRgyda3lFqAFlHRNh/Vfad03H8xy86SpZK2NhYQMKKiJDC89tcCgM8ENLml/n2qx0tfzDgnSkSMFpRa/A6GT4hUFIgMS0ck1CJ6jAHG2LfmepznPi4Rot7w6v7ly5el0rwFkq9hii/3WFr6cFyEOc61bL0SbrtbPbeTY5732wcis56dwXEtag2/mXGJlPN1MSaCqKXltznKEhCzLvw5rRX2tYiEwBAtRB4BTpvcIiJEzBxlCQiH1SXywdAnRLPOWUsjy0D/qHxhDEtvtkDMYtY9RzlntkWHKBkjXvqy3MbcN6W+y0liSpatyZYNkAb8BkgDpHwgkjNsn/KGHCIx2jod1yKR+o3mW4kdJupPEJJptuPsQPUYUz/uX/+TRDnHWZ8Qs7XGCdfVGXYRLWApywFVtfoNEOO5BkoLNuNNsV0CYrvlDMdVo3adWgDyzuLFTstRu0pUBGU7BgQsgGcLBABOC/u0NRCzf3p6WvTk5KQ4a2v2J88UdEAAFCCzi5CEPSeIGTWzHJIrask1UQCefsp51avWEomKNm+6QIEyF+mXDIPB4BA4HEn4xxnXs4yA1Nd/B6lq819CnE9eAWm2QAKDw1H5pJa84uvLcYDyH4ha14GiGQ80gOYi/bb7lLDmWLZd0QOIt15LQ7tKAnjV73/zOjuzxE1wdNUzR02dwQCxA0m6HgSSaJiqsFUJoa6ye7L3sQkaDQQEAwOiDQzXpygmUM3EXnAsYUDadBDb/whIIkSuMHAgZdAptWxjLzWBzv83IADINdmJOJ4ls4r4uuHUNjtOfZTIbu0bFSFgKMIk0AwITrQdfArnJkpEiAyqDFAOADMko4CIBkCQNjABBqin7FJDBjzHtSwRbaIbEH60svWr03Kx0faozkPbwJQYdGjg6rbJHLKfrSYxbWvcKCDtzf/i+XQLiDXR3gBpwG+ANED+A8I8opteDCP0AAAAAElFTkSuQmCC;movable=1;resizable=1;rotatable=1;deletable=1;editable=1;locked=0;connectable=1;container=0;" parent="jvcADhcVPLt3B4X78LWL-1" vertex="1">
          <mxGeometry x="986.29" y="662.5" width="27" height="27" as="geometry" />
        </mxCell>
        <mxCell id="07bfvZG-6_nP_2OwuIHk-14" value="" style="shape=image;verticalLabelPosition=bottom;labelBackgroundColor=default;verticalAlign=top;aspect=fixed;imageAspect=0;image=data:image/png,iVBORw0KGgoAAAANSUhEUgAAAEQAAAA8CAYAAADfYhweAAAMP2lDQ1BJQ0MgUHJvZmlsZQAASImVVwdYU8kWnltSIbQAAlJCb4KIlABSQmihdwRRCUmAUGIMBBU7uqjg2sUCNnRVRMEKiAVF7CyKvS8WFJR1sWBX3qSArvvK9+b75s5//znznzPnztx7BwD1E1yxOBfVACBPVCCJDfZnjE1OYZC6AQmQAQUYAJzLyxezoqPDASyD7d/LuxsAkbVXHWRa/+z/r0WTL8jnAYBEQ5zOz+flQXwQALySJ5YUAECU8eZTCsQyDCvQlsAAIV4ow5kKXCnD6Qq8V24TH8uGuBUAsiqXK8kEQO0y5BmFvEyoodYHsZOILxQBoM6A2CcvbxIf4jSIbaCNGGKZPjP9B53Mv2mmD2lyuZlDWDEXeSEHCPPFudxp/2c6/nfJy5UO+rCCVTVLEhIrmzPM262cSWEyrApxryg9MgpiLYg/CPlye4hRapY0JEFhjxry8tkwZ0AXYic+NyAMYkOIg0S5keFKPj1DGMSBGK4QdKqwgBMPsR7ECwX5gXFKm82SSbFKX2h9hoTNUvLnuBK5X5mvB9KcBJZS/3WWgKPUx9SKsuKTIKZCbFEoTIyEWA1ix/ycuDClzZiiLHbkoI1EGiuL3wLiWIEo2F+hjxVmSIJilfalefmD88U2Zwk5kUq8vyArPkSRH6yVx5XHD+eCXRaIWAmDOoL8seGDc+ELAgIVc8e6BaKEOKXOB3GBf6xiLE4V50Yr7XEzQW6wjDeD2CW/ME45Fk8sgAtSoY9niAui4xVx4kXZ3NBoRTz4MhAO2CAAMIAU1nQwCWQDYXtvQy+8U/QEAS6QgEwgAA5KZnBEkrxHBK9xoAj8CZEA5A+N85f3CkAh5L8OsYqrA8iQ9xbKR+SApxDngTCQC++l8lGiIW+J4AlkhP/wzoWVB+PNhVXW/+/5QfY7w4JMuJKRDnpkqA9aEgOJAcQQYhDRFjfAfXAvPBxe/WB1xpm4x+A8vtsTnhI6CI8I1wmdhNsThcWSn6KMAJ1QP0iZi/Qfc4FbQU1X3B/3hupQGdfFDYAD7gL9sHBf6NkVsmxl3LKsMH7S/tsMfngaSjuKEwWlDKP4UWx+Hqlmp+Y6pCLL9Y/5UcSaPpRv9lDPz/7ZP2SfD9uwny2xhdgB7Cx2EjuPHcUaAANrxhqxNuyYDA+trify1TXoLVYeTw7UEf7D3+CTlWUy36nGqcfpi6KvQDBV9o4G7EniaRJhZlYBgwW/CAIGR8RzHMFwdnJ2AUD2fVG8vt7EyL8biG7bd27eHwB4Nw8MDBz5zoU2A7DPHW7/w985Gyb8dKgAcO4wTyopVHC47EKAbwl1uNP0gTEwBzZwPs7ADXgBPxAIQkEUiAfJYAKMPguucwmYAmaAuaAElIFlYDVYDzaBrWAn2AP2gwZwFJwEZ8BFcBlcB3fh6ukCL0AfeAc+IwhCQmgIHdFHTBBLxB5xRpiIDxKIhCOxSDKShmQiIkSKzEDmIWXICmQ9sgWpRvYhh5GTyHmkA7mNPER6kNfIJxRDVVFt1Ai1QkeiTJSFhqHx6Hg0E52MFqHz0SXoWrQK3Y3WoyfRi+h1tBN9gfZjAFPBdDFTzAFjYmwsCkvBMjAJNgsrxcqxKqwWa4LP+SrWifViH3EiTscZuANcwSF4As7DJ+Oz8MX4enwnXo+34lfxh3gf/o1AIxgS7AmeBA5hLCGTMIVQQignbCccIpyGe6mL8I5IJOoSrYnucC8mE7OJ04mLiRuIdcQTxA7iY2I/iUTSJ9mTvElRJC6pgFRCWkfaTWomXSF1kT6QVcgmZGdyEDmFLCIXk8vJu8jHyVfIz8ifKRoUS4onJYrCp0yjLKVsozRRLlG6KJ+pmlRrqjc1nppNnUtdS62lnqbeo75RUVExU/FQiVERqsxRWauyV+WcykOVj6paqnaqbNVUVanqEtUdqidUb6u+odFoVjQ/WgqtgLaEVk07RXtA+6BGV3NU46jx1WarVajVq11Re6lOUbdUZ6lPUC9SL1c/oH5JvVeDomGlwdbgaszSqNA4rHFTo1+TrjlKM0ozT3Ox5i7N85rdWiQtK61ALb7WfK2tWqe0HtMxujmdTefR59G30U/Tu7SJ2tbaHO1s7TLtPdrt2n06WjouOok6U3UqdI7pdOpiula6HN1c3aW6+3Vv6H4aZjSMNUwwbNGw2mFXhr3XG67npyfQK9Wr07uu90mfoR+on6O/XL9B/74BbmBnEGMwxWCjwWmD3uHaw72G84aXDt8//I4hamhnGGs43XCrYZthv5GxUbCR2Gid0SmjXmNdYz/jbONVxseNe0zoJj4mQpNVJs0mzxk6DBYjl7GW0croMzU0DTGVmm4xbTf9bGZtlmBWbFZndt+cas40zzBfZd5i3mdhYhFhMcOixuKOJcWSaZllucbyrOV7K2urJKsFVg1W3dZ61hzrIusa63s2NBtfm8k2VTbXbIm2TNsc2w22l+1QO1e7LLsKu0v2qL2bvdB+g33HCMIIjxGiEVUjbjqoOrAcCh1qHB466jqGOxY7Nji+HGkxMmXk8pFnR35zcnXKddrmdHeU1qjQUcWjmka9drZz5jlXOF8bTRsdNHr26MbRr1zsXQQuG11uudJdI1wXuLa4fnVzd5O41br1uFu4p7lXut9kajOjmYuZ5zwIHv4esz2Oenz0dPMs8Nzv+ZeXg1eO1y6v7jHWYwRjto157G3mzfXe4t3pw/BJ89ns0+lr6sv1rfJ95Gfux/fb7veMZcvKZu1mvfR38pf4H/J/z/Zkz2SfCMACggNKA9oDtQITAtcHPggyC8oMqgnqC3YNnh58IoQQEhayPOQmx4jD41Rz+kLdQ2eGtoaphsWFrQ97FG4XLglvikAjQiNWRtyLtIwURTZEgShO1Mqo+9HW0ZOjj8QQY6JjKmKexo6KnRF7No4eNzFuV9y7eP/4pfF3E2wSpAktieqJqYnVie+TApJWJHWOHTl25tiLyQbJwuTGFFJKYsr2lP5xgeNWj+tKdU0tSb0x3nr81PHnJxhMyJ1wbKL6RO7EA2mEtKS0XWlfuFHcKm5/Oie9Mr2Px+at4b3g+/FX8XsE3oIVgmcZ3hkrMrozvTNXZvZk+WaVZ/UK2cL1wlfZIdmbst/nROXsyBnITcqtyyPnpeUdFmmJckStk4wnTZ3UIbYXl4g7J3tOXj25TxIm2Z6P5I/PbyzQhj/ybVIb6S/Sh4U+hRWFH6YkTjkwVXOqaGrbNLtpi6Y9Kwoq+m06Pp03vWWG6Yy5Mx7OZM3cMguZlT6rZbb57Pmzu+YEz9k5lzo3Z+7vxU7FK4rfzkua1zTfaP6c+Y9/Cf6lpkStRFJyc4HXgk0L8YXChe2LRi9at+hbKb/0QplTWXnZl8W8xRd+HfXr2l8HlmQsaV/qtnTjMuIy0bIby32X71yhuaJoxeOVESvrVzFWla56u3ri6vPlLuWb1lDXSNd0rg1f27jOYt2ydV/WZ62/XuFfUVdpWLmo8v0G/oYrG/021m4y2lS26dNm4eZbW4K31FdZVZVvJW4t3Pp0W+K2s78xf6vebrC9bPvXHaIdnTtjd7ZWu1dX7zLctbQGrZHW9OxO3X15T8CexlqH2i11unVle8Fe6d7n+9L23dgftr/lAPNA7UHLg5WH6IdK65H6afV9DVkNnY3JjR2HQw+3NHk1HTrieGTHUdOjFcd0ji09Tj0+//hAc1Fz/wnxid6TmScft0xsuXtq7KlrrTGt7afDTp87E3Tm1FnW2eZz3ueOnvc8f/gC80LDRbeL9W2ubYd+d/39ULtbe/0l90uNlz0uN3WM6Th+xffKyasBV89c41y7eD3yeseNhBu3bqbe7LzFv9V9O/f2qzuFdz7fnXOPcK/0vsb98geGD6r+sP2jrtOt89jDgIdtj+Ie3X3Me/ziSf6TL13zn9Kelj8zeVbd7dx9tCeo5/Lzcc+7XohffO4t+VPzz8qXNi8P/uX3V1vf2L6uV5JXA68Xv9F/s+Oty9uW/uj+B+/y3n1+X/pB/8POj8yPZz8lfXr2ecoX0pe1X22/Nn0L+3ZvIG9gQMyVcOW/AhisaEYGAK93AEBLBoAOz2fUcYrzn7wgijOrHIH/hBVnRHlxA6AW/r/H9MK/m5sA7N0Gj19QXz0VgGgaAPEeAB09eqgOntXk50pZIcJzwOb4r+l56eDfFMWZ84e4f26BTNUF/Nz+C9nzfEbVa0KNAAAAlmVYSWZNTQAqAAAACAAFARIAAwAAAAEAAQAAARoABQAAAAEAAABKARsABQAAAAEAAABSASgAAwAAAAEAAgAAh2kABAAAAAEAAABaAAAAAAAAAJAAAAABAAAAkAAAAAEAA5KGAAcAAAASAAAAhKACAAQAAAABAAAARKADAAQAAAABAAAAPAAAAABBU0NJSQAAAFNjcmVlbnNob3QEKSxcAAAACXBIWXMAABYlAAAWJQFJUiTwAAAC2WlUWHRYTUw6Y29tLmFkb2JlLnhtcAAAAAAAPHg6eG1wbWV0YSB4bWxuczp4PSJhZG9iZTpuczptZXRhLyIgeDp4bXB0az0iWE1QIENvcmUgNi4wLjAiPgogICA8cmRmOlJERiB4bWxuczpyZGY9Imh0dHA6Ly93d3cudzMub3JnLzE5OTkvMDIvMjItcmRmLXN5bnRheC1ucyMiPgogICAgICA8cmRmOkRlc2NyaXB0aW9uIHJkZjphYm91dD0iIgogICAgICAgICAgICB4bWxuczpleGlmPSJodHRwOi8vbnMuYWRvYmUuY29tL2V4aWYvMS4wLyIKICAgICAgICAgICAgeG1sbnM6dGlmZj0iaHR0cDovL25zLmFkb2JlLmNvbS90aWZmLzEuMC8iPgogICAgICAgICA8ZXhpZjpVc2VyQ29tbWVudD5TY3JlZW5zaG90PC9leGlmOlVzZXJDb21tZW50PgogICAgICAgICA8ZXhpZjpQaXhlbFhEaW1lbnNpb24+Njg8L2V4aWY6UGl4ZWxYRGltZW5zaW9uPgogICAgICAgICA8ZXhpZjpQaXhlbFlEaW1lbnNpb24+NjA8L2V4aWY6UGl4ZWxZRGltZW5zaW9uPgogICAgICAgICA8dGlmZjpSZXNvbHV0aW9uVW5pdD4yPC90aWZmOlJlc29sdXRpb25Vbml0PgogICAgICAgICA8dGlmZjpYUmVzb2x1dGlvbj4xNDQvMTwvdGlmZjpYUmVzb2x1dGlvbj4KICAgICAgICAgPHRpZmY6WVJlc29sdXRpb24+MTQ0LzE8L3RpZmY6WVJlc29sdXRpb24+CiAgICAgICAgIDx0aWZmOk9yaWVudGF0aW9uPjE8L3RpZmY6T3JpZW50YXRpb24+CiAgICAgIDwvcmRmOkRlc2NyaXB0aW9uPgogICA8L3JkZjpSREY+CjwveDp4bXBtZXRhPgrInBAqAAAGNklEQVRoBe3aC0/cOhCG4UCXUuiFwv//fUjcWmjpDQqcPpa+yOtmEalO2aTakUZOso4z83o8ngS27u/vH7qN9AS2+6PNQSGwAdIEwqI5f/T04eGh+7XEit7d3ZW+W1tbXfTRm9f4I7uJlq3b29u9tmaNAvLz58/u69evvRpssVh0Ozs7pW0Hn8I5CCYvyta9vb1eWxtHA7m+vu4+fPhQFO1Xr151u7u7pW0Hn8K5iL69vS16c3PT7e/vdwcHByVC2M6HWv4IyPn5eXd8fFwGff36dRetB57Kscj48eNH9/3799K+ffu2QAADmFZGAUn4Ie4hL168KNFhFlrS7YPWeQ4Km0ERzZY+m4dkFBDJKGvwzZs3JW+g/O7du0HaQw987mtAyHNsN6GA8MFkDskoIKLAYMINkJcvXxYQoLx//35o/LVfE8nsTnSzOYCGjBsFpI0QYEQHGIeHh0Pjr/0aICTLJhHClyFZWEs6p0WSaHOcG799+9bZZT5//lxa4Zjc0a5JDzQb0VUhmrH/VitfeDZlE2Vz7G6fuwDDdhTlWHQISLZcrdBTl4B0dXW1NDYDklu06wKyZNQTTkqEgGH2KaIgJWrqMTgPxMXFRWnRBiOFTt1XZBgXCHu/UJ2D9BEChqUACLUcQKlFn48fPxYFRgRxNMui7us6YGqUo6Oj+qdJHy84lfwBhLXFmaEqzkzbZVLt8cx5ynf7fHTSXj9iXNllAElUAAEI5Wwt+phxu4poIZZE9PLysqPGE2FzlJURosQVCbUEHDCU1Fnb0tFHrpk1kHrZWDIiQ6JUfI0Ry+XTp0+/RdaYMdbdd7g6WbdVa3z+BkgDfwOkAbKQMyRGO4Xt07nEmGKt7i/XpGhLjaJ/xkgy1c94Sbj1GFM/XjAaCDuEROocDBVoXozihJ3Fdht13b1R5TsoxHiSMzCAzUVKhHBI3ZGtUpvj2hGAOB3lKMfdq3UPmCLENePODkgbIZyOtlDM/tnZWa/uVcjlXSZVKxAAafWZVYTUQMys8yiHapFbAEg1a/bzPVWbZZI6RnGnr35zkT6HMLiGw5EkzjhjGYACnFkHjNNR5xQAcBR2omdWQOJYDYPT0cDQghQYcdrnw2giKy0oIM4KSIyvHV91bLYJB6lznw6jq+6b0/XyPSS1hW1VBNRaO5PvIb6F+C4iAiRgyda3lFqAFlHRNh/Vfad03H8xy86SpZK2NhYQMKKiJDC89tcCgM8ENLml/n2qx0tfzDgnSkSMFpRa/A6GT4hUFIgMS0ck1CJ6jAHG2LfmepznPi4Rot7w6v7ly5el0rwFkq9hii/3WFr6cFyEOc61bL0SbrtbPbeTY5732wcis56dwXEtag2/mXGJlPN1MSaCqKXltznKEhCzLvw5rRX2tYiEwBAtRB4BTpvcIiJEzBxlCQiH1SXywdAnRLPOWUsjy0D/qHxhDEtvtkDMYtY9RzlntkWHKBkjXvqy3MbcN6W+y0liSpatyZYNkAb8BkgDpHwgkjNsn/KGHCIx2jod1yKR+o3mW4kdJupPEJJptuPsQPUYUz/uX/+TRDnHWZ8Qs7XGCdfVGXYRLWApywFVtfoNEOO5BkoLNuNNsV0CYrvlDMdVo3adWgDyzuLFTstRu0pUBGU7BgQsgGcLBABOC/u0NRCzf3p6WvTk5KQ4a2v2J88UdEAAFCCzi5CEPSeIGTWzHJIrask1UQCefsp51avWEomKNm+6QIEyF+mXDIPB4BA4HEn4xxnXs4yA1Nd/B6lq819CnE9eAWm2QAKDw1H5pJa84uvLcYDyH4ha14GiGQ80gOYi/bb7lLDmWLZd0QOIt15LQ7tKAnjV73/zOjuzxE1wdNUzR02dwQCxA0m6HgSSaJiqsFUJoa6ye7L3sQkaDQQEAwOiDQzXpygmUM3EXnAsYUDadBDb/whIIkSuMHAgZdAptWxjLzWBzv83IADINdmJOJ4ls4r4uuHUNjtOfZTIbu0bFSFgKMIk0AwITrQdfArnJkpEiAyqDFAOADMko4CIBkCQNjABBqin7FJDBjzHtSwRbaIbEH60svWr03Kx0faozkPbwJQYdGjg6rbJHLKfrSYxbWvcKCDtzf/i+XQLiDXR3gBpwG+ANED+A8I8opteDCP0AAAAAElFTkSuQmCC;movable=1;resizable=1;rotatable=1;deletable=1;editable=1;locked=0;connectable=1;container=0;" parent="jvcADhcVPLt3B4X78LWL-1" vertex="1">
          <mxGeometry x="399.99999999999994" y="187.25" width="27" height="27" as="geometry" />
        </mxCell>
        <mxCell id="07bfvZG-6_nP_2OwuIHk-15" value="" style="shape=image;verticalLabelPosition=bottom;labelBackgroundColor=default;verticalAlign=top;aspect=fixed;imageAspect=0;image=data:image/png,iVBORw0KGgoAAAANSUhEUgAAAEQAAAA8CAYAAADfYhweAAAMP2lDQ1BJQ0MgUHJvZmlsZQAASImVVwdYU8kWnltSIbQAAlJCb4KIlABSQmihdwRRCUmAUGIMBBU7uqjg2sUCNnRVRMEKiAVF7CyKvS8WFJR1sWBX3qSArvvK9+b75s5//znznzPnztx7BwD1E1yxOBfVACBPVCCJDfZnjE1OYZC6AQmQAQUYAJzLyxezoqPDASyD7d/LuxsAkbVXHWRa/+z/r0WTL8jnAYBEQ5zOz+flQXwQALySJ5YUAECU8eZTCsQyDCvQlsAAIV4ow5kKXCnD6Qq8V24TH8uGuBUAsiqXK8kEQO0y5BmFvEyoodYHsZOILxQBoM6A2CcvbxIf4jSIbaCNGGKZPjP9B53Mv2mmD2lyuZlDWDEXeSEHCPPFudxp/2c6/nfJy5UO+rCCVTVLEhIrmzPM262cSWEyrApxryg9MgpiLYg/CPlye4hRapY0JEFhjxry8tkwZ0AXYic+NyAMYkOIg0S5keFKPj1DGMSBGK4QdKqwgBMPsR7ECwX5gXFKm82SSbFKX2h9hoTNUvLnuBK5X5mvB9KcBJZS/3WWgKPUx9SKsuKTIKZCbFEoTIyEWA1ix/ycuDClzZiiLHbkoI1EGiuL3wLiWIEo2F+hjxVmSIJilfalefmD88U2Zwk5kUq8vyArPkSRH6yVx5XHD+eCXRaIWAmDOoL8seGDc+ELAgIVc8e6BaKEOKXOB3GBf6xiLE4V50Yr7XEzQW6wjDeD2CW/ME45Fk8sgAtSoY9niAui4xVx4kXZ3NBoRTz4MhAO2CAAMIAU1nQwCWQDYXtvQy+8U/QEAS6QgEwgAA5KZnBEkrxHBK9xoAj8CZEA5A+N85f3CkAh5L8OsYqrA8iQ9xbKR+SApxDngTCQC++l8lGiIW+J4AlkhP/wzoWVB+PNhVXW/+/5QfY7w4JMuJKRDnpkqA9aEgOJAcQQYhDRFjfAfXAvPBxe/WB1xpm4x+A8vtsTnhI6CI8I1wmdhNsThcWSn6KMAJ1QP0iZi/Qfc4FbQU1X3B/3hupQGdfFDYAD7gL9sHBf6NkVsmxl3LKsMH7S/tsMfngaSjuKEwWlDKP4UWx+Hqlmp+Y6pCLL9Y/5UcSaPpRv9lDPz/7ZP2SfD9uwny2xhdgB7Cx2EjuPHcUaAANrxhqxNuyYDA+trify1TXoLVYeTw7UEf7D3+CTlWUy36nGqcfpi6KvQDBV9o4G7EniaRJhZlYBgwW/CAIGR8RzHMFwdnJ2AUD2fVG8vt7EyL8biG7bd27eHwB4Nw8MDBz5zoU2A7DPHW7/w985Gyb8dKgAcO4wTyopVHC47EKAbwl1uNP0gTEwBzZwPs7ADXgBPxAIQkEUiAfJYAKMPguucwmYAmaAuaAElIFlYDVYDzaBrWAn2AP2gwZwFJwEZ8BFcBlcB3fh6ukCL0AfeAc+IwhCQmgIHdFHTBBLxB5xRpiIDxKIhCOxSDKShmQiIkSKzEDmIWXICmQ9sgWpRvYhh5GTyHmkA7mNPER6kNfIJxRDVVFt1Ai1QkeiTJSFhqHx6Hg0E52MFqHz0SXoWrQK3Y3WoyfRi+h1tBN9gfZjAFPBdDFTzAFjYmwsCkvBMjAJNgsrxcqxKqwWa4LP+SrWifViH3EiTscZuANcwSF4As7DJ+Oz8MX4enwnXo+34lfxh3gf/o1AIxgS7AmeBA5hLCGTMIVQQignbCccIpyGe6mL8I5IJOoSrYnucC8mE7OJ04mLiRuIdcQTxA7iY2I/iUTSJ9mTvElRJC6pgFRCWkfaTWomXSF1kT6QVcgmZGdyEDmFLCIXk8vJu8jHyVfIz8ifKRoUS4onJYrCp0yjLKVsozRRLlG6KJ+pmlRrqjc1nppNnUtdS62lnqbeo75RUVExU/FQiVERqsxRWauyV+WcykOVj6paqnaqbNVUVanqEtUdqidUb6u+odFoVjQ/WgqtgLaEVk07RXtA+6BGV3NU46jx1WarVajVq11Re6lOUbdUZ6lPUC9SL1c/oH5JvVeDomGlwdbgaszSqNA4rHFTo1+TrjlKM0ozT3Ox5i7N85rdWiQtK61ALb7WfK2tWqe0HtMxujmdTefR59G30U/Tu7SJ2tbaHO1s7TLtPdrt2n06WjouOok6U3UqdI7pdOpiula6HN1c3aW6+3Vv6H4aZjSMNUwwbNGw2mFXhr3XG67npyfQK9Wr07uu90mfoR+on6O/XL9B/74BbmBnEGMwxWCjwWmD3uHaw72G84aXDt8//I4hamhnGGs43XCrYZthv5GxUbCR2Gid0SmjXmNdYz/jbONVxseNe0zoJj4mQpNVJs0mzxk6DBYjl7GW0croMzU0DTGVmm4xbTf9bGZtlmBWbFZndt+cas40zzBfZd5i3mdhYhFhMcOixuKOJcWSaZllucbyrOV7K2urJKsFVg1W3dZ61hzrIusa63s2NBtfm8k2VTbXbIm2TNsc2w22l+1QO1e7LLsKu0v2qL2bvdB+g33HCMIIjxGiEVUjbjqoOrAcCh1qHB466jqGOxY7Nji+HGkxMmXk8pFnR35zcnXKddrmdHeU1qjQUcWjmka9drZz5jlXOF8bTRsdNHr26MbRr1zsXQQuG11uudJdI1wXuLa4fnVzd5O41br1uFu4p7lXut9kajOjmYuZ5zwIHv4esz2Oenz0dPMs8Nzv+ZeXg1eO1y6v7jHWYwRjto157G3mzfXe4t3pw/BJ89ns0+lr6sv1rfJ95Gfux/fb7veMZcvKZu1mvfR38pf4H/J/z/Zkz2SfCMACggNKA9oDtQITAtcHPggyC8oMqgnqC3YNnh58IoQQEhayPOQmx4jD41Rz+kLdQ2eGtoaphsWFrQ97FG4XLglvikAjQiNWRtyLtIwURTZEgShO1Mqo+9HW0ZOjj8QQY6JjKmKexo6KnRF7No4eNzFuV9y7eP/4pfF3E2wSpAktieqJqYnVie+TApJWJHWOHTl25tiLyQbJwuTGFFJKYsr2lP5xgeNWj+tKdU0tSb0x3nr81PHnJxhMyJ1wbKL6RO7EA2mEtKS0XWlfuFHcKm5/Oie9Mr2Px+at4b3g+/FX8XsE3oIVgmcZ3hkrMrozvTNXZvZk+WaVZ/UK2cL1wlfZIdmbst/nROXsyBnITcqtyyPnpeUdFmmJckStk4wnTZ3UIbYXl4g7J3tOXj25TxIm2Z6P5I/PbyzQhj/ybVIb6S/Sh4U+hRWFH6YkTjkwVXOqaGrbNLtpi6Y9Kwoq+m06Pp03vWWG6Yy5Mx7OZM3cMguZlT6rZbb57Pmzu+YEz9k5lzo3Z+7vxU7FK4rfzkua1zTfaP6c+Y9/Cf6lpkStRFJyc4HXgk0L8YXChe2LRi9at+hbKb/0QplTWXnZl8W8xRd+HfXr2l8HlmQsaV/qtnTjMuIy0bIby32X71yhuaJoxeOVESvrVzFWla56u3ri6vPlLuWb1lDXSNd0rg1f27jOYt2ydV/WZ62/XuFfUVdpWLmo8v0G/oYrG/021m4y2lS26dNm4eZbW4K31FdZVZVvJW4t3Pp0W+K2s78xf6vebrC9bPvXHaIdnTtjd7ZWu1dX7zLctbQGrZHW9OxO3X15T8CexlqH2i11unVle8Fe6d7n+9L23dgftr/lAPNA7UHLg5WH6IdK65H6afV9DVkNnY3JjR2HQw+3NHk1HTrieGTHUdOjFcd0ji09Tj0+//hAc1Fz/wnxid6TmScft0xsuXtq7KlrrTGt7afDTp87E3Tm1FnW2eZz3ueOnvc8f/gC80LDRbeL9W2ubYd+d/39ULtbe/0l90uNlz0uN3WM6Th+xffKyasBV89c41y7eD3yeseNhBu3bqbe7LzFv9V9O/f2qzuFdz7fnXOPcK/0vsb98geGD6r+sP2jrtOt89jDgIdtj+Ie3X3Me/ziSf6TL13zn9Kelj8zeVbd7dx9tCeo5/Lzcc+7XohffO4t+VPzz8qXNi8P/uX3V1vf2L6uV5JXA68Xv9F/s+Oty9uW/uj+B+/y3n1+X/pB/8POj8yPZz8lfXr2ecoX0pe1X22/Nn0L+3ZvIG9gQMyVcOW/AhisaEYGAK93AEBLBoAOz2fUcYrzn7wgijOrHIH/hBVnRHlxA6AW/r/H9MK/m5sA7N0Gj19QXz0VgGgaAPEeAB09eqgOntXk50pZIcJzwOb4r+l56eDfFMWZ84e4f26BTNUF/Nz+C9nzfEbVa0KNAAAAlmVYSWZNTQAqAAAACAAFARIAAwAAAAEAAQAAARoABQAAAAEAAABKARsABQAAAAEAAABSASgAAwAAAAEAAgAAh2kABAAAAAEAAABaAAAAAAAAAJAAAAABAAAAkAAAAAEAA5KGAAcAAAASAAAAhKACAAQAAAABAAAARKADAAQAAAABAAAAPAAAAABBU0NJSQAAAFNjcmVlbnNob3QEKSxcAAAACXBIWXMAABYlAAAWJQFJUiTwAAAC2WlUWHRYTUw6Y29tLmFkb2JlLnhtcAAAAAAAPHg6eG1wbWV0YSB4bWxuczp4PSJhZG9iZTpuczptZXRhLyIgeDp4bXB0az0iWE1QIENvcmUgNi4wLjAiPgogICA8cmRmOlJERiB4bWxuczpyZGY9Imh0dHA6Ly93d3cudzMub3JnLzE5OTkvMDIvMjItcmRmLXN5bnRheC1ucyMiPgogICAgICA8cmRmOkRlc2NyaXB0aW9uIHJkZjphYm91dD0iIgogICAgICAgICAgICB4bWxuczpleGlmPSJodHRwOi8vbnMuYWRvYmUuY29tL2V4aWYvMS4wLyIKICAgICAgICAgICAgeG1sbnM6dGlmZj0iaHR0cDovL25zLmFkb2JlLmNvbS90aWZmLzEuMC8iPgogICAgICAgICA8ZXhpZjpVc2VyQ29tbWVudD5TY3JlZW5zaG90PC9leGlmOlVzZXJDb21tZW50PgogICAgICAgICA8ZXhpZjpQaXhlbFhEaW1lbnNpb24+Njg8L2V4aWY6UGl4ZWxYRGltZW5zaW9uPgogICAgICAgICA8ZXhpZjpQaXhlbFlEaW1lbnNpb24+NjA8L2V4aWY6UGl4ZWxZRGltZW5zaW9uPgogICAgICAgICA8dGlmZjpSZXNvbHV0aW9uVW5pdD4yPC90aWZmOlJlc29sdXRpb25Vbml0PgogICAgICAgICA8dGlmZjpYUmVzb2x1dGlvbj4xNDQvMTwvdGlmZjpYUmVzb2x1dGlvbj4KICAgICAgICAgPHRpZmY6WVJlc29sdXRpb24+MTQ0LzE8L3RpZmY6WVJlc29sdXRpb24+CiAgICAgICAgIDx0aWZmOk9yaWVudGF0aW9uPjE8L3RpZmY6T3JpZW50YXRpb24+CiAgICAgIDwvcmRmOkRlc2NyaXB0aW9uPgogICA8L3JkZjpSREY+CjwveDp4bXBtZXRhPgrInBAqAAAGNklEQVRoBe3aC0/cOhCG4UCXUuiFwv//fUjcWmjpDQqcPpa+yOtmEalO2aTakUZOso4z83o8ngS27u/vH7qN9AS2+6PNQSGwAdIEwqI5f/T04eGh+7XEit7d3ZW+W1tbXfTRm9f4I7uJlq3b29u9tmaNAvLz58/u69evvRpssVh0Ozs7pW0Hn8I5CCYvyta9vb1eWxtHA7m+vu4+fPhQFO1Xr151u7u7pW0Hn8K5iL69vS16c3PT7e/vdwcHByVC2M6HWv4IyPn5eXd8fFwGff36dRetB57Kscj48eNH9/3799K+ffu2QAADmFZGAUn4Ie4hL168KNFhFlrS7YPWeQ4Km0ERzZY+m4dkFBDJKGvwzZs3JW+g/O7du0HaQw987mtAyHNsN6GA8MFkDskoIKLAYMINkJcvXxYQoLx//35o/LVfE8nsTnSzOYCGjBsFpI0QYEQHGIeHh0Pjr/0aICTLJhHClyFZWEs6p0WSaHOcG799+9bZZT5//lxa4Zjc0a5JDzQb0VUhmrH/VitfeDZlE2Vz7G6fuwDDdhTlWHQISLZcrdBTl4B0dXW1NDYDklu06wKyZNQTTkqEgGH2KaIgJWrqMTgPxMXFRWnRBiOFTt1XZBgXCHu/UJ2D9BEChqUACLUcQKlFn48fPxYFRgRxNMui7us6YGqUo6Oj+qdJHy84lfwBhLXFmaEqzkzbZVLt8cx5ynf7fHTSXj9iXNllAElUAAEI5Wwt+phxu4poIZZE9PLysqPGE2FzlJURosQVCbUEHDCU1Fnb0tFHrpk1kHrZWDIiQ6JUfI0Ry+XTp0+/RdaYMdbdd7g6WbdVa3z+BkgDfwOkAbKQMyRGO4Xt07nEmGKt7i/XpGhLjaJ/xkgy1c94Sbj1GFM/XjAaCDuEROocDBVoXozihJ3Fdht13b1R5TsoxHiSMzCAzUVKhHBI3ZGtUpvj2hGAOB3lKMfdq3UPmCLENePODkgbIZyOtlDM/tnZWa/uVcjlXSZVKxAAafWZVYTUQMys8yiHapFbAEg1a/bzPVWbZZI6RnGnr35zkT6HMLiGw5EkzjhjGYACnFkHjNNR5xQAcBR2omdWQOJYDYPT0cDQghQYcdrnw2giKy0oIM4KSIyvHV91bLYJB6lznw6jq+6b0/XyPSS1hW1VBNRaO5PvIb6F+C4iAiRgyda3lFqAFlHRNh/Vfad03H8xy86SpZK2NhYQMKKiJDC89tcCgM8ENLml/n2qx0tfzDgnSkSMFpRa/A6GT4hUFIgMS0ck1CJ6jAHG2LfmepznPi4Rot7w6v7ly5el0rwFkq9hii/3WFr6cFyEOc61bL0SbrtbPbeTY5732wcis56dwXEtag2/mXGJlPN1MSaCqKXltznKEhCzLvw5rRX2tYiEwBAtRB4BTpvcIiJEzBxlCQiH1SXywdAnRLPOWUsjy0D/qHxhDEtvtkDMYtY9RzlntkWHKBkjXvqy3MbcN6W+y0liSpatyZYNkAb8BkgDpHwgkjNsn/KGHCIx2jod1yKR+o3mW4kdJupPEJJptuPsQPUYUz/uX/+TRDnHWZ8Qs7XGCdfVGXYRLWApywFVtfoNEOO5BkoLNuNNsV0CYrvlDMdVo3adWgDyzuLFTstRu0pUBGU7BgQsgGcLBABOC/u0NRCzf3p6WvTk5KQ4a2v2J88UdEAAFCCzi5CEPSeIGTWzHJIrask1UQCefsp51avWEomKNm+6QIEyF+mXDIPB4BA4HEn4xxnXs4yA1Nd/B6lq819CnE9eAWm2QAKDw1H5pJa84uvLcYDyH4ha14GiGQ80gOYi/bb7lLDmWLZd0QOIt15LQ7tKAnjV73/zOjuzxE1wdNUzR02dwQCxA0m6HgSSaJiqsFUJoa6ye7L3sQkaDQQEAwOiDQzXpygmUM3EXnAsYUDadBDb/whIIkSuMHAgZdAptWxjLzWBzv83IADINdmJOJ4ls4r4uuHUNjtOfZTIbu0bFSFgKMIk0AwITrQdfArnJkpEiAyqDFAOADMko4CIBkCQNjABBqin7FJDBjzHtSwRbaIbEH60svWr03Kx0faozkPbwJQYdGjg6rbJHLKfrSYxbWvcKCDtzf/i+XQLiDXR3gBpwG+ANED+A8I8opteDCP0AAAAAElFTkSuQmCC;movable=1;resizable=1;rotatable=1;deletable=1;editable=1;locked=0;connectable=1;container=0;" parent="jvcADhcVPLt3B4X78LWL-1" vertex="1">
          <mxGeometry x="1300" y="683" width="27" height="27" as="geometry" />
        </mxCell>
        <mxCell id="stSaYYKcVWD6naMzTqCq-28" style="edgeStyle=orthogonalEdgeStyle;rounded=0;orthogonalLoop=1;jettySize=auto;html=1;exitX=1;exitY=0.5;exitDx=0;exitDy=0;entryX=0;entryY=0.5;entryDx=0;entryDy=0;jumpStyle=arc;jumpSize=14;" parent="jvcADhcVPLt3B4X78LWL-1" source="QUxNRha6htBDsQ1S0EIg-1" target="jvcADhcVPLt3B4X78LWL-51" edge="1">
          <mxGeometry relative="1" as="geometry">
            <Array as="points">
              <mxPoint x="540" y="260" />
              <mxPoint x="540" y="190" />
            </Array>
          </mxGeometry>
        </mxCell>
        <mxCell id="QUxNRha6htBDsQ1S0EIg-1" value="Shield Ethernet&amp;nbsp;" style="html=1;whiteSpace=wrap;fontStyle=1;align=left;fillColor=#33FF33;" parent="jvcADhcVPLt3B4X78LWL-1" vertex="1">
          <mxGeometry x="270" y="234" width="170" height="52.5" as="geometry" />
        </mxCell>
        <mxCell id="QUxNRha6htBDsQ1S0EIg-2" value="" style="shape=image;verticalLabelPosition=bottom;labelBackgroundColor=default;verticalAlign=top;aspect=fixed;imageAspect=0;image=data:image/png,iVBORw0KGgoAAAANSUhEUgAAAEQAAAA8CAYAAADfYhweAAAMP2lDQ1BJQ0MgUHJvZmlsZQAASImVVwdYU8kWnltSIbQAAlJCb4KIlABSQmihdwRRCUmAUGIMBBU7uqjg2sUCNnRVRMEKiAVF7CyKvS8WFJR1sWBX3qSArvvK9+b75s5//znznzPnztx7BwD1E1yxOBfVACBPVCCJDfZnjE1OYZC6AQmQAQUYAJzLyxezoqPDASyD7d/LuxsAkbVXHWRa/+z/r0WTL8jnAYBEQ5zOz+flQXwQALySJ5YUAECU8eZTCsQyDCvQlsAAIV4ow5kKXCnD6Qq8V24TH8uGuBUAsiqXK8kEQO0y5BmFvEyoodYHsZOILxQBoM6A2CcvbxIf4jSIbaCNGGKZPjP9B53Mv2mmD2lyuZlDWDEXeSEHCPPFudxp/2c6/nfJy5UO+rCCVTVLEhIrmzPM262cSWEyrApxryg9MgpiLYg/CPlye4hRapY0JEFhjxry8tkwZ0AXYic+NyAMYkOIg0S5keFKPj1DGMSBGK4QdKqwgBMPsR7ECwX5gXFKm82SSbFKX2h9hoTNUvLnuBK5X5mvB9KcBJZS/3WWgKPUx9SKsuKTIKZCbFEoTIyEWA1ix/ycuDClzZiiLHbkoI1EGiuL3wLiWIEo2F+hjxVmSIJilfalefmD88U2Zwk5kUq8vyArPkSRH6yVx5XHD+eCXRaIWAmDOoL8seGDc+ELAgIVc8e6BaKEOKXOB3GBf6xiLE4V50Yr7XEzQW6wjDeD2CW/ME45Fk8sgAtSoY9niAui4xVx4kXZ3NBoRTz4MhAO2CAAMIAU1nQwCWQDYXtvQy+8U/QEAS6QgEwgAA5KZnBEkrxHBK9xoAj8CZEA5A+N85f3CkAh5L8OsYqrA8iQ9xbKR+SApxDngTCQC++l8lGiIW+J4AlkhP/wzoWVB+PNhVXW/+/5QfY7w4JMuJKRDnpkqA9aEgOJAcQQYhDRFjfAfXAvPBxe/WB1xpm4x+A8vtsTnhI6CI8I1wmdhNsThcWSn6KMAJ1QP0iZi/Qfc4FbQU1X3B/3hupQGdfFDYAD7gL9sHBf6NkVsmxl3LKsMH7S/tsMfngaSjuKEwWlDKP4UWx+Hqlmp+Y6pCLL9Y/5UcSaPpRv9lDPz/7ZP2SfD9uwny2xhdgB7Cx2EjuPHcUaAANrxhqxNuyYDA+trify1TXoLVYeTw7UEf7D3+CTlWUy36nGqcfpi6KvQDBV9o4G7EniaRJhZlYBgwW/CAIGR8RzHMFwdnJ2AUD2fVG8vt7EyL8biG7bd27eHwB4Nw8MDBz5zoU2A7DPHW7/w985Gyb8dKgAcO4wTyopVHC47EKAbwl1uNP0gTEwBzZwPs7ADXgBPxAIQkEUiAfJYAKMPguucwmYAmaAuaAElIFlYDVYDzaBrWAn2AP2gwZwFJwEZ8BFcBlcB3fh6ukCL0AfeAc+IwhCQmgIHdFHTBBLxB5xRpiIDxKIhCOxSDKShmQiIkSKzEDmIWXICmQ9sgWpRvYhh5GTyHmkA7mNPER6kNfIJxRDVVFt1Ai1QkeiTJSFhqHx6Hg0E52MFqHz0SXoWrQK3Y3WoyfRi+h1tBN9gfZjAFPBdDFTzAFjYmwsCkvBMjAJNgsrxcqxKqwWa4LP+SrWifViH3EiTscZuANcwSF4As7DJ+Oz8MX4enwnXo+34lfxh3gf/o1AIxgS7AmeBA5hLCGTMIVQQignbCccIpyGe6mL8I5IJOoSrYnucC8mE7OJ04mLiRuIdcQTxA7iY2I/iUTSJ9mTvElRJC6pgFRCWkfaTWomXSF1kT6QVcgmZGdyEDmFLCIXk8vJu8jHyVfIz8ifKRoUS4onJYrCp0yjLKVsozRRLlG6KJ+pmlRrqjc1nppNnUtdS62lnqbeo75RUVExU/FQiVERqsxRWauyV+WcykOVj6paqnaqbNVUVanqEtUdqidUb6u+odFoVjQ/WgqtgLaEVk07RXtA+6BGV3NU46jx1WarVajVq11Re6lOUbdUZ6lPUC9SL1c/oH5JvVeDomGlwdbgaszSqNA4rHFTo1+TrjlKM0ozT3Ox5i7N85rdWiQtK61ALb7WfK2tWqe0HtMxujmdTefR59G30U/Tu7SJ2tbaHO1s7TLtPdrt2n06WjouOok6U3UqdI7pdOpiula6HN1c3aW6+3Vv6H4aZjSMNUwwbNGw2mFXhr3XG67npyfQK9Wr07uu90mfoR+on6O/XL9B/74BbmBnEGMwxWCjwWmD3uHaw72G84aXDt8//I4hamhnGGs43XCrYZthv5GxUbCR2Gid0SmjXmNdYz/jbONVxseNe0zoJj4mQpNVJs0mzxk6DBYjl7GW0croMzU0DTGVmm4xbTf9bGZtlmBWbFZndt+cas40zzBfZd5i3mdhYhFhMcOixuKOJcWSaZllucbyrOV7K2urJKsFVg1W3dZ61hzrIusa63s2NBtfm8k2VTbXbIm2TNsc2w22l+1QO1e7LLsKu0v2qL2bvdB+g33HCMIIjxGiEVUjbjqoOrAcCh1qHB466jqGOxY7Nji+HGkxMmXk8pFnR35zcnXKddrmdHeU1qjQUcWjmka9drZz5jlXOF8bTRsdNHr26MbRr1zsXQQuG11uudJdI1wXuLa4fnVzd5O41br1uFu4p7lXut9kajOjmYuZ5zwIHv4esz2Oenz0dPMs8Nzv+ZeXg1eO1y6v7jHWYwRjto157G3mzfXe4t3pw/BJ89ns0+lr6sv1rfJ95Gfux/fb7veMZcvKZu1mvfR38pf4H/J/z/Zkz2SfCMACggNKA9oDtQITAtcHPggyC8oMqgnqC3YNnh58IoQQEhayPOQmx4jD41Rz+kLdQ2eGtoaphsWFrQ97FG4XLglvikAjQiNWRtyLtIwURTZEgShO1Mqo+9HW0ZOjj8QQY6JjKmKexo6KnRF7No4eNzFuV9y7eP/4pfF3E2wSpAktieqJqYnVie+TApJWJHWOHTl25tiLyQbJwuTGFFJKYsr2lP5xgeNWj+tKdU0tSb0x3nr81PHnJxhMyJ1wbKL6RO7EA2mEtKS0XWlfuFHcKm5/Oie9Mr2Px+at4b3g+/FX8XsE3oIVgmcZ3hkrMrozvTNXZvZk+WaVZ/UK2cL1wlfZIdmbst/nROXsyBnITcqtyyPnpeUdFmmJckStk4wnTZ3UIbYXl4g7J3tOXj25TxIm2Z6P5I/PbyzQhj/ybVIb6S/Sh4U+hRWFH6YkTjkwVXOqaGrbNLtpi6Y9Kwoq+m06Pp03vWWG6Yy5Mx7OZM3cMguZlT6rZbb57Pmzu+YEz9k5lzo3Z+7vxU7FK4rfzkua1zTfaP6c+Y9/Cf6lpkStRFJyc4HXgk0L8YXChe2LRi9at+hbKb/0QplTWXnZl8W8xRd+HfXr2l8HlmQsaV/qtnTjMuIy0bIby32X71yhuaJoxeOVESvrVzFWla56u3ri6vPlLuWb1lDXSNd0rg1f27jOYt2ydV/WZ62/XuFfUVdpWLmo8v0G/oYrG/021m4y2lS26dNm4eZbW4K31FdZVZVvJW4t3Pp0W+K2s78xf6vebrC9bPvXHaIdnTtjd7ZWu1dX7zLctbQGrZHW9OxO3X15T8CexlqH2i11unVle8Fe6d7n+9L23dgftr/lAPNA7UHLg5WH6IdK65H6afV9DVkNnY3JjR2HQw+3NHk1HTrieGTHUdOjFcd0ji09Tj0+//hAc1Fz/wnxid6TmScft0xsuXtq7KlrrTGt7afDTp87E3Tm1FnW2eZz3ueOnvc8f/gC80LDRbeL9W2ubYd+d/39ULtbe/0l90uNlz0uN3WM6Th+xffKyasBV89c41y7eD3yeseNhBu3bqbe7LzFv9V9O/f2qzuFdz7fnXOPcK/0vsb98geGD6r+sP2jrtOt89jDgIdtj+Ie3X3Me/ziSf6TL13zn9Kelj8zeVbd7dx9tCeo5/Lzcc+7XohffO4t+VPzz8qXNi8P/uX3V1vf2L6uV5JXA68Xv9F/s+Oty9uW/uj+B+/y3n1+X/pB/8POj8yPZz8lfXr2ecoX0pe1X22/Nn0L+3ZvIG9gQMyVcOW/AhisaEYGAK93AEBLBoAOz2fUcYrzn7wgijOrHIH/hBVnRHlxA6AW/r/H9MK/m5sA7N0Gj19QXz0VgGgaAPEeAB09eqgOntXk50pZIcJzwOb4r+l56eDfFMWZ84e4f26BTNUF/Nz+C9nzfEbVa0KNAAAAlmVYSWZNTQAqAAAACAAFARIAAwAAAAEAAQAAARoABQAAAAEAAABKARsABQAAAAEAAABSASgAAwAAAAEAAgAAh2kABAAAAAEAAABaAAAAAAAAAJAAAAABAAAAkAAAAAEAA5KGAAcAAAASAAAAhKACAAQAAAABAAAARKADAAQAAAABAAAAPAAAAABBU0NJSQAAAFNjcmVlbnNob3QEKSxcAAAACXBIWXMAABYlAAAWJQFJUiTwAAAC2WlUWHRYTUw6Y29tLmFkb2JlLnhtcAAAAAAAPHg6eG1wbWV0YSB4bWxuczp4PSJhZG9iZTpuczptZXRhLyIgeDp4bXB0az0iWE1QIENvcmUgNi4wLjAiPgogICA8cmRmOlJERiB4bWxuczpyZGY9Imh0dHA6Ly93d3cudzMub3JnLzE5OTkvMDIvMjItcmRmLXN5bnRheC1ucyMiPgogICAgICA8cmRmOkRlc2NyaXB0aW9uIHJkZjphYm91dD0iIgogICAgICAgICAgICB4bWxuczpleGlmPSJodHRwOi8vbnMuYWRvYmUuY29tL2V4aWYvMS4wLyIKICAgICAgICAgICAgeG1sbnM6dGlmZj0iaHR0cDovL25zLmFkb2JlLmNvbS90aWZmLzEuMC8iPgogICAgICAgICA8ZXhpZjpVc2VyQ29tbWVudD5TY3JlZW5zaG90PC9leGlmOlVzZXJDb21tZW50PgogICAgICAgICA8ZXhpZjpQaXhlbFhEaW1lbnNpb24+Njg8L2V4aWY6UGl4ZWxYRGltZW5zaW9uPgogICAgICAgICA8ZXhpZjpQaXhlbFlEaW1lbnNpb24+NjA8L2V4aWY6UGl4ZWxZRGltZW5zaW9uPgogICAgICAgICA8dGlmZjpSZXNvbHV0aW9uVW5pdD4yPC90aWZmOlJlc29sdXRpb25Vbml0PgogICAgICAgICA8dGlmZjpYUmVzb2x1dGlvbj4xNDQvMTwvdGlmZjpYUmVzb2x1dGlvbj4KICAgICAgICAgPHRpZmY6WVJlc29sdXRpb24+MTQ0LzE8L3RpZmY6WVJlc29sdXRpb24+CiAgICAgICAgIDx0aWZmOk9yaWVudGF0aW9uPjE8L3RpZmY6T3JpZW50YXRpb24+CiAgICAgIDwvcmRmOkRlc2NyaXB0aW9uPgogICA8L3JkZjpSREY+CjwveDp4bXBtZXRhPgrInBAqAAAGNklEQVRoBe3aC0/cOhCG4UCXUuiFwv//fUjcWmjpDQqcPpa+yOtmEalO2aTakUZOso4z83o8ngS27u/vH7qN9AS2+6PNQSGwAdIEwqI5f/T04eGh+7XEit7d3ZW+W1tbXfTRm9f4I7uJlq3b29u9tmaNAvLz58/u69evvRpssVh0Ozs7pW0Hn8I5CCYvyta9vb1eWxtHA7m+vu4+fPhQFO1Xr151u7u7pW0Hn8K5iL69vS16c3PT7e/vdwcHByVC2M6HWv4IyPn5eXd8fFwGff36dRetB57Kscj48eNH9/3799K+ffu2QAADmFZGAUn4Ie4hL168KNFhFlrS7YPWeQ4Km0ERzZY+m4dkFBDJKGvwzZs3JW+g/O7du0HaQw987mtAyHNsN6GA8MFkDskoIKLAYMINkJcvXxYQoLx//35o/LVfE8nsTnSzOYCGjBsFpI0QYEQHGIeHh0Pjr/0aICTLJhHClyFZWEs6p0WSaHOcG799+9bZZT5//lxa4Zjc0a5JDzQb0VUhmrH/VitfeDZlE2Vz7G6fuwDDdhTlWHQISLZcrdBTl4B0dXW1NDYDklu06wKyZNQTTkqEgGH2KaIgJWrqMTgPxMXFRWnRBiOFTt1XZBgXCHu/UJ2D9BEChqUACLUcQKlFn48fPxYFRgRxNMui7us6YGqUo6Oj+qdJHy84lfwBhLXFmaEqzkzbZVLt8cx5ynf7fHTSXj9iXNllAElUAAEI5Wwt+phxu4poIZZE9PLysqPGE2FzlJURosQVCbUEHDCU1Fnb0tFHrpk1kHrZWDIiQ6JUfI0Ry+XTp0+/RdaYMdbdd7g6WbdVa3z+BkgDfwOkAbKQMyRGO4Xt07nEmGKt7i/XpGhLjaJ/xkgy1c94Sbj1GFM/XjAaCDuEROocDBVoXozihJ3Fdht13b1R5TsoxHiSMzCAzUVKhHBI3ZGtUpvj2hGAOB3lKMfdq3UPmCLENePODkgbIZyOtlDM/tnZWa/uVcjlXSZVKxAAafWZVYTUQMys8yiHapFbAEg1a/bzPVWbZZI6RnGnr35zkT6HMLiGw5EkzjhjGYACnFkHjNNR5xQAcBR2omdWQOJYDYPT0cDQghQYcdrnw2giKy0oIM4KSIyvHV91bLYJB6lznw6jq+6b0/XyPSS1hW1VBNRaO5PvIb6F+C4iAiRgyda3lFqAFlHRNh/Vfad03H8xy86SpZK2NhYQMKKiJDC89tcCgM8ENLml/n2qx0tfzDgnSkSMFpRa/A6GT4hUFIgMS0ck1CJ6jAHG2LfmepznPi4Rot7w6v7ly5el0rwFkq9hii/3WFr6cFyEOc61bL0SbrtbPbeTY5732wcis56dwXEtag2/mXGJlPN1MSaCqKXltznKEhCzLvw5rRX2tYiEwBAtRB4BTpvcIiJEzBxlCQiH1SXywdAnRLPOWUsjy0D/qHxhDEtvtkDMYtY9RzlntkWHKBkjXvqy3MbcN6W+y0liSpatyZYNkAb8BkgDpHwgkjNsn/KGHCIx2jod1yKR+o3mW4kdJupPEJJptuPsQPUYUz/uX/+TRDnHWZ8Qs7XGCdfVGXYRLWApywFVtfoNEOO5BkoLNuNNsV0CYrvlDMdVo3adWgDyzuLFTstRu0pUBGU7BgQsgGcLBABOC/u0NRCzf3p6WvTk5KQ4a2v2J88UdEAAFCCzi5CEPSeIGTWzHJIrask1UQCefsp51avWEomKNm+6QIEyF+mXDIPB4BA4HEn4xxnXs4yA1Nd/B6lq819CnE9eAWm2QAKDw1H5pJa84uvLcYDyH4ha14GiGQ80gOYi/bb7lLDmWLZd0QOIt15LQ7tKAnjV73/zOjuzxE1wdNUzR02dwQCxA0m6HgSSaJiqsFUJoa6ye7L3sQkaDQQEAwOiDQzXpygmUM3EXnAsYUDadBDb/whIIkSuMHAgZdAptWxjLzWBzv83IADINdmJOJ4ls4r4uuHUNjtOfZTIbu0bFSFgKMIk0AwITrQdfArnJkpEiAyqDFAOADMko4CIBkCQNjABBqin7FJDBjzHtSwRbaIbEH60svWr03Kx0faozkPbwJQYdGjg6rbJHLKfrSYxbWvcKCDtzf/i+XQLiDXR3gBpwG+ANED+A8I8opteDCP0AAAAAElFTkSuQmCC;movable=1;resizable=1;rotatable=1;deletable=1;editable=1;locked=0;connectable=1;container=0;" parent="jvcADhcVPLt3B4X78LWL-1" vertex="1">
          <mxGeometry x="399.99999999999994" y="246.75" width="27" height="27" as="geometry" />
        </mxCell>
        <mxCell id="QUxNRha6htBDsQ1S0EIg-3" value="Capteur RFID (PN532)&amp;nbsp;" style="html=1;whiteSpace=wrap;fontStyle=1;align=left;fillColor=#33FF33;" parent="jvcADhcVPLt3B4X78LWL-1" vertex="1">
          <mxGeometry x="270" y="300" width="170" height="52.5" as="geometry" />
        </mxCell>
        <mxCell id="QUxNRha6htBDsQ1S0EIg-4" value="" style="shape=image;verticalLabelPosition=bottom;labelBackgroundColor=default;verticalAlign=top;aspect=fixed;imageAspect=0;image=data:image/png,iVBORw0KGgoAAAANSUhEUgAAAEQAAAA8CAYAAADfYhweAAAMP2lDQ1BJQ0MgUHJvZmlsZQAASImVVwdYU8kWnltSIbQAAlJCb4KIlABSQmihdwRRCUmAUGIMBBU7uqjg2sUCNnRVRMEKiAVF7CyKvS8WFJR1sWBX3qSArvvK9+b75s5//znznzPnztx7BwD1E1yxOBfVACBPVCCJDfZnjE1OYZC6AQmQAQUYAJzLyxezoqPDASyD7d/LuxsAkbVXHWRa/+z/r0WTL8jnAYBEQ5zOz+flQXwQALySJ5YUAECU8eZTCsQyDCvQlsAAIV4ow5kKXCnD6Qq8V24TH8uGuBUAsiqXK8kEQO0y5BmFvEyoodYHsZOILxQBoM6A2CcvbxIf4jSIbaCNGGKZPjP9B53Mv2mmD2lyuZlDWDEXeSEHCPPFudxp/2c6/nfJy5UO+rCCVTVLEhIrmzPM262cSWEyrApxryg9MgpiLYg/CPlye4hRapY0JEFhjxry8tkwZ0AXYic+NyAMYkOIg0S5keFKPj1DGMSBGK4QdKqwgBMPsR7ECwX5gXFKm82SSbFKX2h9hoTNUvLnuBK5X5mvB9KcBJZS/3WWgKPUx9SKsuKTIKZCbFEoTIyEWA1ix/ycuDClzZiiLHbkoI1EGiuL3wLiWIEo2F+hjxVmSIJilfalefmD88U2Zwk5kUq8vyArPkSRH6yVx5XHD+eCXRaIWAmDOoL8seGDc+ELAgIVc8e6BaKEOKXOB3GBf6xiLE4V50Yr7XEzQW6wjDeD2CW/ME45Fk8sgAtSoY9niAui4xVx4kXZ3NBoRTz4MhAO2CAAMIAU1nQwCWQDYXtvQy+8U/QEAS6QgEwgAA5KZnBEkrxHBK9xoAj8CZEA5A+N85f3CkAh5L8OsYqrA8iQ9xbKR+SApxDngTCQC++l8lGiIW+J4AlkhP/wzoWVB+PNhVXW/+/5QfY7w4JMuJKRDnpkqA9aEgOJAcQQYhDRFjfAfXAvPBxe/WB1xpm4x+A8vtsTnhI6CI8I1wmdhNsThcWSn6KMAJ1QP0iZi/Qfc4FbQU1X3B/3hupQGdfFDYAD7gL9sHBf6NkVsmxl3LKsMH7S/tsMfngaSjuKEwWlDKP4UWx+Hqlmp+Y6pCLL9Y/5UcSaPpRv9lDPz/7ZP2SfD9uwny2xhdgB7Cx2EjuPHcUaAANrxhqxNuyYDA+trify1TXoLVYeTw7UEf7D3+CTlWUy36nGqcfpi6KvQDBV9o4G7EniaRJhZlYBgwW/CAIGR8RzHMFwdnJ2AUD2fVG8vt7EyL8biG7bd27eHwB4Nw8MDBz5zoU2A7DPHW7/w985Gyb8dKgAcO4wTyopVHC47EKAbwl1uNP0gTEwBzZwPs7ADXgBPxAIQkEUiAfJYAKMPguucwmYAmaAuaAElIFlYDVYDzaBrWAn2AP2gwZwFJwEZ8BFcBlcB3fh6ukCL0AfeAc+IwhCQmgIHdFHTBBLxB5xRpiIDxKIhCOxSDKShmQiIkSKzEDmIWXICmQ9sgWpRvYhh5GTyHmkA7mNPER6kNfIJxRDVVFt1Ai1QkeiTJSFhqHx6Hg0E52MFqHz0SXoWrQK3Y3WoyfRi+h1tBN9gfZjAFPBdDFTzAFjYmwsCkvBMjAJNgsrxcqxKqwWa4LP+SrWifViH3EiTscZuANcwSF4As7DJ+Oz8MX4enwnXo+34lfxh3gf/o1AIxgS7AmeBA5hLCGTMIVQQignbCccIpyGe6mL8I5IJOoSrYnucC8mE7OJ04mLiRuIdcQTxA7iY2I/iUTSJ9mTvElRJC6pgFRCWkfaTWomXSF1kT6QVcgmZGdyEDmFLCIXk8vJu8jHyVfIz8ifKRoUS4onJYrCp0yjLKVsozRRLlG6KJ+pmlRrqjc1nppNnUtdS62lnqbeo75RUVExU/FQiVERqsxRWauyV+WcykOVj6paqnaqbNVUVanqEtUdqidUb6u+odFoVjQ/WgqtgLaEVk07RXtA+6BGV3NU46jx1WarVajVq11Re6lOUbdUZ6lPUC9SL1c/oH5JvVeDomGlwdbgaszSqNA4rHFTo1+TrjlKM0ozT3Ox5i7N85rdWiQtK61ALb7WfK2tWqe0HtMxujmdTefR59G30U/Tu7SJ2tbaHO1s7TLtPdrt2n06WjouOok6U3UqdI7pdOpiula6HN1c3aW6+3Vv6H4aZjSMNUwwbNGw2mFXhr3XG67npyfQK9Wr07uu90mfoR+on6O/XL9B/74BbmBnEGMwxWCjwWmD3uHaw72G84aXDt8//I4hamhnGGs43XCrYZthv5GxUbCR2Gid0SmjXmNdYz/jbONVxseNe0zoJj4mQpNVJs0mzxk6DBYjl7GW0croMzU0DTGVmm4xbTf9bGZtlmBWbFZndt+cas40zzBfZd5i3mdhYhFhMcOixuKOJcWSaZllucbyrOV7K2urJKsFVg1W3dZ61hzrIusa63s2NBtfm8k2VTbXbIm2TNsc2w22l+1QO1e7LLsKu0v2qL2bvdB+g33HCMIIjxGiEVUjbjqoOrAcCh1qHB466jqGOxY7Nji+HGkxMmXk8pFnR35zcnXKddrmdHeU1qjQUcWjmka9drZz5jlXOF8bTRsdNHr26MbRr1zsXQQuG11uudJdI1wXuLa4fnVzd5O41br1uFu4p7lXut9kajOjmYuZ5zwIHv4esz2Oenz0dPMs8Nzv+ZeXg1eO1y6v7jHWYwRjto157G3mzfXe4t3pw/BJ89ns0+lr6sv1rfJ95Gfux/fb7veMZcvKZu1mvfR38pf4H/J/z/Zkz2SfCMACggNKA9oDtQITAtcHPggyC8oMqgnqC3YNnh58IoQQEhayPOQmx4jD41Rz+kLdQ2eGtoaphsWFrQ97FG4XLglvikAjQiNWRtyLtIwURTZEgShO1Mqo+9HW0ZOjj8QQY6JjKmKexo6KnRF7No4eNzFuV9y7eP/4pfF3E2wSpAktieqJqYnVie+TApJWJHWOHTl25tiLyQbJwuTGFFJKYsr2lP5xgeNWj+tKdU0tSb0x3nr81PHnJxhMyJ1wbKL6RO7EA2mEtKS0XWlfuFHcKm5/Oie9Mr2Px+at4b3g+/FX8XsE3oIVgmcZ3hkrMrozvTNXZvZk+WaVZ/UK2cL1wlfZIdmbst/nROXsyBnITcqtyyPnpeUdFmmJckStk4wnTZ3UIbYXl4g7J3tOXj25TxIm2Z6P5I/PbyzQhj/ybVIb6S/Sh4U+hRWFH6YkTjkwVXOqaGrbNLtpi6Y9Kwoq+m06Pp03vWWG6Yy5Mx7OZM3cMguZlT6rZbb57Pmzu+YEz9k5lzo3Z+7vxU7FK4rfzkua1zTfaP6c+Y9/Cf6lpkStRFJyc4HXgk0L8YXChe2LRi9at+hbKb/0QplTWXnZl8W8xRd+HfXr2l8HlmQsaV/qtnTjMuIy0bIby32X71yhuaJoxeOVESvrVzFWla56u3ri6vPlLuWb1lDXSNd0rg1f27jOYt2ydV/WZ62/XuFfUVdpWLmo8v0G/oYrG/021m4y2lS26dNm4eZbW4K31FdZVZVvJW4t3Pp0W+K2s78xf6vebrC9bPvXHaIdnTtjd7ZWu1dX7zLctbQGrZHW9OxO3X15T8CexlqH2i11unVle8Fe6d7n+9L23dgftr/lAPNA7UHLg5WH6IdK65H6afV9DVkNnY3JjR2HQw+3NHk1HTrieGTHUdOjFcd0ji09Tj0+//hAc1Fz/wnxid6TmScft0xsuXtq7KlrrTGt7afDTp87E3Tm1FnW2eZz3ueOnvc8f/gC80LDRbeL9W2ubYd+d/39ULtbe/0l90uNlz0uN3WM6Th+xffKyasBV89c41y7eD3yeseNhBu3bqbe7LzFv9V9O/f2qzuFdz7fnXOPcK/0vsb98geGD6r+sP2jrtOt89jDgIdtj+Ie3X3Me/ziSf6TL13zn9Kelj8zeVbd7dx9tCeo5/Lzcc+7XohffO4t+VPzz8qXNi8P/uX3V1vf2L6uV5JXA68Xv9F/s+Oty9uW/uj+B+/y3n1+X/pB/8POj8yPZz8lfXr2ecoX0pe1X22/Nn0L+3ZvIG9gQMyVcOW/AhisaEYGAK93AEBLBoAOz2fUcYrzn7wgijOrHIH/hBVnRHlxA6AW/r/H9MK/m5sA7N0Gj19QXz0VgGgaAPEeAB09eqgOntXk50pZIcJzwOb4r+l56eDfFMWZ84e4f26BTNUF/Nz+C9nzfEbVa0KNAAAAlmVYSWZNTQAqAAAACAAFARIAAwAAAAEAAQAAARoABQAAAAEAAABKARsABQAAAAEAAABSASgAAwAAAAEAAgAAh2kABAAAAAEAAABaAAAAAAAAAJAAAAABAAAAkAAAAAEAA5KGAAcAAAASAAAAhKACAAQAAAABAAAARKADAAQAAAABAAAAPAAAAABBU0NJSQAAAFNjcmVlbnNob3QEKSxcAAAACXBIWXMAABYlAAAWJQFJUiTwAAAC2WlUWHRYTUw6Y29tLmFkb2JlLnhtcAAAAAAAPHg6eG1wbWV0YSB4bWxuczp4PSJhZG9iZTpuczptZXRhLyIgeDp4bXB0az0iWE1QIENvcmUgNi4wLjAiPgogICA8cmRmOlJERiB4bWxuczpyZGY9Imh0dHA6Ly93d3cudzMub3JnLzE5OTkvMDIvMjItcmRmLXN5bnRheC1ucyMiPgogICAgICA8cmRmOkRlc2NyaXB0aW9uIHJkZjphYm91dD0iIgogICAgICAgICAgICB4bWxuczpleGlmPSJodHRwOi8vbnMuYWRvYmUuY29tL2V4aWYvMS4wLyIKICAgICAgICAgICAgeG1sbnM6dGlmZj0iaHR0cDovL25zLmFkb2JlLmNvbS90aWZmLzEuMC8iPgogICAgICAgICA8ZXhpZjpVc2VyQ29tbWVudD5TY3JlZW5zaG90PC9leGlmOlVzZXJDb21tZW50PgogICAgICAgICA8ZXhpZjpQaXhlbFhEaW1lbnNpb24+Njg8L2V4aWY6UGl4ZWxYRGltZW5zaW9uPgogICAgICAgICA8ZXhpZjpQaXhlbFlEaW1lbnNpb24+NjA8L2V4aWY6UGl4ZWxZRGltZW5zaW9uPgogICAgICAgICA8dGlmZjpSZXNvbHV0aW9uVW5pdD4yPC90aWZmOlJlc29sdXRpb25Vbml0PgogICAgICAgICA8dGlmZjpYUmVzb2x1dGlvbj4xNDQvMTwvdGlmZjpYUmVzb2x1dGlvbj4KICAgICAgICAgPHRpZmY6WVJlc29sdXRpb24+MTQ0LzE8L3RpZmY6WVJlc29sdXRpb24+CiAgICAgICAgIDx0aWZmOk9yaWVudGF0aW9uPjE8L3RpZmY6T3JpZW50YXRpb24+CiAgICAgIDwvcmRmOkRlc2NyaXB0aW9uPgogICA8L3JkZjpSREY+CjwveDp4bXBtZXRhPgrInBAqAAAGNklEQVRoBe3aC0/cOhCG4UCXUuiFwv//fUjcWmjpDQqcPpa+yOtmEalO2aTakUZOso4z83o8ngS27u/vH7qN9AS2+6PNQSGwAdIEwqI5f/T04eGh+7XEit7d3ZW+W1tbXfTRm9f4I7uJlq3b29u9tmaNAvLz58/u69evvRpssVh0Ozs7pW0Hn8I5CCYvyta9vb1eWxtHA7m+vu4+fPhQFO1Xr151u7u7pW0Hn8K5iL69vS16c3PT7e/vdwcHByVC2M6HWv4IyPn5eXd8fFwGff36dRetB57Kscj48eNH9/3799K+ffu2QAADmFZGAUn4Ie4hL168KNFhFlrS7YPWeQ4Km0ERzZY+m4dkFBDJKGvwzZs3JW+g/O7du0HaQw987mtAyHNsN6GA8MFkDskoIKLAYMINkJcvXxYQoLx//35o/LVfE8nsTnSzOYCGjBsFpI0QYEQHGIeHh0Pjr/0aICTLJhHClyFZWEs6p0WSaHOcG799+9bZZT5//lxa4Zjc0a5JDzQb0VUhmrH/VitfeDZlE2Vz7G6fuwDDdhTlWHQISLZcrdBTl4B0dXW1NDYDklu06wKyZNQTTkqEgGH2KaIgJWrqMTgPxMXFRWnRBiOFTt1XZBgXCHu/UJ2D9BEChqUACLUcQKlFn48fPxYFRgRxNMui7us6YGqUo6Oj+qdJHy84lfwBhLXFmaEqzkzbZVLt8cx5ynf7fHTSXj9iXNllAElUAAEI5Wwt+phxu4poIZZE9PLysqPGE2FzlJURosQVCbUEHDCU1Fnb0tFHrpk1kHrZWDIiQ6JUfI0Ry+XTp0+/RdaYMdbdd7g6WbdVa3z+BkgDfwOkAbKQMyRGO4Xt07nEmGKt7i/XpGhLjaJ/xkgy1c94Sbj1GFM/XjAaCDuEROocDBVoXozihJ3Fdht13b1R5TsoxHiSMzCAzUVKhHBI3ZGtUpvj2hGAOB3lKMfdq3UPmCLENePODkgbIZyOtlDM/tnZWa/uVcjlXSZVKxAAafWZVYTUQMys8yiHapFbAEg1a/bzPVWbZZI6RnGnr35zkT6HMLiGw5EkzjhjGYACnFkHjNNR5xQAcBR2omdWQOJYDYPT0cDQghQYcdrnw2giKy0oIM4KSIyvHV91bLYJB6lznw6jq+6b0/XyPSS1hW1VBNRaO5PvIb6F+C4iAiRgyda3lFqAFlHRNh/Vfad03H8xy86SpZK2NhYQMKKiJDC89tcCgM8ENLml/n2qx0tfzDgnSkSMFpRa/A6GT4hUFIgMS0ck1CJ6jAHG2LfmepznPi4Rot7w6v7ly5el0rwFkq9hii/3WFr6cFyEOc61bL0SbrtbPbeTY5732wcis56dwXEtag2/mXGJlPN1MSaCqKXltznKEhCzLvw5rRX2tYiEwBAtRB4BTpvcIiJEzBxlCQiH1SXywdAnRLPOWUsjy0D/qHxhDEtvtkDMYtY9RzlntkWHKBkjXvqy3MbcN6W+y0liSpatyZYNkAb8BkgDpHwgkjNsn/KGHCIx2jod1yKR+o3mW4kdJupPEJJptuPsQPUYUz/uX/+TRDnHWZ8Qs7XGCdfVGXYRLWApywFVtfoNEOO5BkoLNuNNsV0CYrvlDMdVo3adWgDyzuLFTstRu0pUBGU7BgQsgGcLBABOC/u0NRCzf3p6WvTk5KQ4a2v2J88UdEAAFCCzi5CEPSeIGTWzHJIrask1UQCefsp51avWEomKNm+6QIEyF+mXDIPB4BA4HEn4xxnXs4yA1Nd/B6lq819CnE9eAWm2QAKDw1H5pJa84uvLcYDyH4ha14GiGQ80gOYi/bb7lLDmWLZd0QOIt15LQ7tKAnjV73/zOjuzxE1wdNUzR02dwQCxA0m6HgSSaJiqsFUJoa6ye7L3sQkaDQQEAwOiDQzXpygmUM3EXnAsYUDadBDb/whIIkSuMHAgZdAptWxjLzWBzv83IADINdmJOJ4ls4r4uuHUNjtOfZTIbu0bFSFgKMIk0AwITrQdfArnJkpEiAyqDFAOADMko4CIBkCQNjABBqin7FJDBjzHtSwRbaIbEH60svWr03Kx0faozkPbwJQYdGjg6rbJHLKfrSYxbWvcKCDtzf/i+XQLiDXR3gBpwG+ANED+A8I8opteDCP0AAAAAElFTkSuQmCC;movable=1;resizable=1;rotatable=1;deletable=1;editable=1;locked=0;connectable=1;container=0;" parent="jvcADhcVPLt3B4X78LWL-1" vertex="1">
          <mxGeometry x="399.99999999999994" y="312.75" width="27" height="27" as="geometry" />
        </mxCell>
        <mxCell id="QUxNRha6htBDsQ1S0EIg-6" style="edgeStyle=orthogonalEdgeStyle;rounded=0;orthogonalLoop=1;jettySize=auto;html=1;exitX=0;exitY=0;exitDx=38.375;exitDy=0;exitPerimeter=0;entryX=0.476;entryY=1;entryDx=0;entryDy=0;entryPerimeter=0;" parent="jvcADhcVPLt3B4X78LWL-1" source="jvcADhcVPLt3B4X78LWL-29" target="jvcADhcVPLt3B4X78LWL-25" edge="1">
          <mxGeometry relative="1" as="geometry" />
        </mxCell>
        <mxCell id="QUxNRha6htBDsQ1S0EIg-14" style="edgeStyle=orthogonalEdgeStyle;rounded=0;orthogonalLoop=1;jettySize=auto;html=1;exitX=0;exitY=0.75;exitDx=0;exitDy=0;entryX=0;entryY=0.75;entryDx=0;entryDy=0;" parent="jvcADhcVPLt3B4X78LWL-1" source="QUxNRha6htBDsQ1S0EIg-9" target="jvcADhcVPLt3B4X78LWL-53" edge="1">
          <mxGeometry relative="1" as="geometry">
            <Array as="points">
              <mxPoint x="1000" y="360" />
              <mxPoint x="1000" y="250" />
            </Array>
          </mxGeometry>
        </mxCell>
        <mxCell id="QUxNRha6htBDsQ1S0EIg-9" value="&lt;span style=&quot;text-wrap: nowrap;&quot;&gt;&lt;font style=&quot;font-size: 12px;&quot;&gt;Script Python&lt;/font&gt;&lt;/span&gt;&lt;div&gt;&lt;span style=&quot;text-wrap: nowrap;&quot;&gt;&lt;font style=&quot;font-size: 12px;&quot;&gt;(Deamon)&lt;/font&gt;&lt;/span&gt;&lt;/div&gt;" style="html=1;whiteSpace=wrap;fontStyle=1;align=left;fontSize=12;" parent="jvcADhcVPLt3B4X78LWL-1" vertex="1">
          <mxGeometry x="1069.95" y="330" width="112.67" height="40" as="geometry" />
        </mxCell>
        <mxCell id="QUxNRha6htBDsQ1S0EIg-12" style="edgeStyle=orthogonalEdgeStyle;rounded=0;orthogonalLoop=1;jettySize=auto;html=1;entryX=1;entryY=0.5;entryDx=0;entryDy=0;jumpStyle=arc;jumpSize=14;" parent="jvcADhcVPLt3B4X78LWL-1" target="jvcADhcVPLt3B4X78LWL-51" edge="1">
          <mxGeometry relative="1" as="geometry">
            <Array as="points">
              <mxPoint x="1250" y="350" />
              <mxPoint x="1250" y="190" />
            </Array>
            <mxPoint x="1183" y="350" as="sourcePoint" />
          </mxGeometry>
        </mxCell>
        <mxCell id="QUxNRha6htBDsQ1S0EIg-10" value="" style="shape=image;verticalLabelPosition=bottom;labelBackgroundColor=default;verticalAlign=top;aspect=fixed;imageAspect=0;image=data:image/png,iVBORw0KGgoAAAANSUhEUgAAAEQAAAA8CAYAAADfYhweAAAMP2lDQ1BJQ0MgUHJvZmlsZQAASImVVwdYU8kWnltSIbQAAlJCb4KIlABSQmihdwRRCUmAUGIMBBU7uqjg2sUCNnRVRMEKiAVF7CyKvS8WFJR1sWBX3qSArvvK9+b75s5//znznzPnztx7BwD1E1yxOBfVACBPVCCJDfZnjE1OYZC6AQmQAQUYAJzLyxezoqPDASyD7d/LuxsAkbVXHWRa/+z/r0WTL8jnAYBEQ5zOz+flQXwQALySJ5YUAECU8eZTCsQyDCvQlsAAIV4ow5kKXCnD6Qq8V24TH8uGuBUAsiqXK8kEQO0y5BmFvEyoodYHsZOILxQBoM6A2CcvbxIf4jSIbaCNGGKZPjP9B53Mv2mmD2lyuZlDWDEXeSEHCPPFudxp/2c6/nfJy5UO+rCCVTVLEhIrmzPM262cSWEyrApxryg9MgpiLYg/CPlye4hRapY0JEFhjxry8tkwZ0AXYic+NyAMYkOIg0S5keFKPj1DGMSBGK4QdKqwgBMPsR7ECwX5gXFKm82SSbFKX2h9hoTNUvLnuBK5X5mvB9KcBJZS/3WWgKPUx9SKsuKTIKZCbFEoTIyEWA1ix/ycuDClzZiiLHbkoI1EGiuL3wLiWIEo2F+hjxVmSIJilfalefmD88U2Zwk5kUq8vyArPkSRH6yVx5XHD+eCXRaIWAmDOoL8seGDc+ELAgIVc8e6BaKEOKXOB3GBf6xiLE4V50Yr7XEzQW6wjDeD2CW/ME45Fk8sgAtSoY9niAui4xVx4kXZ3NBoRTz4MhAO2CAAMIAU1nQwCWQDYXtvQy+8U/QEAS6QgEwgAA5KZnBEkrxHBK9xoAj8CZEA5A+N85f3CkAh5L8OsYqrA8iQ9xbKR+SApxDngTCQC++l8lGiIW+J4AlkhP/wzoWVB+PNhVXW/+/5QfY7w4JMuJKRDnpkqA9aEgOJAcQQYhDRFjfAfXAvPBxe/WB1xpm4x+A8vtsTnhI6CI8I1wmdhNsThcWSn6KMAJ1QP0iZi/Qfc4FbQU1X3B/3hupQGdfFDYAD7gL9sHBf6NkVsmxl3LKsMH7S/tsMfngaSjuKEwWlDKP4UWx+Hqlmp+Y6pCLL9Y/5UcSaPpRv9lDPz/7ZP2SfD9uwny2xhdgB7Cx2EjuPHcUaAANrxhqxNuyYDA+trify1TXoLVYeTw7UEf7D3+CTlWUy36nGqcfpi6KvQDBV9o4G7EniaRJhZlYBgwW/CAIGR8RzHMFwdnJ2AUD2fVG8vt7EyL8biG7bd27eHwB4Nw8MDBz5zoU2A7DPHW7/w985Gyb8dKgAcO4wTyopVHC47EKAbwl1uNP0gTEwBzZwPs7ADXgBPxAIQkEUiAfJYAKMPguucwmYAmaAuaAElIFlYDVYDzaBrWAn2AP2gwZwFJwEZ8BFcBlcB3fh6ukCL0AfeAc+IwhCQmgIHdFHTBBLxB5xRpiIDxKIhCOxSDKShmQiIkSKzEDmIWXICmQ9sgWpRvYhh5GTyHmkA7mNPER6kNfIJxRDVVFt1Ai1QkeiTJSFhqHx6Hg0E52MFqHz0SXoWrQK3Y3WoyfRi+h1tBN9gfZjAFPBdDFTzAFjYmwsCkvBMjAJNgsrxcqxKqwWa4LP+SrWifViH3EiTscZuANcwSF4As7DJ+Oz8MX4enwnXo+34lfxh3gf/o1AIxgS7AmeBA5hLCGTMIVQQignbCccIpyGe6mL8I5IJOoSrYnucC8mE7OJ04mLiRuIdcQTxA7iY2I/iUTSJ9mTvElRJC6pgFRCWkfaTWomXSF1kT6QVcgmZGdyEDmFLCIXk8vJu8jHyVfIz8ifKRoUS4onJYrCp0yjLKVsozRRLlG6KJ+pmlRrqjc1nppNnUtdS62lnqbeo75RUVExU/FQiVERqsxRWauyV+WcykOVj6paqnaqbNVUVanqEtUdqidUb6u+odFoVjQ/WgqtgLaEVk07RXtA+6BGV3NU46jx1WarVajVq11Re6lOUbdUZ6lPUC9SL1c/oH5JvVeDomGlwdbgaszSqNA4rHFTo1+TrjlKM0ozT3Ox5i7N85rdWiQtK61ALb7WfK2tWqe0HtMxujmdTefR59G30U/Tu7SJ2tbaHO1s7TLtPdrt2n06WjouOok6U3UqdI7pdOpiula6HN1c3aW6+3Vv6H4aZjSMNUwwbNGw2mFXhr3XG67npyfQK9Wr07uu90mfoR+on6O/XL9B/74BbmBnEGMwxWCjwWmD3uHaw72G84aXDt8//I4hamhnGGs43XCrYZthv5GxUbCR2Gid0SmjXmNdYz/jbONVxseNe0zoJj4mQpNVJs0mzxk6DBYjl7GW0croMzU0DTGVmm4xbTf9bGZtlmBWbFZndt+cas40zzBfZd5i3mdhYhFhMcOixuKOJcWSaZllucbyrOV7K2urJKsFVg1W3dZ61hzrIusa63s2NBtfm8k2VTbXbIm2TNsc2w22l+1QO1e7LLsKu0v2qL2bvdB+g33HCMIIjxGiEVUjbjqoOrAcCh1qHB466jqGOxY7Nji+HGkxMmXk8pFnR35zcnXKddrmdHeU1qjQUcWjmka9drZz5jlXOF8bTRsdNHr26MbRr1zsXQQuG11uudJdI1wXuLa4fnVzd5O41br1uFu4p7lXut9kajOjmYuZ5zwIHv4esz2Oenz0dPMs8Nzv+ZeXg1eO1y6v7jHWYwRjto157G3mzfXe4t3pw/BJ89ns0+lr6sv1rfJ95Gfux/fb7veMZcvKZu1mvfR38pf4H/J/z/Zkz2SfCMACggNKA9oDtQITAtcHPggyC8oMqgnqC3YNnh58IoQQEhayPOQmx4jD41Rz+kLdQ2eGtoaphsWFrQ97FG4XLglvikAjQiNWRtyLtIwURTZEgShO1Mqo+9HW0ZOjj8QQY6JjKmKexo6KnRF7No4eNzFuV9y7eP/4pfF3E2wSpAktieqJqYnVie+TApJWJHWOHTl25tiLyQbJwuTGFFJKYsr2lP5xgeNWj+tKdU0tSb0x3nr81PHnJxhMyJ1wbKL6RO7EA2mEtKS0XWlfuFHcKm5/Oie9Mr2Px+at4b3g+/FX8XsE3oIVgmcZ3hkrMrozvTNXZvZk+WaVZ/UK2cL1wlfZIdmbst/nROXsyBnITcqtyyPnpeUdFmmJckStk4wnTZ3UIbYXl4g7J3tOXj25TxIm2Z6P5I/PbyzQhj/ybVIb6S/Sh4U+hRWFH6YkTjkwVXOqaGrbNLtpi6Y9Kwoq+m06Pp03vWWG6Yy5Mx7OZM3cMguZlT6rZbb57Pmzu+YEz9k5lzo3Z+7vxU7FK4rfzkua1zTfaP6c+Y9/Cf6lpkStRFJyc4HXgk0L8YXChe2LRi9at+hbKb/0QplTWXnZl8W8xRd+HfXr2l8HlmQsaV/qtnTjMuIy0bIby32X71yhuaJoxeOVESvrVzFWla56u3ri6vPlLuWb1lDXSNd0rg1f27jOYt2ydV/WZ62/XuFfUVdpWLmo8v0G/oYrG/021m4y2lS26dNm4eZbW4K31FdZVZVvJW4t3Pp0W+K2s78xf6vebrC9bPvXHaIdnTtjd7ZWu1dX7zLctbQGrZHW9OxO3X15T8CexlqH2i11unVle8Fe6d7n+9L23dgftr/lAPNA7UHLg5WH6IdK65H6afV9DVkNnY3JjR2HQw+3NHk1HTrieGTHUdOjFcd0ji09Tj0+//hAc1Fz/wnxid6TmScft0xsuXtq7KlrrTGt7afDTp87E3Tm1FnW2eZz3ueOnvc8f/gC80LDRbeL9W2ubYd+d/39ULtbe/0l90uNlz0uN3WM6Th+xffKyasBV89c41y7eD3yeseNhBu3bqbe7LzFv9V9O/f2qzuFdz7fnXOPcK/0vsb98geGD6r+sP2jrtOt89jDgIdtj+Ie3X3Me/ziSf6TL13zn9Kelj8zeVbd7dx9tCeo5/Lzcc+7XohffO4t+VPzz8qXNi8P/uX3V1vf2L6uV5JXA68Xv9F/s+Oty9uW/uj+B+/y3n1+X/pB/8POj8yPZz8lfXr2ecoX0pe1X22/Nn0L+3ZvIG9gQMyVcOW/AhisaEYGAK93AEBLBoAOz2fUcYrzn7wgijOrHIH/hBVnRHlxA6AW/r/H9MK/m5sA7N0Gj19QXz0VgGgaAPEeAB09eqgOntXk50pZIcJzwOb4r+l56eDfFMWZ84e4f26BTNUF/Nz+C9nzfEbVa0KNAAAAlmVYSWZNTQAqAAAACAAFARIAAwAAAAEAAQAAARoABQAAAAEAAABKARsABQAAAAEAAABSASgAAwAAAAEAAgAAh2kABAAAAAEAAABaAAAAAAAAAJAAAAABAAAAkAAAAAEAA5KGAAcAAAASAAAAhKACAAQAAAABAAAARKADAAQAAAABAAAAPAAAAABBU0NJSQAAAFNjcmVlbnNob3QEKSxcAAAACXBIWXMAABYlAAAWJQFJUiTwAAAC2WlUWHRYTUw6Y29tLmFkb2JlLnhtcAAAAAAAPHg6eG1wbWV0YSB4bWxuczp4PSJhZG9iZTpuczptZXRhLyIgeDp4bXB0az0iWE1QIENvcmUgNi4wLjAiPgogICA8cmRmOlJERiB4bWxuczpyZGY9Imh0dHA6Ly93d3cudzMub3JnLzE5OTkvMDIvMjItcmRmLXN5bnRheC1ucyMiPgogICAgICA8cmRmOkRlc2NyaXB0aW9uIHJkZjphYm91dD0iIgogICAgICAgICAgICB4bWxuczpleGlmPSJodHRwOi8vbnMuYWRvYmUuY29tL2V4aWYvMS4wLyIKICAgICAgICAgICAgeG1sbnM6dGlmZj0iaHR0cDovL25zLmFkb2JlLmNvbS90aWZmLzEuMC8iPgogICAgICAgICA8ZXhpZjpVc2VyQ29tbWVudD5TY3JlZW5zaG90PC9leGlmOlVzZXJDb21tZW50PgogICAgICAgICA8ZXhpZjpQaXhlbFhEaW1lbnNpb24+Njg8L2V4aWY6UGl4ZWxYRGltZW5zaW9uPgogICAgICAgICA8ZXhpZjpQaXhlbFlEaW1lbnNpb24+NjA8L2V4aWY6UGl4ZWxZRGltZW5zaW9uPgogICAgICAgICA8dGlmZjpSZXNvbHV0aW9uVW5pdD4yPC90aWZmOlJlc29sdXRpb25Vbml0PgogICAgICAgICA8dGlmZjpYUmVzb2x1dGlvbj4xNDQvMTwvdGlmZjpYUmVzb2x1dGlvbj4KICAgICAgICAgPHRpZmY6WVJlc29sdXRpb24+MTQ0LzE8L3RpZmY6WVJlc29sdXRpb24+CiAgICAgICAgIDx0aWZmOk9yaWVudGF0aW9uPjE8L3RpZmY6T3JpZW50YXRpb24+CiAgICAgIDwvcmRmOkRlc2NyaXB0aW9uPgogICA8L3JkZjpSREY+CjwveDp4bXBtZXRhPgrInBAqAAAGNklEQVRoBe3aC0/cOhCG4UCXUuiFwv//fUjcWmjpDQqcPpa+yOtmEalO2aTakUZOso4z83o8ngS27u/vH7qN9AS2+6PNQSGwAdIEwqI5f/T04eGh+7XEit7d3ZW+W1tbXfTRm9f4I7uJlq3b29u9tmaNAvLz58/u69evvRpssVh0Ozs7pW0Hn8I5CCYvyta9vb1eWxtHA7m+vu4+fPhQFO1Xr151u7u7pW0Hn8K5iL69vS16c3PT7e/vdwcHByVC2M6HWv4IyPn5eXd8fFwGff36dRetB57Kscj48eNH9/3799K+ffu2QAADmFZGAUn4Ie4hL168KNFhFlrS7YPWeQ4Km0ERzZY+m4dkFBDJKGvwzZs3JW+g/O7du0HaQw987mtAyHNsN6GA8MFkDskoIKLAYMINkJcvXxYQoLx//35o/LVfE8nsTnSzOYCGjBsFpI0QYEQHGIeHh0Pjr/0aICTLJhHClyFZWEs6p0WSaHOcG799+9bZZT5//lxa4Zjc0a5JDzQb0VUhmrH/VitfeDZlE2Vz7G6fuwDDdhTlWHQISLZcrdBTl4B0dXW1NDYDklu06wKyZNQTTkqEgGH2KaIgJWrqMTgPxMXFRWnRBiOFTt1XZBgXCHu/UJ2D9BEChqUACLUcQKlFn48fPxYFRgRxNMui7us6YGqUo6Oj+qdJHy84lfwBhLXFmaEqzkzbZVLt8cx5ynf7fHTSXj9iXNllAElUAAEI5Wwt+phxu4poIZZE9PLysqPGE2FzlJURosQVCbUEHDCU1Fnb0tFHrpk1kHrZWDIiQ6JUfI0Ry+XTp0+/RdaYMdbdd7g6WbdVa3z+BkgDfwOkAbKQMyRGO4Xt07nEmGKt7i/XpGhLjaJ/xkgy1c94Sbj1GFM/XjAaCDuEROocDBVoXozihJ3Fdht13b1R5TsoxHiSMzCAzUVKhHBI3ZGtUpvj2hGAOB3lKMfdq3UPmCLENePODkgbIZyOtlDM/tnZWa/uVcjlXSZVKxAAafWZVYTUQMys8yiHapFbAEg1a/bzPVWbZZI6RnGnr35zkT6HMLiGw5EkzjhjGYACnFkHjNNR5xQAcBR2omdWQOJYDYPT0cDQghQYcdrnw2giKy0oIM4KSIyvHV91bLYJB6lznw6jq+6b0/XyPSS1hW1VBNRaO5PvIb6F+C4iAiRgyda3lFqAFlHRNh/Vfad03H8xy86SpZK2NhYQMKKiJDC89tcCgM8ENLml/n2qx0tfzDgnSkSMFpRa/A6GT4hUFIgMS0ck1CJ6jAHG2LfmepznPi4Rot7w6v7ly5el0rwFkq9hii/3WFr6cFyEOc61bL0SbrtbPbeTY5732wcis56dwXEtag2/mXGJlPN1MSaCqKXltznKEhCzLvw5rRX2tYiEwBAtRB4BTpvcIiJEzBxlCQiH1SXywdAnRLPOWUsjy0D/qHxhDEtvtkDMYtY9RzlntkWHKBkjXvqy3MbcN6W+y0liSpatyZYNkAb8BkgDpHwgkjNsn/KGHCIx2jod1yKR+o3mW4kdJupPEJJptuPsQPUYUz/uX/+TRDnHWZ8Qs7XGCdfVGXYRLWApywFVtfoNEOO5BkoLNuNNsV0CYrvlDMdVo3adWgDyzuLFTstRu0pUBGU7BgQsgGcLBABOC/u0NRCzf3p6WvTk5KQ4a2v2J88UdEAAFCCzi5CEPSeIGTWzHJIrask1UQCefsp51avWEomKNm+6QIEyF+mXDIPB4BA4HEn4xxnXs4yA1Nd/B6lq819CnE9eAWm2QAKDw1H5pJa84uvLcYDyH4ha14GiGQ80gOYi/bb7lLDmWLZd0QOIt15LQ7tKAnjV73/zOjuzxE1wdNUzR02dwQCxA0m6HgSSaJiqsFUJoa6ye7L3sQkaDQQEAwOiDQzXpygmUM3EXnAsYUDadBDb/whIIkSuMHAgZdAptWxjLzWBzv83IADINdmJOJ4ls4r4uuHUNjtOfZTIbu0bFSFgKMIk0AwITrQdfArnJkpEiAyqDFAOADMko4CIBkCQNjABBqin7FJDBjzHtSwRbaIbEH60svWr03Kx0faozkPbwJQYdGjg6rbJHLKfrSYxbWvcKCDtzf/i+XQLiDXR3gBpwG+ANED+A8I8opteDCP0AAAAAElFTkSuQmCC;movable=1;resizable=1;rotatable=1;deletable=1;editable=1;locked=0;connectable=1;container=0;" parent="jvcADhcVPLt3B4X78LWL-1" vertex="1">
          <mxGeometry x="1150.29" y="336.5" width="27" height="27" as="geometry" />
        </mxCell>
        <mxCell id="stSaYYKcVWD6naMzTqCq-1" value="&lt;span style=&quot;font-size: 15px;&quot;&gt;&lt;b&gt;Securisation&lt;/b&gt;&lt;/span&gt;" style="verticalAlign=top;align=center;spacingTop=8;spacingLeft=2;spacingRight=12;shape=cube;size=10;direction=south;fontStyle=4;html=1;whiteSpace=wrap;fillColor=#d5e8d4;strokeColor=#82b366;" parent="jvcADhcVPLt3B4X78LWL-1" vertex="1">
          <mxGeometry x="200" y="436.5" width="150" height="276.5" as="geometry" />
        </mxCell>
        <mxCell id="stSaYYKcVWD6naMzTqCq-30" style="edgeStyle=orthogonalEdgeStyle;rounded=0;orthogonalLoop=1;jettySize=auto;html=1;exitX=1;exitY=0.5;exitDx=0;exitDy=0;entryX=0;entryY=0.5;entryDx=0;entryDy=0;jumpStyle=arc;jumpSize=14;" parent="jvcADhcVPLt3B4X78LWL-1" source="stSaYYKcVWD6naMzTqCq-2" target="jvcADhcVPLt3B4X78LWL-51" edge="1">
          <mxGeometry relative="1" as="geometry">
            <Array as="points">
              <mxPoint x="540" y="510" />
              <mxPoint x="540" y="190" />
            </Array>
          </mxGeometry>
        </mxCell>
        <mxCell id="stSaYYKcVWD6naMzTqCq-2" value="SSL/TLS" style="html=1;whiteSpace=wrap;fontStyle=1;align=left;fillColor=#33FF33;" parent="jvcADhcVPLt3B4X78LWL-1" vertex="1">
          <mxGeometry x="218.65999999999997" y="489.87" width="112.67" height="40" as="geometry" />
        </mxCell>
        <mxCell id="stSaYYKcVWD6naMzTqCq-3" value="SSH" style="html=1;whiteSpace=wrap;fontStyle=1;align=left;fillColor=#33FF33;" parent="jvcADhcVPLt3B4X78LWL-1" vertex="1">
          <mxGeometry x="218.65999999999997" y="545.75" width="112.67" height="40" as="geometry" />
        </mxCell>
        <mxCell id="stSaYYKcVWD6naMzTqCq-4" value="PareFeu UFW" style="html=1;whiteSpace=wrap;fontStyle=1;align=left;fillColor=#FF8000;" parent="jvcADhcVPLt3B4X78LWL-1" vertex="1">
          <mxGeometry x="218.65999999999997" y="599" width="112.67" height="40" as="geometry" />
        </mxCell>
        <mxCell id="stSaYYKcVWD6naMzTqCq-5" value="" style="shape=image;verticalLabelPosition=bottom;labelBackgroundColor=default;verticalAlign=top;aspect=fixed;imageAspect=0;image=data:image/png,iVBORw0KGgoAAAANSUhEUgAAAEQAAAA8CAYAAADfYhweAAAMP2lDQ1BJQ0MgUHJvZmlsZQAASImVVwdYU8kWnltSIbQAAlJCb4KIlABSQmihdwRRCUmAUGIMBBU7uqjg2sUCNnRVRMEKiAVF7CyKvS8WFJR1sWBX3qSArvvK9+b75s5//znznzPnztx7BwD1E1yxOBfVACBPVCCJDfZnjE1OYZC6AQmQAQUYAJzLyxezoqPDASyD7d/LuxsAkbVXHWRa/+z/r0WTL8jnAYBEQ5zOz+flQXwQALySJ5YUAECU8eZTCsQyDCvQlsAAIV4ow5kKXCnD6Qq8V24TH8uGuBUAsiqXK8kEQO0y5BmFvEyoodYHsZOILxQBoM6A2CcvbxIf4jSIbaCNGGKZPjP9B53Mv2mmD2lyuZlDWDEXeSEHCPPFudxp/2c6/nfJy5UO+rCCVTVLEhIrmzPM262cSWEyrApxryg9MgpiLYg/CPlye4hRapY0JEFhjxry8tkwZ0AXYic+NyAMYkOIg0S5keFKPj1DGMSBGK4QdKqwgBMPsR7ECwX5gXFKm82SSbFKX2h9hoTNUvLnuBK5X5mvB9KcBJZS/3WWgKPUx9SKsuKTIKZCbFEoTIyEWA1ix/ycuDClzZiiLHbkoI1EGiuL3wLiWIEo2F+hjxVmSIJilfalefmD88U2Zwk5kUq8vyArPkSRH6yVx5XHD+eCXRaIWAmDOoL8seGDc+ELAgIVc8e6BaKEOKXOB3GBf6xiLE4V50Yr7XEzQW6wjDeD2CW/ME45Fk8sgAtSoY9niAui4xVx4kXZ3NBoRTz4MhAO2CAAMIAU1nQwCWQDYXtvQy+8U/QEAS6QgEwgAA5KZnBEkrxHBK9xoAj8CZEA5A+N85f3CkAh5L8OsYqrA8iQ9xbKR+SApxDngTCQC++l8lGiIW+J4AlkhP/wzoWVB+PNhVXW/+/5QfY7w4JMuJKRDnpkqA9aEgOJAcQQYhDRFjfAfXAvPBxe/WB1xpm4x+A8vtsTnhI6CI8I1wmdhNsThcWSn6KMAJ1QP0iZi/Qfc4FbQU1X3B/3hupQGdfFDYAD7gL9sHBf6NkVsmxl3LKsMH7S/tsMfngaSjuKEwWlDKP4UWx+Hqlmp+Y6pCLL9Y/5UcSaPpRv9lDPz/7ZP2SfD9uwny2xhdgB7Cx2EjuPHcUaAANrxhqxNuyYDA+trify1TXoLVYeTw7UEf7D3+CTlWUy36nGqcfpi6KvQDBV9o4G7EniaRJhZlYBgwW/CAIGR8RzHMFwdnJ2AUD2fVG8vt7EyL8biG7bd27eHwB4Nw8MDBz5zoU2A7DPHW7/w985Gyb8dKgAcO4wTyopVHC47EKAbwl1uNP0gTEwBzZwPs7ADXgBPxAIQkEUiAfJYAKMPguucwmYAmaAuaAElIFlYDVYDzaBrWAn2AP2gwZwFJwEZ8BFcBlcB3fh6ukCL0AfeAc+IwhCQmgIHdFHTBBLxB5xRpiIDxKIhCOxSDKShmQiIkSKzEDmIWXICmQ9sgWpRvYhh5GTyHmkA7mNPER6kNfIJxRDVVFt1Ai1QkeiTJSFhqHx6Hg0E52MFqHz0SXoWrQK3Y3WoyfRi+h1tBN9gfZjAFPBdDFTzAFjYmwsCkvBMjAJNgsrxcqxKqwWa4LP+SrWifViH3EiTscZuANcwSF4As7DJ+Oz8MX4enwnXo+34lfxh3gf/o1AIxgS7AmeBA5hLCGTMIVQQignbCccIpyGe6mL8I5IJOoSrYnucC8mE7OJ04mLiRuIdcQTxA7iY2I/iUTSJ9mTvElRJC6pgFRCWkfaTWomXSF1kT6QVcgmZGdyEDmFLCIXk8vJu8jHyVfIz8ifKRoUS4onJYrCp0yjLKVsozRRLlG6KJ+pmlRrqjc1nppNnUtdS62lnqbeo75RUVExU/FQiVERqsxRWauyV+WcykOVj6paqnaqbNVUVanqEtUdqidUb6u+odFoVjQ/WgqtgLaEVk07RXtA+6BGV3NU46jx1WarVajVq11Re6lOUbdUZ6lPUC9SL1c/oH5JvVeDomGlwdbgaszSqNA4rHFTo1+TrjlKM0ozT3Ox5i7N85rdWiQtK61ALb7WfK2tWqe0HtMxujmdTefR59G30U/Tu7SJ2tbaHO1s7TLtPdrt2n06WjouOok6U3UqdI7pdOpiula6HN1c3aW6+3Vv6H4aZjSMNUwwbNGw2mFXhr3XG67npyfQK9Wr07uu90mfoR+on6O/XL9B/74BbmBnEGMwxWCjwWmD3uHaw72G84aXDt8//I4hamhnGGs43XCrYZthv5GxUbCR2Gid0SmjXmNdYz/jbONVxseNe0zoJj4mQpNVJs0mzxk6DBYjl7GW0croMzU0DTGVmm4xbTf9bGZtlmBWbFZndt+cas40zzBfZd5i3mdhYhFhMcOixuKOJcWSaZllucbyrOV7K2urJKsFVg1W3dZ61hzrIusa63s2NBtfm8k2VTbXbIm2TNsc2w22l+1QO1e7LLsKu0v2qL2bvdB+g33HCMIIjxGiEVUjbjqoOrAcCh1qHB466jqGOxY7Nji+HGkxMmXk8pFnR35zcnXKddrmdHeU1qjQUcWjmka9drZz5jlXOF8bTRsdNHr26MbRr1zsXQQuG11uudJdI1wXuLa4fnVzd5O41br1uFu4p7lXut9kajOjmYuZ5zwIHv4esz2Oenz0dPMs8Nzv+ZeXg1eO1y6v7jHWYwRjto157G3mzfXe4t3pw/BJ89ns0+lr6sv1rfJ95Gfux/fb7veMZcvKZu1mvfR38pf4H/J/z/Zkz2SfCMACggNKA9oDtQITAtcHPggyC8oMqgnqC3YNnh58IoQQEhayPOQmx4jD41Rz+kLdQ2eGtoaphsWFrQ97FG4XLglvikAjQiNWRtyLtIwURTZEgShO1Mqo+9HW0ZOjj8QQY6JjKmKexo6KnRF7No4eNzFuV9y7eP/4pfF3E2wSpAktieqJqYnVie+TApJWJHWOHTl25tiLyQbJwuTGFFJKYsr2lP5xgeNWj+tKdU0tSb0x3nr81PHnJxhMyJ1wbKL6RO7EA2mEtKS0XWlfuFHcKm5/Oie9Mr2Px+at4b3g+/FX8XsE3oIVgmcZ3hkrMrozvTNXZvZk+WaVZ/UK2cL1wlfZIdmbst/nROXsyBnITcqtyyPnpeUdFmmJckStk4wnTZ3UIbYXl4g7J3tOXj25TxIm2Z6P5I/PbyzQhj/ybVIb6S/Sh4U+hRWFH6YkTjkwVXOqaGrbNLtpi6Y9Kwoq+m06Pp03vWWG6Yy5Mx7OZM3cMguZlT6rZbb57Pmzu+YEz9k5lzo3Z+7vxU7FK4rfzkua1zTfaP6c+Y9/Cf6lpkStRFJyc4HXgk0L8YXChe2LRi9at+hbKb/0QplTWXnZl8W8xRd+HfXr2l8HlmQsaV/qtnTjMuIy0bIby32X71yhuaJoxeOVESvrVzFWla56u3ri6vPlLuWb1lDXSNd0rg1f27jOYt2ydV/WZ62/XuFfUVdpWLmo8v0G/oYrG/021m4y2lS26dNm4eZbW4K31FdZVZVvJW4t3Pp0W+K2s78xf6vebrC9bPvXHaIdnTtjd7ZWu1dX7zLctbQGrZHW9OxO3X15T8CexlqH2i11unVle8Fe6d7n+9L23dgftr/lAPNA7UHLg5WH6IdK65H6afV9DVkNnY3JjR2HQw+3NHk1HTrieGTHUdOjFcd0ji09Tj0+//hAc1Fz/wnxid6TmScft0xsuXtq7KlrrTGt7afDTp87E3Tm1FnW2eZz3ueOnvc8f/gC80LDRbeL9W2ubYd+d/39ULtbe/0l90uNlz0uN3WM6Th+xffKyasBV89c41y7eD3yeseNhBu3bqbe7LzFv9V9O/f2qzuFdz7fnXOPcK/0vsb98geGD6r+sP2jrtOt89jDgIdtj+Ie3X3Me/ziSf6TL13zn9Kelj8zeVbd7dx9tCeo5/Lzcc+7XohffO4t+VPzz8qXNi8P/uX3V1vf2L6uV5JXA68Xv9F/s+Oty9uW/uj+B+/y3n1+X/pB/8POj8yPZz8lfXr2ecoX0pe1X22/Nn0L+3ZvIG9gQMyVcOW/AhisaEYGAK93AEBLBoAOz2fUcYrzn7wgijOrHIH/hBVnRHlxA6AW/r/H9MK/m5sA7N0Gj19QXz0VgGgaAPEeAB09eqgOntXk50pZIcJzwOb4r+l56eDfFMWZ84e4f26BTNUF/Nz+C9nzfEbVa0KNAAAAlmVYSWZNTQAqAAAACAAFARIAAwAAAAEAAQAAARoABQAAAAEAAABKARsABQAAAAEAAABSASgAAwAAAAEAAgAAh2kABAAAAAEAAABaAAAAAAAAAJAAAAABAAAAkAAAAAEAA5KGAAcAAAASAAAAhKACAAQAAAABAAAARKADAAQAAAABAAAAPAAAAABBU0NJSQAAAFNjcmVlbnNob3QEKSxcAAAACXBIWXMAABYlAAAWJQFJUiTwAAAC2WlUWHRYTUw6Y29tLmFkb2JlLnhtcAAAAAAAPHg6eG1wbWV0YSB4bWxuczp4PSJhZG9iZTpuczptZXRhLyIgeDp4bXB0az0iWE1QIENvcmUgNi4wLjAiPgogICA8cmRmOlJERiB4bWxuczpyZGY9Imh0dHA6Ly93d3cudzMub3JnLzE5OTkvMDIvMjItcmRmLXN5bnRheC1ucyMiPgogICAgICA8cmRmOkRlc2NyaXB0aW9uIHJkZjphYm91dD0iIgogICAgICAgICAgICB4bWxuczpleGlmPSJodHRwOi8vbnMuYWRvYmUuY29tL2V4aWYvMS4wLyIKICAgICAgICAgICAgeG1sbnM6dGlmZj0iaHR0cDovL25zLmFkb2JlLmNvbS90aWZmLzEuMC8iPgogICAgICAgICA8ZXhpZjpVc2VyQ29tbWVudD5TY3JlZW5zaG90PC9leGlmOlVzZXJDb21tZW50PgogICAgICAgICA8ZXhpZjpQaXhlbFhEaW1lbnNpb24+Njg8L2V4aWY6UGl4ZWxYRGltZW5zaW9uPgogICAgICAgICA8ZXhpZjpQaXhlbFlEaW1lbnNpb24+NjA8L2V4aWY6UGl4ZWxZRGltZW5zaW9uPgogICAgICAgICA8dGlmZjpSZXNvbHV0aW9uVW5pdD4yPC90aWZmOlJlc29sdXRpb25Vbml0PgogICAgICAgICA8dGlmZjpYUmVzb2x1dGlvbj4xNDQvMTwvdGlmZjpYUmVzb2x1dGlvbj4KICAgICAgICAgPHRpZmY6WVJlc29sdXRpb24+MTQ0LzE8L3RpZmY6WVJlc29sdXRpb24+CiAgICAgICAgIDx0aWZmOk9yaWVudGF0aW9uPjE8L3RpZmY6T3JpZW50YXRpb24+CiAgICAgIDwvcmRmOkRlc2NyaXB0aW9uPgogICA8L3JkZjpSREY+CjwveDp4bXBtZXRhPgrInBAqAAAGNklEQVRoBe3aC0/cOhCG4UCXUuiFwv//fUjcWmjpDQqcPpa+yOtmEalO2aTakUZOso4z83o8ngS27u/vH7qN9AS2+6PNQSGwAdIEwqI5f/T04eGh+7XEit7d3ZW+W1tbXfTRm9f4I7uJlq3b29u9tmaNAvLz58/u69evvRpssVh0Ozs7pW0Hn8I5CCYvyta9vb1eWxtHA7m+vu4+fPhQFO1Xr151u7u7pW0Hn8K5iL69vS16c3PT7e/vdwcHByVC2M6HWv4IyPn5eXd8fFwGff36dRetB57Kscj48eNH9/3799K+ffu2QAADmFZGAUn4Ie4hL168KNFhFlrS7YPWeQ4Km0ERzZY+m4dkFBDJKGvwzZs3JW+g/O7du0HaQw987mtAyHNsN6GA8MFkDskoIKLAYMINkJcvXxYQoLx//35o/LVfE8nsTnSzOYCGjBsFpI0QYEQHGIeHh0Pjr/0aICTLJhHClyFZWEs6p0WSaHOcG799+9bZZT5//lxa4Zjc0a5JDzQb0VUhmrH/VitfeDZlE2Vz7G6fuwDDdhTlWHQISLZcrdBTl4B0dXW1NDYDklu06wKyZNQTTkqEgGH2KaIgJWrqMTgPxMXFRWnRBiOFTt1XZBgXCHu/UJ2D9BEChqUACLUcQKlFn48fPxYFRgRxNMui7us6YGqUo6Oj+qdJHy84lfwBhLXFmaEqzkzbZVLt8cx5ynf7fHTSXj9iXNllAElUAAEI5Wwt+phxu4poIZZE9PLysqPGE2FzlJURosQVCbUEHDCU1Fnb0tFHrpk1kHrZWDIiQ6JUfI0Ry+XTp0+/RdaYMdbdd7g6WbdVa3z+BkgDfwOkAbKQMyRGO4Xt07nEmGKt7i/XpGhLjaJ/xkgy1c94Sbj1GFM/XjAaCDuEROocDBVoXozihJ3Fdht13b1R5TsoxHiSMzCAzUVKhHBI3ZGtUpvj2hGAOB3lKMfdq3UPmCLENePODkgbIZyOtlDM/tnZWa/uVcjlXSZVKxAAafWZVYTUQMys8yiHapFbAEg1a/bzPVWbZZI6RnGnr35zkT6HMLiGw5EkzjhjGYACnFkHjNNR5xQAcBR2omdWQOJYDYPT0cDQghQYcdrnw2giKy0oIM4KSIyvHV91bLYJB6lznw6jq+6b0/XyPSS1hW1VBNRaO5PvIb6F+C4iAiRgyda3lFqAFlHRNh/Vfad03H8xy86SpZK2NhYQMKKiJDC89tcCgM8ENLml/n2qx0tfzDgnSkSMFpRa/A6GT4hUFIgMS0ck1CJ6jAHG2LfmepznPi4Rot7w6v7ly5el0rwFkq9hii/3WFr6cFyEOc61bL0SbrtbPbeTY5732wcis56dwXEtag2/mXGJlPN1MSaCqKXltznKEhCzLvw5rRX2tYiEwBAtRB4BTpvcIiJEzBxlCQiH1SXywdAnRLPOWUsjy0D/qHxhDEtvtkDMYtY9RzlntkWHKBkjXvqy3MbcN6W+y0liSpatyZYNkAb8BkgDpHwgkjNsn/KGHCIx2jod1yKR+o3mW4kdJupPEJJptuPsQPUYUz/uX/+TRDnHWZ8Qs7XGCdfVGXYRLWApywFVtfoNEOO5BkoLNuNNsV0CYrvlDMdVo3adWgDyzuLFTstRu0pUBGU7BgQsgGcLBABOC/u0NRCzf3p6WvTk5KQ4a2v2J88UdEAAFCCzi5CEPSeIGTWzHJIrask1UQCefsp51avWEomKNm+6QIEyF+mXDIPB4BA4HEn4xxnXs4yA1Nd/B6lq819CnE9eAWm2QAKDw1H5pJa84uvLcYDyH4ha14GiGQ80gOYi/bb7lLDmWLZd0QOIt15LQ7tKAnjV73/zOjuzxE1wdNUzR02dwQCxA0m6HgSSaJiqsFUJoa6ye7L3sQkaDQQEAwOiDQzXpygmUM3EXnAsYUDadBDb/whIIkSuMHAgZdAptWxjLzWBzv83IADINdmJOJ4ls4r4uuHUNjtOfZTIbu0bFSFgKMIk0AwITrQdfArnJkpEiAyqDFAOADMko4CIBkCQNjABBqin7FJDBjzHtSwRbaIbEH60svWr03Kx0faozkPbwJQYdGjg6rbJHLKfrSYxbWvcKCDtzf/i+XQLiDXR3gBpwG+ANED+A8I8opteDCP0AAAAAElFTkSuQmCC;movable=1;resizable=1;rotatable=1;deletable=1;editable=1;locked=0;connectable=1;container=0;" parent="jvcADhcVPLt3B4X78LWL-1" vertex="1">
          <mxGeometry x="300" y="496.37" width="27" height="27" as="geometry" />
        </mxCell>
        <mxCell id="stSaYYKcVWD6naMzTqCq-7" value="" style="shape=image;verticalLabelPosition=bottom;labelBackgroundColor=default;verticalAlign=top;aspect=fixed;imageAspect=0;image=data:image/png,iVBORw0KGgoAAAANSUhEUgAAAEQAAAA8CAYAAADfYhweAAAMP2lDQ1BJQ0MgUHJvZmlsZQAASImVVwdYU8kWnltSIbQAAlJCb4KIlABSQmihdwRRCUmAUGIMBBU7uqjg2sUCNnRVRMEKiAVF7CyKvS8WFJR1sWBX3qSArvvK9+b75s5//znznzPnztx7BwD1E1yxOBfVACBPVCCJDfZnjE1OYZC6AQmQAQUYAJzLyxezoqPDASyD7d/LuxsAkbVXHWRa/+z/r0WTL8jnAYBEQ5zOz+flQXwQALySJ5YUAECU8eZTCsQyDCvQlsAAIV4ow5kKXCnD6Qq8V24TH8uGuBUAsiqXK8kEQO0y5BmFvEyoodYHsZOILxQBoM6A2CcvbxIf4jSIbaCNGGKZPjP9B53Mv2mmD2lyuZlDWDEXeSEHCPPFudxp/2c6/nfJy5UO+rCCVTVLEhIrmzPM262cSWEyrApxryg9MgpiLYg/CPlye4hRapY0JEFhjxry8tkwZ0AXYic+NyAMYkOIg0S5keFKPj1DGMSBGK4QdKqwgBMPsR7ECwX5gXFKm82SSbFKX2h9hoTNUvLnuBK5X5mvB9KcBJZS/3WWgKPUx9SKsuKTIKZCbFEoTIyEWA1ix/ycuDClzZiiLHbkoI1EGiuL3wLiWIEo2F+hjxVmSIJilfalefmD88U2Zwk5kUq8vyArPkSRH6yVx5XHD+eCXRaIWAmDOoL8seGDc+ELAgIVc8e6BaKEOKXOB3GBf6xiLE4V50Yr7XEzQW6wjDeD2CW/ME45Fk8sgAtSoY9niAui4xVx4kXZ3NBoRTz4MhAO2CAAMIAU1nQwCWQDYXtvQy+8U/QEAS6QgEwgAA5KZnBEkrxHBK9xoAj8CZEA5A+N85f3CkAh5L8OsYqrA8iQ9xbKR+SApxDngTCQC++l8lGiIW+J4AlkhP/wzoWVB+PNhVXW/+/5QfY7w4JMuJKRDnpkqA9aEgOJAcQQYhDRFjfAfXAvPBxe/WB1xpm4x+A8vtsTnhI6CI8I1wmdhNsThcWSn6KMAJ1QP0iZi/Qfc4FbQU1X3B/3hupQGdfFDYAD7gL9sHBf6NkVsmxl3LKsMH7S/tsMfngaSjuKEwWlDKP4UWx+Hqlmp+Y6pCLL9Y/5UcSaPpRv9lDPz/7ZP2SfD9uwny2xhdgB7Cx2EjuPHcUaAANrxhqxNuyYDA+trify1TXoLVYeTw7UEf7D3+CTlWUy36nGqcfpi6KvQDBV9o4G7EniaRJhZlYBgwW/CAIGR8RzHMFwdnJ2AUD2fVG8vt7EyL8biG7bd27eHwB4Nw8MDBz5zoU2A7DPHW7/w985Gyb8dKgAcO4wTyopVHC47EKAbwl1uNP0gTEwBzZwPs7ADXgBPxAIQkEUiAfJYAKMPguucwmYAmaAuaAElIFlYDVYDzaBrWAn2AP2gwZwFJwEZ8BFcBlcB3fh6ukCL0AfeAc+IwhCQmgIHdFHTBBLxB5xRpiIDxKIhCOxSDKShmQiIkSKzEDmIWXICmQ9sgWpRvYhh5GTyHmkA7mNPER6kNfIJxRDVVFt1Ai1QkeiTJSFhqHx6Hg0E52MFqHz0SXoWrQK3Y3WoyfRi+h1tBN9gfZjAFPBdDFTzAFjYmwsCkvBMjAJNgsrxcqxKqwWa4LP+SrWifViH3EiTscZuANcwSF4As7DJ+Oz8MX4enwnXo+34lfxh3gf/o1AIxgS7AmeBA5hLCGTMIVQQignbCccIpyGe6mL8I5IJOoSrYnucC8mE7OJ04mLiRuIdcQTxA7iY2I/iUTSJ9mTvElRJC6pgFRCWkfaTWomXSF1kT6QVcgmZGdyEDmFLCIXk8vJu8jHyVfIz8ifKRoUS4onJYrCp0yjLKVsozRRLlG6KJ+pmlRrqjc1nppNnUtdS62lnqbeo75RUVExU/FQiVERqsxRWauyV+WcykOVj6paqnaqbNVUVanqEtUdqidUb6u+odFoVjQ/WgqtgLaEVk07RXtA+6BGV3NU46jx1WarVajVq11Re6lOUbdUZ6lPUC9SL1c/oH5JvVeDomGlwdbgaszSqNA4rHFTo1+TrjlKM0ozT3Ox5i7N85rdWiQtK61ALb7WfK2tWqe0HtMxujmdTefR59G30U/Tu7SJ2tbaHO1s7TLtPdrt2n06WjouOok6U3UqdI7pdOpiula6HN1c3aW6+3Vv6H4aZjSMNUwwbNGw2mFXhr3XG67npyfQK9Wr07uu90mfoR+on6O/XL9B/74BbmBnEGMwxWCjwWmD3uHaw72G84aXDt8//I4hamhnGGs43XCrYZthv5GxUbCR2Gid0SmjXmNdYz/jbONVxseNe0zoJj4mQpNVJs0mzxk6DBYjl7GW0croMzU0DTGVmm4xbTf9bGZtlmBWbFZndt+cas40zzBfZd5i3mdhYhFhMcOixuKOJcWSaZllucbyrOV7K2urJKsFVg1W3dZ61hzrIusa63s2NBtfm8k2VTbXbIm2TNsc2w22l+1QO1e7LLsKu0v2qL2bvdB+g33HCMIIjxGiEVUjbjqoOrAcCh1qHB466jqGOxY7Nji+HGkxMmXk8pFnR35zcnXKddrmdHeU1qjQUcWjmka9drZz5jlXOF8bTRsdNHr26MbRr1zsXQQuG11uudJdI1wXuLa4fnVzd5O41br1uFu4p7lXut9kajOjmYuZ5zwIHv4esz2Oenz0dPMs8Nzv+ZeXg1eO1y6v7jHWYwRjto157G3mzfXe4t3pw/BJ89ns0+lr6sv1rfJ95Gfux/fb7veMZcvKZu1mvfR38pf4H/J/z/Zkz2SfCMACggNKA9oDtQITAtcHPggyC8oMqgnqC3YNnh58IoQQEhayPOQmx4jD41Rz+kLdQ2eGtoaphsWFrQ97FG4XLglvikAjQiNWRtyLtIwURTZEgShO1Mqo+9HW0ZOjj8QQY6JjKmKexo6KnRF7No4eNzFuV9y7eP/4pfF3E2wSpAktieqJqYnVie+TApJWJHWOHTl25tiLyQbJwuTGFFJKYsr2lP5xgeNWj+tKdU0tSb0x3nr81PHnJxhMyJ1wbKL6RO7EA2mEtKS0XWlfuFHcKm5/Oie9Mr2Px+at4b3g+/FX8XsE3oIVgmcZ3hkrMrozvTNXZvZk+WaVZ/UK2cL1wlfZIdmbst/nROXsyBnITcqtyyPnpeUdFmmJckStk4wnTZ3UIbYXl4g7J3tOXj25TxIm2Z6P5I/PbyzQhj/ybVIb6S/Sh4U+hRWFH6YkTjkwVXOqaGrbNLtpi6Y9Kwoq+m06Pp03vWWG6Yy5Mx7OZM3cMguZlT6rZbb57Pmzu+YEz9k5lzo3Z+7vxU7FK4rfzkua1zTfaP6c+Y9/Cf6lpkStRFJyc4HXgk0L8YXChe2LRi9at+hbKb/0QplTWXnZl8W8xRd+HfXr2l8HlmQsaV/qtnTjMuIy0bIby32X71yhuaJoxeOVESvrVzFWla56u3ri6vPlLuWb1lDXSNd0rg1f27jOYt2ydV/WZ62/XuFfUVdpWLmo8v0G/oYrG/021m4y2lS26dNm4eZbW4K31FdZVZVvJW4t3Pp0W+K2s78xf6vebrC9bPvXHaIdnTtjd7ZWu1dX7zLctbQGrZHW9OxO3X15T8CexlqH2i11unVle8Fe6d7n+9L23dgftr/lAPNA7UHLg5WH6IdK65H6afV9DVkNnY3JjR2HQw+3NHk1HTrieGTHUdOjFcd0ji09Tj0+//hAc1Fz/wnxid6TmScft0xsuXtq7KlrrTGt7afDTp87E3Tm1FnW2eZz3ueOnvc8f/gC80LDRbeL9W2ubYd+d/39ULtbe/0l90uNlz0uN3WM6Th+xffKyasBV89c41y7eD3yeseNhBu3bqbe7LzFv9V9O/f2qzuFdz7fnXOPcK/0vsb98geGD6r+sP2jrtOt89jDgIdtj+Ie3X3Me/ziSf6TL13zn9Kelj8zeVbd7dx9tCeo5/Lzcc+7XohffO4t+VPzz8qXNi8P/uX3V1vf2L6uV5JXA68Xv9F/s+Oty9uW/uj+B+/y3n1+X/pB/8POj8yPZz8lfXr2ecoX0pe1X22/Nn0L+3ZvIG9gQMyVcOW/AhisaEYGAK93AEBLBoAOz2fUcYrzn7wgijOrHIH/hBVnRHlxA6AW/r/H9MK/m5sA7N0Gj19QXz0VgGgaAPEeAB09eqgOntXk50pZIcJzwOb4r+l56eDfFMWZ84e4f26BTNUF/Nz+C9nzfEbVa0KNAAAAlmVYSWZNTQAqAAAACAAFARIAAwAAAAEAAQAAARoABQAAAAEAAABKARsABQAAAAEAAABSASgAAwAAAAEAAgAAh2kABAAAAAEAAABaAAAAAAAAAJAAAAABAAAAkAAAAAEAA5KGAAcAAAASAAAAhKACAAQAAAABAAAARKADAAQAAAABAAAAPAAAAABBU0NJSQAAAFNjcmVlbnNob3QEKSxcAAAACXBIWXMAABYlAAAWJQFJUiTwAAAC2WlUWHRYTUw6Y29tLmFkb2JlLnhtcAAAAAAAPHg6eG1wbWV0YSB4bWxuczp4PSJhZG9iZTpuczptZXRhLyIgeDp4bXB0az0iWE1QIENvcmUgNi4wLjAiPgogICA8cmRmOlJERiB4bWxuczpyZGY9Imh0dHA6Ly93d3cudzMub3JnLzE5OTkvMDIvMjItcmRmLXN5bnRheC1ucyMiPgogICAgICA8cmRmOkRlc2NyaXB0aW9uIHJkZjphYm91dD0iIgogICAgICAgICAgICB4bWxuczpleGlmPSJodHRwOi8vbnMuYWRvYmUuY29tL2V4aWYvMS4wLyIKICAgICAgICAgICAgeG1sbnM6dGlmZj0iaHR0cDovL25zLmFkb2JlLmNvbS90aWZmLzEuMC8iPgogICAgICAgICA8ZXhpZjpVc2VyQ29tbWVudD5TY3JlZW5zaG90PC9leGlmOlVzZXJDb21tZW50PgogICAgICAgICA8ZXhpZjpQaXhlbFhEaW1lbnNpb24+Njg8L2V4aWY6UGl4ZWxYRGltZW5zaW9uPgogICAgICAgICA8ZXhpZjpQaXhlbFlEaW1lbnNpb24+NjA8L2V4aWY6UGl4ZWxZRGltZW5zaW9uPgogICAgICAgICA8dGlmZjpSZXNvbHV0aW9uVW5pdD4yPC90aWZmOlJlc29sdXRpb25Vbml0PgogICAgICAgICA8dGlmZjpYUmVzb2x1dGlvbj4xNDQvMTwvdGlmZjpYUmVzb2x1dGlvbj4KICAgICAgICAgPHRpZmY6WVJlc29sdXRpb24+MTQ0LzE8L3RpZmY6WVJlc29sdXRpb24+CiAgICAgICAgIDx0aWZmOk9yaWVudGF0aW9uPjE8L3RpZmY6T3JpZW50YXRpb24+CiAgICAgIDwvcmRmOkRlc2NyaXB0aW9uPgogICA8L3JkZjpSREY+CjwveDp4bXBtZXRhPgrInBAqAAAGNklEQVRoBe3aC0/cOhCG4UCXUuiFwv//fUjcWmjpDQqcPpa+yOtmEalO2aTakUZOso4z83o8ngS27u/vH7qN9AS2+6PNQSGwAdIEwqI5f/T04eGh+7XEit7d3ZW+W1tbXfTRm9f4I7uJlq3b29u9tmaNAvLz58/u69evvRpssVh0Ozs7pW0Hn8I5CCYvyta9vb1eWxtHA7m+vu4+fPhQFO1Xr151u7u7pW0Hn8K5iL69vS16c3PT7e/vdwcHByVC2M6HWv4IyPn5eXd8fFwGff36dRetB57Kscj48eNH9/3799K+ffu2QAADmFZGAUn4Ie4hL168KNFhFlrS7YPWeQ4Km0ERzZY+m4dkFBDJKGvwzZs3JW+g/O7du0HaQw987mtAyHNsN6GA8MFkDskoIKLAYMINkJcvXxYQoLx//35o/LVfE8nsTnSzOYCGjBsFpI0QYEQHGIeHh0Pjr/0aICTLJhHClyFZWEs6p0WSaHOcG799+9bZZT5//lxa4Zjc0a5JDzQb0VUhmrH/VitfeDZlE2Vz7G6fuwDDdhTlWHQISLZcrdBTl4B0dXW1NDYDklu06wKyZNQTTkqEgGH2KaIgJWrqMTgPxMXFRWnRBiOFTt1XZBgXCHu/UJ2D9BEChqUACLUcQKlFn48fPxYFRgRxNMui7us6YGqUo6Oj+qdJHy84lfwBhLXFmaEqzkzbZVLt8cx5ynf7fHTSXj9iXNllAElUAAEI5Wwt+phxu4poIZZE9PLysqPGE2FzlJURosQVCbUEHDCU1Fnb0tFHrpk1kHrZWDIiQ6JUfI0Ry+XTp0+/RdaYMdbdd7g6WbdVa3z+BkgDfwOkAbKQMyRGO4Xt07nEmGKt7i/XpGhLjaJ/xkgy1c94Sbj1GFM/XjAaCDuEROocDBVoXozihJ3Fdht13b1R5TsoxHiSMzCAzUVKhHBI3ZGtUpvj2hGAOB3lKMfdq3UPmCLENePODkgbIZyOtlDM/tnZWa/uVcjlXSZVKxAAafWZVYTUQMys8yiHapFbAEg1a/bzPVWbZZI6RnGnr35zkT6HMLiGw5EkzjhjGYACnFkHjNNR5xQAcBR2omdWQOJYDYPT0cDQghQYcdrnw2giKy0oIM4KSIyvHV91bLYJB6lznw6jq+6b0/XyPSS1hW1VBNRaO5PvIb6F+C4iAiRgyda3lFqAFlHRNh/Vfad03H8xy86SpZK2NhYQMKKiJDC89tcCgM8ENLml/n2qx0tfzDgnSkSMFpRa/A6GT4hUFIgMS0ck1CJ6jAHG2LfmepznPi4Rot7w6v7ly5el0rwFkq9hii/3WFr6cFyEOc61bL0SbrtbPbeTY5732wcis56dwXEtag2/mXGJlPN1MSaCqKXltznKEhCzLvw5rRX2tYiEwBAtRB4BTpvcIiJEzBxlCQiH1SXywdAnRLPOWUsjy0D/qHxhDEtvtkDMYtY9RzlntkWHKBkjXvqy3MbcN6W+y0liSpatyZYNkAb8BkgDpHwgkjNsn/KGHCIx2jod1yKR+o3mW4kdJupPEJJptuPsQPUYUz/uX/+TRDnHWZ8Qs7XGCdfVGXYRLWApywFVtfoNEOO5BkoLNuNNsV0CYrvlDMdVo3adWgDyzuLFTstRu0pUBGU7BgQsgGcLBABOC/u0NRCzf3p6WvTk5KQ4a2v2J88UdEAAFCCzi5CEPSeIGTWzHJIrask1UQCefsp51avWEomKNm+6QIEyF+mXDIPB4BA4HEn4xxnXs4yA1Nd/B6lq819CnE9eAWm2QAKDw1H5pJa84uvLcYDyH4ha14GiGQ80gOYi/bb7lLDmWLZd0QOIt15LQ7tKAnjV73/zOjuzxE1wdNUzR02dwQCxA0m6HgSSaJiqsFUJoa6ye7L3sQkaDQQEAwOiDQzXpygmUM3EXnAsYUDadBDb/whIIkSuMHAgZdAptWxjLzWBzv83IADINdmJOJ4ls4r4uuHUNjtOfZTIbu0bFSFgKMIk0AwITrQdfArnJkpEiAyqDFAOADMko4CIBkCQNjABBqin7FJDBjzHtSwRbaIbEH60svWr03Kx0faozkPbwJQYdGjg6rbJHLKfrSYxbWvcKCDtzf/i+XQLiDXR3gBpwG+ANED+A8I8opteDCP0AAAAAElFTkSuQmCC;movable=1;resizable=1;rotatable=1;deletable=1;editable=1;locked=0;connectable=1;container=0;" parent="jvcADhcVPLt3B4X78LWL-1" vertex="1">
          <mxGeometry x="300" y="552.75" width="27" height="27" as="geometry" />
        </mxCell>
        <mxCell id="stSaYYKcVWD6naMzTqCq-9" value="" style="shape=image;verticalLabelPosition=bottom;labelBackgroundColor=default;verticalAlign=top;aspect=fixed;imageAspect=0;image=data:image/png,iVBORw0KGgoAAAANSUhEUgAAAEQAAAA8CAYAAADfYhweAAAMP2lDQ1BJQ0MgUHJvZmlsZQAASImVVwdYU8kWnltSIbQAAlJCb4KIlABSQmihdwRRCUmAUGIMBBU7uqjg2sUCNnRVRMEKiAVF7CyKvS8WFJR1sWBX3qSArvvK9+b75s5//znznzPnztx7BwD1E1yxOBfVACBPVCCJDfZnjE1OYZC6AQmQAQUYAJzLyxezoqPDASyD7d/LuxsAkbVXHWRa/+z/r0WTL8jnAYBEQ5zOz+flQXwQALySJ5YUAECU8eZTCsQyDCvQlsAAIV4ow5kKXCnD6Qq8V24TH8uGuBUAsiqXK8kEQO0y5BmFvEyoodYHsZOILxQBoM6A2CcvbxIf4jSIbaCNGGKZPjP9B53Mv2mmD2lyuZlDWDEXeSEHCPPFudxp/2c6/nfJy5UO+rCCVTVLEhIrmzPM262cSWEyrApxryg9MgpiLYg/CPlye4hRapY0JEFhjxry8tkwZ0AXYic+NyAMYkOIg0S5keFKPj1DGMSBGK4QdKqwgBMPsR7ECwX5gXFKm82SSbFKX2h9hoTNUvLnuBK5X5mvB9KcBJZS/3WWgKPUx9SKsuKTIKZCbFEoTIyEWA1ix/ycuDClzZiiLHbkoI1EGiuL3wLiWIEo2F+hjxVmSIJilfalefmD88U2Zwk5kUq8vyArPkSRH6yVx5XHD+eCXRaIWAmDOoL8seGDc+ELAgIVc8e6BaKEOKXOB3GBf6xiLE4V50Yr7XEzQW6wjDeD2CW/ME45Fk8sgAtSoY9niAui4xVx4kXZ3NBoRTz4MhAO2CAAMIAU1nQwCWQDYXtvQy+8U/QEAS6QgEwgAA5KZnBEkrxHBK9xoAj8CZEA5A+N85f3CkAh5L8OsYqrA8iQ9xbKR+SApxDngTCQC++l8lGiIW+J4AlkhP/wzoWVB+PNhVXW/+/5QfY7w4JMuJKRDnpkqA9aEgOJAcQQYhDRFjfAfXAvPBxe/WB1xpm4x+A8vtsTnhI6CI8I1wmdhNsThcWSn6KMAJ1QP0iZi/Qfc4FbQU1X3B/3hupQGdfFDYAD7gL9sHBf6NkVsmxl3LKsMH7S/tsMfngaSjuKEwWlDKP4UWx+Hqlmp+Y6pCLL9Y/5UcSaPpRv9lDPz/7ZP2SfD9uwny2xhdgB7Cx2EjuPHcUaAANrxhqxNuyYDA+trify1TXoLVYeTw7UEf7D3+CTlWUy36nGqcfpi6KvQDBV9o4G7EniaRJhZlYBgwW/CAIGR8RzHMFwdnJ2AUD2fVG8vt7EyL8biG7bd27eHwB4Nw8MDBz5zoU2A7DPHW7/w985Gyb8dKgAcO4wTyopVHC47EKAbwl1uNP0gTEwBzZwPs7ADXgBPxAIQkEUiAfJYAKMPguucwmYAmaAuaAElIFlYDVYDzaBrWAn2AP2gwZwFJwEZ8BFcBlcB3fh6ukCL0AfeAc+IwhCQmgIHdFHTBBLxB5xRpiIDxKIhCOxSDKShmQiIkSKzEDmIWXICmQ9sgWpRvYhh5GTyHmkA7mNPER6kNfIJxRDVVFt1Ai1QkeiTJSFhqHx6Hg0E52MFqHz0SXoWrQK3Y3WoyfRi+h1tBN9gfZjAFPBdDFTzAFjYmwsCkvBMjAJNgsrxcqxKqwWa4LP+SrWifViH3EiTscZuANcwSF4As7DJ+Oz8MX4enwnXo+34lfxh3gf/o1AIxgS7AmeBA5hLCGTMIVQQignbCccIpyGe6mL8I5IJOoSrYnucC8mE7OJ04mLiRuIdcQTxA7iY2I/iUTSJ9mTvElRJC6pgFRCWkfaTWomXSF1kT6QVcgmZGdyEDmFLCIXk8vJu8jHyVfIz8ifKRoUS4onJYrCp0yjLKVsozRRLlG6KJ+pmlRrqjc1nppNnUtdS62lnqbeo75RUVExU/FQiVERqsxRWauyV+WcykOVj6paqnaqbNVUVanqEtUdqidUb6u+odFoVjQ/WgqtgLaEVk07RXtA+6BGV3NU46jx1WarVajVq11Re6lOUbdUZ6lPUC9SL1c/oH5JvVeDomGlwdbgaszSqNA4rHFTo1+TrjlKM0ozT3Ox5i7N85rdWiQtK61ALb7WfK2tWqe0HtMxujmdTefR59G30U/Tu7SJ2tbaHO1s7TLtPdrt2n06WjouOok6U3UqdI7pdOpiula6HN1c3aW6+3Vv6H4aZjSMNUwwbNGw2mFXhr3XG67npyfQK9Wr07uu90mfoR+on6O/XL9B/74BbmBnEGMwxWCjwWmD3uHaw72G84aXDt8//I4hamhnGGs43XCrYZthv5GxUbCR2Gid0SmjXmNdYz/jbONVxseNe0zoJj4mQpNVJs0mzxk6DBYjl7GW0croMzU0DTGVmm4xbTf9bGZtlmBWbFZndt+cas40zzBfZd5i3mdhYhFhMcOixuKOJcWSaZllucbyrOV7K2urJKsFVg1W3dZ61hzrIusa63s2NBtfm8k2VTbXbIm2TNsc2w22l+1QO1e7LLsKu0v2qL2bvdB+g33HCMIIjxGiEVUjbjqoOrAcCh1qHB466jqGOxY7Nji+HGkxMmXk8pFnR35zcnXKddrmdHeU1qjQUcWjmka9drZz5jlXOF8bTRsdNHr26MbRr1zsXQQuG11uudJdI1wXuLa4fnVzd5O41br1uFu4p7lXut9kajOjmYuZ5zwIHv4esz2Oenz0dPMs8Nzv+ZeXg1eO1y6v7jHWYwRjto157G3mzfXe4t3pw/BJ89ns0+lr6sv1rfJ95Gfux/fb7veMZcvKZu1mvfR38pf4H/J/z/Zkz2SfCMACggNKA9oDtQITAtcHPggyC8oMqgnqC3YNnh58IoQQEhayPOQmx4jD41Rz+kLdQ2eGtoaphsWFrQ97FG4XLglvikAjQiNWRtyLtIwURTZEgShO1Mqo+9HW0ZOjj8QQY6JjKmKexo6KnRF7No4eNzFuV9y7eP/4pfF3E2wSpAktieqJqYnVie+TApJWJHWOHTl25tiLyQbJwuTGFFJKYsr2lP5xgeNWj+tKdU0tSb0x3nr81PHnJxhMyJ1wbKL6RO7EA2mEtKS0XWlfuFHcKm5/Oie9Mr2Px+at4b3g+/FX8XsE3oIVgmcZ3hkrMrozvTNXZvZk+WaVZ/UK2cL1wlfZIdmbst/nROXsyBnITcqtyyPnpeUdFmmJckStk4wnTZ3UIbYXl4g7J3tOXj25TxIm2Z6P5I/PbyzQhj/ybVIb6S/Sh4U+hRWFH6YkTjkwVXOqaGrbNLtpi6Y9Kwoq+m06Pp03vWWG6Yy5Mx7OZM3cMguZlT6rZbb57Pmzu+YEz9k5lzo3Z+7vxU7FK4rfzkua1zTfaP6c+Y9/Cf6lpkStRFJyc4HXgk0L8YXChe2LRi9at+hbKb/0QplTWXnZl8W8xRd+HfXr2l8HlmQsaV/qtnTjMuIy0bIby32X71yhuaJoxeOVESvrVzFWla56u3ri6vPlLuWb1lDXSNd0rg1f27jOYt2ydV/WZ62/XuFfUVdpWLmo8v0G/oYrG/021m4y2lS26dNm4eZbW4K31FdZVZVvJW4t3Pp0W+K2s78xf6vebrC9bPvXHaIdnTtjd7ZWu1dX7zLctbQGrZHW9OxO3X15T8CexlqH2i11unVle8Fe6d7n+9L23dgftr/lAPNA7UHLg5WH6IdK65H6afV9DVkNnY3JjR2HQw+3NHk1HTrieGTHUdOjFcd0ji09Tj0+//hAc1Fz/wnxid6TmScft0xsuXtq7KlrrTGt7afDTp87E3Tm1FnW2eZz3ueOnvc8f/gC80LDRbeL9W2ubYd+d/39ULtbe/0l90uNlz0uN3WM6Th+xffKyasBV89c41y7eD3yeseNhBu3bqbe7LzFv9V9O/f2qzuFdz7fnXOPcK/0vsb98geGD6r+sP2jrtOt89jDgIdtj+Ie3X3Me/ziSf6TL13zn9Kelj8zeVbd7dx9tCeo5/Lzcc+7XohffO4t+VPzz8qXNi8P/uX3V1vf2L6uV5JXA68Xv9F/s+Oty9uW/uj+B+/y3n1+X/pB/8POj8yPZz8lfXr2ecoX0pe1X22/Nn0L+3ZvIG9gQMyVcOW/AhisaEYGAK93AEBLBoAOz2fUcYrzn7wgijOrHIH/hBVnRHlxA6AW/r/H9MK/m5sA7N0Gj19QXz0VgGgaAPEeAB09eqgOntXk50pZIcJzwOb4r+l56eDfFMWZ84e4f26BTNUF/Nz+C9nzfEbVa0KNAAAAlmVYSWZNTQAqAAAACAAFARIAAwAAAAEAAQAAARoABQAAAAEAAABKARsABQAAAAEAAABSASgAAwAAAAEAAgAAh2kABAAAAAEAAABaAAAAAAAAAJAAAAABAAAAkAAAAAEAA5KGAAcAAAASAAAAhKACAAQAAAABAAAARKADAAQAAAABAAAAPAAAAABBU0NJSQAAAFNjcmVlbnNob3QEKSxcAAAACXBIWXMAABYlAAAWJQFJUiTwAAAC2WlUWHRYTUw6Y29tLmFkb2JlLnhtcAAAAAAAPHg6eG1wbWV0YSB4bWxuczp4PSJhZG9iZTpuczptZXRhLyIgeDp4bXB0az0iWE1QIENvcmUgNi4wLjAiPgogICA8cmRmOlJERiB4bWxuczpyZGY9Imh0dHA6Ly93d3cudzMub3JnLzE5OTkvMDIvMjItcmRmLXN5bnRheC1ucyMiPgogICAgICA8cmRmOkRlc2NyaXB0aW9uIHJkZjphYm91dD0iIgogICAgICAgICAgICB4bWxuczpleGlmPSJodHRwOi8vbnMuYWRvYmUuY29tL2V4aWYvMS4wLyIKICAgICAgICAgICAgeG1sbnM6dGlmZj0iaHR0cDovL25zLmFkb2JlLmNvbS90aWZmLzEuMC8iPgogICAgICAgICA8ZXhpZjpVc2VyQ29tbWVudD5TY3JlZW5zaG90PC9leGlmOlVzZXJDb21tZW50PgogICAgICAgICA8ZXhpZjpQaXhlbFhEaW1lbnNpb24+Njg8L2V4aWY6UGl4ZWxYRGltZW5zaW9uPgogICAgICAgICA8ZXhpZjpQaXhlbFlEaW1lbnNpb24+NjA8L2V4aWY6UGl4ZWxZRGltZW5zaW9uPgogICAgICAgICA8dGlmZjpSZXNvbHV0aW9uVW5pdD4yPC90aWZmOlJlc29sdXRpb25Vbml0PgogICAgICAgICA8dGlmZjpYUmVzb2x1dGlvbj4xNDQvMTwvdGlmZjpYUmVzb2x1dGlvbj4KICAgICAgICAgPHRpZmY6WVJlc29sdXRpb24+MTQ0LzE8L3RpZmY6WVJlc29sdXRpb24+CiAgICAgICAgIDx0aWZmOk9yaWVudGF0aW9uPjE8L3RpZmY6T3JpZW50YXRpb24+CiAgICAgIDwvcmRmOkRlc2NyaXB0aW9uPgogICA8L3JkZjpSREY+CjwveDp4bXBtZXRhPgrInBAqAAAGNklEQVRoBe3aC0/cOhCG4UCXUuiFwv//fUjcWmjpDQqcPpa+yOtmEalO2aTakUZOso4z83o8ngS27u/vH7qN9AS2+6PNQSGwAdIEwqI5f/T04eGh+7XEit7d3ZW+W1tbXfTRm9f4I7uJlq3b29u9tmaNAvLz58/u69evvRpssVh0Ozs7pW0Hn8I5CCYvyta9vb1eWxtHA7m+vu4+fPhQFO1Xr151u7u7pW0Hn8K5iL69vS16c3PT7e/vdwcHByVC2M6HWv4IyPn5eXd8fFwGff36dRetB57Kscj48eNH9/3799K+ffu2QAADmFZGAUn4Ie4hL168KNFhFlrS7YPWeQ4Km0ERzZY+m4dkFBDJKGvwzZs3JW+g/O7du0HaQw987mtAyHNsN6GA8MFkDskoIKLAYMINkJcvXxYQoLx//35o/LVfE8nsTnSzOYCGjBsFpI0QYEQHGIeHh0Pjr/0aICTLJhHClyFZWEs6p0WSaHOcG799+9bZZT5//lxa4Zjc0a5JDzQb0VUhmrH/VitfeDZlE2Vz7G6fuwDDdhTlWHQISLZcrdBTl4B0dXW1NDYDklu06wKyZNQTTkqEgGH2KaIgJWrqMTgPxMXFRWnRBiOFTt1XZBgXCHu/UJ2D9BEChqUACLUcQKlFn48fPxYFRgRxNMui7us6YGqUo6Oj+qdJHy84lfwBhLXFmaEqzkzbZVLt8cx5ynf7fHTSXj9iXNllAElUAAEI5Wwt+phxu4poIZZE9PLysqPGE2FzlJURosQVCbUEHDCU1Fnb0tFHrpk1kHrZWDIiQ6JUfI0Ry+XTp0+/RdaYMdbdd7g6WbdVa3z+BkgDfwOkAbKQMyRGO4Xt07nEmGKt7i/XpGhLjaJ/xkgy1c94Sbj1GFM/XjAaCDuEROocDBVoXozihJ3Fdht13b1R5TsoxHiSMzCAzUVKhHBI3ZGtUpvj2hGAOB3lKMfdq3UPmCLENePODkgbIZyOtlDM/tnZWa/uVcjlXSZVKxAAafWZVYTUQMys8yiHapFbAEg1a/bzPVWbZZI6RnGnr35zkT6HMLiGw5EkzjhjGYACnFkHjNNR5xQAcBR2omdWQOJYDYPT0cDQghQYcdrnw2giKy0oIM4KSIyvHV91bLYJB6lznw6jq+6b0/XyPSS1hW1VBNRaO5PvIb6F+C4iAiRgyda3lFqAFlHRNh/Vfad03H8xy86SpZK2NhYQMKKiJDC89tcCgM8ENLml/n2qx0tfzDgnSkSMFpRa/A6GT4hUFIgMS0ck1CJ6jAHG2LfmepznPi4Rot7w6v7ly5el0rwFkq9hii/3WFr6cFyEOc61bL0SbrtbPbeTY5732wcis56dwXEtag2/mXGJlPN1MSaCqKXltznKEhCzLvw5rRX2tYiEwBAtRB4BTpvcIiJEzBxlCQiH1SXywdAnRLPOWUsjy0D/qHxhDEtvtkDMYtY9RzlntkWHKBkjXvqy3MbcN6W+y0liSpatyZYNkAb8BkgDpHwgkjNsn/KGHCIx2jod1yKR+o3mW4kdJupPEJJptuPsQPUYUz/uX/+TRDnHWZ8Qs7XGCdfVGXYRLWApywFVtfoNEOO5BkoLNuNNsV0CYrvlDMdVo3adWgDyzuLFTstRu0pUBGU7BgQsgGcLBABOC/u0NRCzf3p6WvTk5KQ4a2v2J88UdEAAFCCzi5CEPSeIGTWzHJIrask1UQCefsp51avWEomKNm+6QIEyF+mXDIPB4BA4HEn4xxnXs4yA1Nd/B6lq819CnE9eAWm2QAKDw1H5pJa84uvLcYDyH4ha14GiGQ80gOYi/bb7lLDmWLZd0QOIt15LQ7tKAnjV73/zOjuzxE1wdNUzR02dwQCxA0m6HgSSaJiqsFUJoa6ye7L3sQkaDQQEAwOiDQzXpygmUM3EXnAsYUDadBDb/whIIkSuMHAgZdAptWxjLzWBzv83IADINdmJOJ4ls4r4uuHUNjtOfZTIbu0bFSFgKMIk0AwITrQdfArnJkpEiAyqDFAOADMko4CIBkCQNjABBqin7FJDBjzHtSwRbaIbEH60svWr03Kx0faozkPbwJQYdGjg6rbJHLKfrSYxbWvcKCDtzf/i+XQLiDXR3gBpwG+ANED+A8I8opteDCP0AAAAAElFTkSuQmCC;movable=1;resizable=1;rotatable=1;deletable=1;editable=1;locked=0;connectable=1;container=0;" parent="jvcADhcVPLt3B4X78LWL-1" vertex="1">
          <mxGeometry x="300" y="605.5" width="27" height="27" as="geometry" />
        </mxCell>
        <mxCell id="stSaYYKcVWD6naMzTqCq-33" style="edgeStyle=orthogonalEdgeStyle;rounded=0;orthogonalLoop=1;jettySize=auto;html=1;exitX=1;exitY=0.5;exitDx=0;exitDy=0;entryX=0;entryY=0.25;entryDx=0;entryDy=0;" parent="jvcADhcVPLt3B4X78LWL-1" source="stSaYYKcVWD6naMzTqCq-13" target="jvcADhcVPLt3B4X78LWL-49" edge="1">
          <mxGeometry relative="1" as="geometry">
            <Array as="points">
              <mxPoint x="780" y="670" />
              <mxPoint x="780" y="130" />
            </Array>
          </mxGeometry>
        </mxCell>
        <mxCell id="stSaYYKcVWD6naMzTqCq-13" value="HTTPS" style="html=1;whiteSpace=wrap;fontStyle=1;align=left;" parent="jvcADhcVPLt3B4X78LWL-1" vertex="1">
          <mxGeometry x="218.65999999999997" y="649" width="112.67" height="40" as="geometry" />
        </mxCell>
        <mxCell id="stSaYYKcVWD6naMzTqCq-14" value="" style="shape=image;verticalLabelPosition=bottom;labelBackgroundColor=default;verticalAlign=top;aspect=fixed;imageAspect=0;image=data:image/png,iVBORw0KGgoAAAANSUhEUgAAAEQAAAA8CAYAAADfYhweAAAMP2lDQ1BJQ0MgUHJvZmlsZQAASImVVwdYU8kWnltSIbQAAlJCb4KIlABSQmihdwRRCUmAUGIMBBU7uqjg2sUCNnRVRMEKiAVF7CyKvS8WFJR1sWBX3qSArvvK9+b75s5//znznzPnztx7BwD1E1yxOBfVACBPVCCJDfZnjE1OYZC6AQmQAQUYAJzLyxezoqPDASyD7d/LuxsAkbVXHWRa/+z/r0WTL8jnAYBEQ5zOz+flQXwQALySJ5YUAECU8eZTCsQyDCvQlsAAIV4ow5kKXCnD6Qq8V24TH8uGuBUAsiqXK8kEQO0y5BmFvEyoodYHsZOILxQBoM6A2CcvbxIf4jSIbaCNGGKZPjP9B53Mv2mmD2lyuZlDWDEXeSEHCPPFudxp/2c6/nfJy5UO+rCCVTVLEhIrmzPM262cSWEyrApxryg9MgpiLYg/CPlye4hRapY0JEFhjxry8tkwZ0AXYic+NyAMYkOIg0S5keFKPj1DGMSBGK4QdKqwgBMPsR7ECwX5gXFKm82SSbFKX2h9hoTNUvLnuBK5X5mvB9KcBJZS/3WWgKPUx9SKsuKTIKZCbFEoTIyEWA1ix/ycuDClzZiiLHbkoI1EGiuL3wLiWIEo2F+hjxVmSIJilfalefmD88U2Zwk5kUq8vyArPkSRH6yVx5XHD+eCXRaIWAmDOoL8seGDc+ELAgIVc8e6BaKEOKXOB3GBf6xiLE4V50Yr7XEzQW6wjDeD2CW/ME45Fk8sgAtSoY9niAui4xVx4kXZ3NBoRTz4MhAO2CAAMIAU1nQwCWQDYXtvQy+8U/QEAS6QgEwgAA5KZnBEkrxHBK9xoAj8CZEA5A+N85f3CkAh5L8OsYqrA8iQ9xbKR+SApxDngTCQC++l8lGiIW+J4AlkhP/wzoWVB+PNhVXW/+/5QfY7w4JMuJKRDnpkqA9aEgOJAcQQYhDRFjfAfXAvPBxe/WB1xpm4x+A8vtsTnhI6CI8I1wmdhNsThcWSn6KMAJ1QP0iZi/Qfc4FbQU1X3B/3hupQGdfFDYAD7gL9sHBf6NkVsmxl3LKsMH7S/tsMfngaSjuKEwWlDKP4UWx+Hqlmp+Y6pCLL9Y/5UcSaPpRv9lDPz/7ZP2SfD9uwny2xhdgB7Cx2EjuPHcUaAANrxhqxNuyYDA+trify1TXoLVYeTw7UEf7D3+CTlWUy36nGqcfpi6KvQDBV9o4G7EniaRJhZlYBgwW/CAIGR8RzHMFwdnJ2AUD2fVG8vt7EyL8biG7bd27eHwB4Nw8MDBz5zoU2A7DPHW7/w985Gyb8dKgAcO4wTyopVHC47EKAbwl1uNP0gTEwBzZwPs7ADXgBPxAIQkEUiAfJYAKMPguucwmYAmaAuaAElIFlYDVYDzaBrWAn2AP2gwZwFJwEZ8BFcBlcB3fh6ukCL0AfeAc+IwhCQmgIHdFHTBBLxB5xRpiIDxKIhCOxSDKShmQiIkSKzEDmIWXICmQ9sgWpRvYhh5GTyHmkA7mNPER6kNfIJxRDVVFt1Ai1QkeiTJSFhqHx6Hg0E52MFqHz0SXoWrQK3Y3WoyfRi+h1tBN9gfZjAFPBdDFTzAFjYmwsCkvBMjAJNgsrxcqxKqwWa4LP+SrWifViH3EiTscZuANcwSF4As7DJ+Oz8MX4enwnXo+34lfxh3gf/o1AIxgS7AmeBA5hLCGTMIVQQignbCccIpyGe6mL8I5IJOoSrYnucC8mE7OJ04mLiRuIdcQTxA7iY2I/iUTSJ9mTvElRJC6pgFRCWkfaTWomXSF1kT6QVcgmZGdyEDmFLCIXk8vJu8jHyVfIz8ifKRoUS4onJYrCp0yjLKVsozRRLlG6KJ+pmlRrqjc1nppNnUtdS62lnqbeo75RUVExU/FQiVERqsxRWauyV+WcykOVj6paqnaqbNVUVanqEtUdqidUb6u+odFoVjQ/WgqtgLaEVk07RXtA+6BGV3NU46jx1WarVajVq11Re6lOUbdUZ6lPUC9SL1c/oH5JvVeDomGlwdbgaszSqNA4rHFTo1+TrjlKM0ozT3Ox5i7N85rdWiQtK61ALb7WfK2tWqe0HtMxujmdTefR59G30U/Tu7SJ2tbaHO1s7TLtPdrt2n06WjouOok6U3UqdI7pdOpiula6HN1c3aW6+3Vv6H4aZjSMNUwwbNGw2mFXhr3XG67npyfQK9Wr07uu90mfoR+on6O/XL9B/74BbmBnEGMwxWCjwWmD3uHaw72G84aXDt8//I4hamhnGGs43XCrYZthv5GxUbCR2Gid0SmjXmNdYz/jbONVxseNe0zoJj4mQpNVJs0mzxk6DBYjl7GW0croMzU0DTGVmm4xbTf9bGZtlmBWbFZndt+cas40zzBfZd5i3mdhYhFhMcOixuKOJcWSaZllucbyrOV7K2urJKsFVg1W3dZ61hzrIusa63s2NBtfm8k2VTbXbIm2TNsc2w22l+1QO1e7LLsKu0v2qL2bvdB+g33HCMIIjxGiEVUjbjqoOrAcCh1qHB466jqGOxY7Nji+HGkxMmXk8pFnR35zcnXKddrmdHeU1qjQUcWjmka9drZz5jlXOF8bTRsdNHr26MbRr1zsXQQuG11uudJdI1wXuLa4fnVzd5O41br1uFu4p7lXut9kajOjmYuZ5zwIHv4esz2Oenz0dPMs8Nzv+ZeXg1eO1y6v7jHWYwRjto157G3mzfXe4t3pw/BJ89ns0+lr6sv1rfJ95Gfux/fb7veMZcvKZu1mvfR38pf4H/J/z/Zkz2SfCMACggNKA9oDtQITAtcHPggyC8oMqgnqC3YNnh58IoQQEhayPOQmx4jD41Rz+kLdQ2eGtoaphsWFrQ97FG4XLglvikAjQiNWRtyLtIwURTZEgShO1Mqo+9HW0ZOjj8QQY6JjKmKexo6KnRF7No4eNzFuV9y7eP/4pfF3E2wSpAktieqJqYnVie+TApJWJHWOHTl25tiLyQbJwuTGFFJKYsr2lP5xgeNWj+tKdU0tSb0x3nr81PHnJxhMyJ1wbKL6RO7EA2mEtKS0XWlfuFHcKm5/Oie9Mr2Px+at4b3g+/FX8XsE3oIVgmcZ3hkrMrozvTNXZvZk+WaVZ/UK2cL1wlfZIdmbst/nROXsyBnITcqtyyPnpeUdFmmJckStk4wnTZ3UIbYXl4g7J3tOXj25TxIm2Z6P5I/PbyzQhj/ybVIb6S/Sh4U+hRWFH6YkTjkwVXOqaGrbNLtpi6Y9Kwoq+m06Pp03vWWG6Yy5Mx7OZM3cMguZlT6rZbb57Pmzu+YEz9k5lzo3Z+7vxU7FK4rfzkua1zTfaP6c+Y9/Cf6lpkStRFJyc4HXgk0L8YXChe2LRi9at+hbKb/0QplTWXnZl8W8xRd+HfXr2l8HlmQsaV/qtnTjMuIy0bIby32X71yhuaJoxeOVESvrVzFWla56u3ri6vPlLuWb1lDXSNd0rg1f27jOYt2ydV/WZ62/XuFfUVdpWLmo8v0G/oYrG/021m4y2lS26dNm4eZbW4K31FdZVZVvJW4t3Pp0W+K2s78xf6vebrC9bPvXHaIdnTtjd7ZWu1dX7zLctbQGrZHW9OxO3X15T8CexlqH2i11unVle8Fe6d7n+9L23dgftr/lAPNA7UHLg5WH6IdK65H6afV9DVkNnY3JjR2HQw+3NHk1HTrieGTHUdOjFcd0ji09Tj0+//hAc1Fz/wnxid6TmScft0xsuXtq7KlrrTGt7afDTp87E3Tm1FnW2eZz3ueOnvc8f/gC80LDRbeL9W2ubYd+d/39ULtbe/0l90uNlz0uN3WM6Th+xffKyasBV89c41y7eD3yeseNhBu3bqbe7LzFv9V9O/f2qzuFdz7fnXOPcK/0vsb98geGD6r+sP2jrtOt89jDgIdtj+Ie3X3Me/ziSf6TL13zn9Kelj8zeVbd7dx9tCeo5/Lzcc+7XohffO4t+VPzz8qXNi8P/uX3V1vf2L6uV5JXA68Xv9F/s+Oty9uW/uj+B+/y3n1+X/pB/8POj8yPZz8lfXr2ecoX0pe1X22/Nn0L+3ZvIG9gQMyVcOW/AhisaEYGAK93AEBLBoAOz2fUcYrzn7wgijOrHIH/hBVnRHlxA6AW/r/H9MK/m5sA7N0Gj19QXz0VgGgaAPEeAB09eqgOntXk50pZIcJzwOb4r+l56eDfFMWZ84e4f26BTNUF/Nz+C9nzfEbVa0KNAAAAlmVYSWZNTQAqAAAACAAFARIAAwAAAAEAAQAAARoABQAAAAEAAABKARsABQAAAAEAAABSASgAAwAAAAEAAgAAh2kABAAAAAEAAABaAAAAAAAAAJAAAAABAAAAkAAAAAEAA5KGAAcAAAASAAAAhKACAAQAAAABAAAARKADAAQAAAABAAAAPAAAAABBU0NJSQAAAFNjcmVlbnNob3QEKSxcAAAACXBIWXMAABYlAAAWJQFJUiTwAAAC2WlUWHRYTUw6Y29tLmFkb2JlLnhtcAAAAAAAPHg6eG1wbWV0YSB4bWxuczp4PSJhZG9iZTpuczptZXRhLyIgeDp4bXB0az0iWE1QIENvcmUgNi4wLjAiPgogICA8cmRmOlJERiB4bWxuczpyZGY9Imh0dHA6Ly93d3cudzMub3JnLzE5OTkvMDIvMjItcmRmLXN5bnRheC1ucyMiPgogICAgICA8cmRmOkRlc2NyaXB0aW9uIHJkZjphYm91dD0iIgogICAgICAgICAgICB4bWxuczpleGlmPSJodHRwOi8vbnMuYWRvYmUuY29tL2V4aWYvMS4wLyIKICAgICAgICAgICAgeG1sbnM6dGlmZj0iaHR0cDovL25zLmFkb2JlLmNvbS90aWZmLzEuMC8iPgogICAgICAgICA8ZXhpZjpVc2VyQ29tbWVudD5TY3JlZW5zaG90PC9leGlmOlVzZXJDb21tZW50PgogICAgICAgICA8ZXhpZjpQaXhlbFhEaW1lbnNpb24+Njg8L2V4aWY6UGl4ZWxYRGltZW5zaW9uPgogICAgICAgICA8ZXhpZjpQaXhlbFlEaW1lbnNpb24+NjA8L2V4aWY6UGl4ZWxZRGltZW5zaW9uPgogICAgICAgICA8dGlmZjpSZXNvbHV0aW9uVW5pdD4yPC90aWZmOlJlc29sdXRpb25Vbml0PgogICAgICAgICA8dGlmZjpYUmVzb2x1dGlvbj4xNDQvMTwvdGlmZjpYUmVzb2x1dGlvbj4KICAgICAgICAgPHRpZmY6WVJlc29sdXRpb24+MTQ0LzE8L3RpZmY6WVJlc29sdXRpb24+CiAgICAgICAgIDx0aWZmOk9yaWVudGF0aW9uPjE8L3RpZmY6T3JpZW50YXRpb24+CiAgICAgIDwvcmRmOkRlc2NyaXB0aW9uPgogICA8L3JkZjpSREY+CjwveDp4bXBtZXRhPgrInBAqAAAGNklEQVRoBe3aC0/cOhCG4UCXUuiFwv//fUjcWmjpDQqcPpa+yOtmEalO2aTakUZOso4z83o8ngS27u/vH7qN9AS2+6PNQSGwAdIEwqI5f/T04eGh+7XEit7d3ZW+W1tbXfTRm9f4I7uJlq3b29u9tmaNAvLz58/u69evvRpssVh0Ozs7pW0Hn8I5CCYvyta9vb1eWxtHA7m+vu4+fPhQFO1Xr151u7u7pW0Hn8K5iL69vS16c3PT7e/vdwcHByVC2M6HWv4IyPn5eXd8fFwGff36dRetB57Kscj48eNH9/3799K+ffu2QAADmFZGAUn4Ie4hL168KNFhFlrS7YPWeQ4Km0ERzZY+m4dkFBDJKGvwzZs3JW+g/O7du0HaQw987mtAyHNsN6GA8MFkDskoIKLAYMINkJcvXxYQoLx//35o/LVfE8nsTnSzOYCGjBsFpI0QYEQHGIeHh0Pjr/0aICTLJhHClyFZWEs6p0WSaHOcG799+9bZZT5//lxa4Zjc0a5JDzQb0VUhmrH/VitfeDZlE2Vz7G6fuwDDdhTlWHQISLZcrdBTl4B0dXW1NDYDklu06wKyZNQTTkqEgGH2KaIgJWrqMTgPxMXFRWnRBiOFTt1XZBgXCHu/UJ2D9BEChqUACLUcQKlFn48fPxYFRgRxNMui7us6YGqUo6Oj+qdJHy84lfwBhLXFmaEqzkzbZVLt8cx5ynf7fHTSXj9iXNllAElUAAEI5Wwt+phxu4poIZZE9PLysqPGE2FzlJURosQVCbUEHDCU1Fnb0tFHrpk1kHrZWDIiQ6JUfI0Ry+XTp0+/RdaYMdbdd7g6WbdVa3z+BkgDfwOkAbKQMyRGO4Xt07nEmGKt7i/XpGhLjaJ/xkgy1c94Sbj1GFM/XjAaCDuEROocDBVoXozihJ3Fdht13b1R5TsoxHiSMzCAzUVKhHBI3ZGtUpvj2hGAOB3lKMfdq3UPmCLENePODkgbIZyOtlDM/tnZWa/uVcjlXSZVKxAAafWZVYTUQMys8yiHapFbAEg1a/bzPVWbZZI6RnGnr35zkT6HMLiGw5EkzjhjGYACnFkHjNNR5xQAcBR2omdWQOJYDYPT0cDQghQYcdrnw2giKy0oIM4KSIyvHV91bLYJB6lznw6jq+6b0/XyPSS1hW1VBNRaO5PvIb6F+C4iAiRgyda3lFqAFlHRNh/Vfad03H8xy86SpZK2NhYQMKKiJDC89tcCgM8ENLml/n2qx0tfzDgnSkSMFpRa/A6GT4hUFIgMS0ck1CJ6jAHG2LfmepznPi4Rot7w6v7ly5el0rwFkq9hii/3WFr6cFyEOc61bL0SbrtbPbeTY5732wcis56dwXEtag2/mXGJlPN1MSaCqKXltznKEhCzLvw5rRX2tYiEwBAtRB4BTpvcIiJEzBxlCQiH1SXywdAnRLPOWUsjy0D/qHxhDEtvtkDMYtY9RzlntkWHKBkjXvqy3MbcN6W+y0liSpatyZYNkAb8BkgDpHwgkjNsn/KGHCIx2jod1yKR+o3mW4kdJupPEJJptuPsQPUYUz/uX/+TRDnHWZ8Qs7XGCdfVGXYRLWApywFVtfoNEOO5BkoLNuNNsV0CYrvlDMdVo3adWgDyzuLFTstRu0pUBGU7BgQsgGcLBABOC/u0NRCzf3p6WvTk5KQ4a2v2J88UdEAAFCCzi5CEPSeIGTWzHJIrask1UQCefsp51avWEomKNm+6QIEyF+mXDIPB4BA4HEn4xxnXs4yA1Nd/B6lq819CnE9eAWm2QAKDw1H5pJa84uvLcYDyH4ha14GiGQ80gOYi/bb7lLDmWLZd0QOIt15LQ7tKAnjV73/zOjuzxE1wdNUzR02dwQCxA0m6HgSSaJiqsFUJoa6ye7L3sQkaDQQEAwOiDQzXpygmUM3EXnAsYUDadBDb/whIIkSuMHAgZdAptWxjLzWBzv83IADINdmJOJ4ls4r4uuHUNjtOfZTIbu0bFSFgKMIk0AwITrQdfArnJkpEiAyqDFAOADMko4CIBkCQNjABBqin7FJDBjzHtSwRbaIbEH60svWr03Kx0faozkPbwJQYdGjg6rbJHLKfrSYxbWvcKCDtzf/i+XQLiDXR3gBpwG+ANED+A8I8opteDCP0AAAAAElFTkSuQmCC;movable=1;resizable=1;rotatable=1;deletable=1;editable=1;locked=0;connectable=1;container=0;" parent="jvcADhcVPLt3B4X78LWL-1" vertex="1">
          <mxGeometry x="300" y="656" width="27" height="27" as="geometry" />
        </mxCell>
        <mxCell id="stSaYYKcVWD6naMzTqCq-21" value="" style="shape=image;verticalLabelPosition=bottom;labelBackgroundColor=default;verticalAlign=top;aspect=fixed;imageAspect=0;image=data:image/png,iVBORw0KGgoAAAANSUhEUgAAAEQAAAA8CAYAAADfYhweAAAMP2lDQ1BJQ0MgUHJvZmlsZQAASImVVwdYU8kWnltSIbQAAlJCb4KIlABSQmihdwRRCUmAUGIMBBU7uqjg2sUCNnRVRMEKiAVF7CyKvS8WFJR1sWBX3qSArvvK9+b75s5//znznzPnztx7BwD1E1yxOBfVACBPVCCJDfZnjE1OYZC6AQmQAQUYAJzLyxezoqPDASyD7d/LuxsAkbVXHWRa/+z/r0WTL8jnAYBEQ5zOz+flQXwQALySJ5YUAECU8eZTCsQyDCvQlsAAIV4ow5kKXCnD6Qq8V24TH8uGuBUAsiqXK8kEQO0y5BmFvEyoodYHsZOILxQBoM6A2CcvbxIf4jSIbaCNGGKZPjP9B53Mv2mmD2lyuZlDWDEXeSEHCPPFudxp/2c6/nfJy5UO+rCCVTVLEhIrmzPM262cSWEyrApxryg9MgpiLYg/CPlye4hRapY0JEFhjxry8tkwZ0AXYic+NyAMYkOIg0S5keFKPj1DGMSBGK4QdKqwgBMPsR7ECwX5gXFKm82SSbFKX2h9hoTNUvLnuBK5X5mvB9KcBJZS/3WWgKPUx9SKsuKTIKZCbFEoTIyEWA1ix/ycuDClzZiiLHbkoI1EGiuL3wLiWIEo2F+hjxVmSIJilfalefmD88U2Zwk5kUq8vyArPkSRH6yVx5XHD+eCXRaIWAmDOoL8seGDc+ELAgIVc8e6BaKEOKXOB3GBf6xiLE4V50Yr7XEzQW6wjDeD2CW/ME45Fk8sgAtSoY9niAui4xVx4kXZ3NBoRTz4MhAO2CAAMIAU1nQwCWQDYXtvQy+8U/QEAS6QgEwgAA5KZnBEkrxHBK9xoAj8CZEA5A+N85f3CkAh5L8OsYqrA8iQ9xbKR+SApxDngTCQC++l8lGiIW+J4AlkhP/wzoWVB+PNhVXW/+/5QfY7w4JMuJKRDnpkqA9aEgOJAcQQYhDRFjfAfXAvPBxe/WB1xpm4x+A8vtsTnhI6CI8I1wmdhNsThcWSn6KMAJ1QP0iZi/Qfc4FbQU1X3B/3hupQGdfFDYAD7gL9sHBf6NkVsmxl3LKsMH7S/tsMfngaSjuKEwWlDKP4UWx+Hqlmp+Y6pCLL9Y/5UcSaPpRv9lDPz/7ZP2SfD9uwny2xhdgB7Cx2EjuPHcUaAANrxhqxNuyYDA+trify1TXoLVYeTw7UEf7D3+CTlWUy36nGqcfpi6KvQDBV9o4G7EniaRJhZlYBgwW/CAIGR8RzHMFwdnJ2AUD2fVG8vt7EyL8biG7bd27eHwB4Nw8MDBz5zoU2A7DPHW7/w985Gyb8dKgAcO4wTyopVHC47EKAbwl1uNP0gTEwBzZwPs7ADXgBPxAIQkEUiAfJYAKMPguucwmYAmaAuaAElIFlYDVYDzaBrWAn2AP2gwZwFJwEZ8BFcBlcB3fh6ukCL0AfeAc+IwhCQmgIHdFHTBBLxB5xRpiIDxKIhCOxSDKShmQiIkSKzEDmIWXICmQ9sgWpRvYhh5GTyHmkA7mNPER6kNfIJxRDVVFt1Ai1QkeiTJSFhqHx6Hg0E52MFqHz0SXoWrQK3Y3WoyfRi+h1tBN9gfZjAFPBdDFTzAFjYmwsCkvBMjAJNgsrxcqxKqwWa4LP+SrWifViH3EiTscZuANcwSF4As7DJ+Oz8MX4enwnXo+34lfxh3gf/o1AIxgS7AmeBA5hLCGTMIVQQignbCccIpyGe6mL8I5IJOoSrYnucC8mE7OJ04mLiRuIdcQTxA7iY2I/iUTSJ9mTvElRJC6pgFRCWkfaTWomXSF1kT6QVcgmZGdyEDmFLCIXk8vJu8jHyVfIz8ifKRoUS4onJYrCp0yjLKVsozRRLlG6KJ+pmlRrqjc1nppNnUtdS62lnqbeo75RUVExU/FQiVERqsxRWauyV+WcykOVj6paqnaqbNVUVanqEtUdqidUb6u+odFoVjQ/WgqtgLaEVk07RXtA+6BGV3NU46jx1WarVajVq11Re6lOUbdUZ6lPUC9SL1c/oH5JvVeDomGlwdbgaszSqNA4rHFTo1+TrjlKM0ozT3Ox5i7N85rdWiQtK61ALb7WfK2tWqe0HtMxujmdTefR59G30U/Tu7SJ2tbaHO1s7TLtPdrt2n06WjouOok6U3UqdI7pdOpiula6HN1c3aW6+3Vv6H4aZjSMNUwwbNGw2mFXhr3XG67npyfQK9Wr07uu90mfoR+on6O/XL9B/74BbmBnEGMwxWCjwWmD3uHaw72G84aXDt8//I4hamhnGGs43XCrYZthv5GxUbCR2Gid0SmjXmNdYz/jbONVxseNe0zoJj4mQpNVJs0mzxk6DBYjl7GW0croMzU0DTGVmm4xbTf9bGZtlmBWbFZndt+cas40zzBfZd5i3mdhYhFhMcOixuKOJcWSaZllucbyrOV7K2urJKsFVg1W3dZ61hzrIusa63s2NBtfm8k2VTbXbIm2TNsc2w22l+1QO1e7LLsKu0v2qL2bvdB+g33HCMIIjxGiEVUjbjqoOrAcCh1qHB466jqGOxY7Nji+HGkxMmXk8pFnR35zcnXKddrmdHeU1qjQUcWjmka9drZz5jlXOF8bTRsdNHr26MbRr1zsXQQuG11uudJdI1wXuLa4fnVzd5O41br1uFu4p7lXut9kajOjmYuZ5zwIHv4esz2Oenz0dPMs8Nzv+ZeXg1eO1y6v7jHWYwRjto157G3mzfXe4t3pw/BJ89ns0+lr6sv1rfJ95Gfux/fb7veMZcvKZu1mvfR38pf4H/J/z/Zkz2SfCMACggNKA9oDtQITAtcHPggyC8oMqgnqC3YNnh58IoQQEhayPOQmx4jD41Rz+kLdQ2eGtoaphsWFrQ97FG4XLglvikAjQiNWRtyLtIwURTZEgShO1Mqo+9HW0ZOjj8QQY6JjKmKexo6KnRF7No4eNzFuV9y7eP/4pfF3E2wSpAktieqJqYnVie+TApJWJHWOHTl25tiLyQbJwuTGFFJKYsr2lP5xgeNWj+tKdU0tSb0x3nr81PHnJxhMyJ1wbKL6RO7EA2mEtKS0XWlfuFHcKm5/Oie9Mr2Px+at4b3g+/FX8XsE3oIVgmcZ3hkrMrozvTNXZvZk+WaVZ/UK2cL1wlfZIdmbst/nROXsyBnITcqtyyPnpeUdFmmJckStk4wnTZ3UIbYXl4g7J3tOXj25TxIm2Z6P5I/PbyzQhj/ybVIb6S/Sh4U+hRWFH6YkTjkwVXOqaGrbNLtpi6Y9Kwoq+m06Pp03vWWG6Yy5Mx7OZM3cMguZlT6rZbb57Pmzu+YEz9k5lzo3Z+7vxU7FK4rfzkua1zTfaP6c+Y9/Cf6lpkStRFJyc4HXgk0L8YXChe2LRi9at+hbKb/0QplTWXnZl8W8xRd+HfXr2l8HlmQsaV/qtnTjMuIy0bIby32X71yhuaJoxeOVESvrVzFWla56u3ri6vPlLuWb1lDXSNd0rg1f27jOYt2ydV/WZ62/XuFfUVdpWLmo8v0G/oYrG/021m4y2lS26dNm4eZbW4K31FdZVZVvJW4t3Pp0W+K2s78xf6vebrC9bPvXHaIdnTtjd7ZWu1dX7zLctbQGrZHW9OxO3X15T8CexlqH2i11unVle8Fe6d7n+9L23dgftr/lAPNA7UHLg5WH6IdK65H6afV9DVkNnY3JjR2HQw+3NHk1HTrieGTHUdOjFcd0ji09Tj0+//hAc1Fz/wnxid6TmScft0xsuXtq7KlrrTGt7afDTp87E3Tm1FnW2eZz3ueOnvc8f/gC80LDRbeL9W2ubYd+d/39ULtbe/0l90uNlz0uN3WM6Th+xffKyasBV89c41y7eD3yeseNhBu3bqbe7LzFv9V9O/f2qzuFdz7fnXOPcK/0vsb98geGD6r+sP2jrtOt89jDgIdtj+Ie3X3Me/ziSf6TL13zn9Kelj8zeVbd7dx9tCeo5/Lzcc+7XohffO4t+VPzz8qXNi8P/uX3V1vf2L6uV5JXA68Xv9F/s+Oty9uW/uj+B+/y3n1+X/pB/8POj8yPZz8lfXr2ecoX0pe1X22/Nn0L+3ZvIG9gQMyVcOW/AhisaEYGAK93AEBLBoAOz2fUcYrzn7wgijOrHIH/hBVnRHlxA6AW/r/H9MK/m5sA7N0Gj19QXz0VgGgaAPEeAB09eqgOntXk50pZIcJzwOb4r+l56eDfFMWZ84e4f26BTNUF/Nz+C9nzfEbVa0KNAAAAlmVYSWZNTQAqAAAACAAFARIAAwAAAAEAAQAAARoABQAAAAEAAABKARsABQAAAAEAAABSASgAAwAAAAEAAgAAh2kABAAAAAEAAABaAAAAAAAAAJAAAAABAAAAkAAAAAEAA5KGAAcAAAASAAAAhKACAAQAAAABAAAARKADAAQAAAABAAAAPAAAAABBU0NJSQAAAFNjcmVlbnNob3QEKSxcAAAACXBIWXMAABYlAAAWJQFJUiTwAAAC2WlUWHRYTUw6Y29tLmFkb2JlLnhtcAAAAAAAPHg6eG1wbWV0YSB4bWxuczp4PSJhZG9iZTpuczptZXRhLyIgeDp4bXB0az0iWE1QIENvcmUgNi4wLjAiPgogICA8cmRmOlJERiB4bWxuczpyZGY9Imh0dHA6Ly93d3cudzMub3JnLzE5OTkvMDIvMjItcmRmLXN5bnRheC1ucyMiPgogICAgICA8cmRmOkRlc2NyaXB0aW9uIHJkZjphYm91dD0iIgogICAgICAgICAgICB4bWxuczpleGlmPSJodHRwOi8vbnMuYWRvYmUuY29tL2V4aWYvMS4wLyIKICAgICAgICAgICAgeG1sbnM6dGlmZj0iaHR0cDovL25zLmFkb2JlLmNvbS90aWZmLzEuMC8iPgogICAgICAgICA8ZXhpZjpVc2VyQ29tbWVudD5TY3JlZW5zaG90PC9leGlmOlVzZXJDb21tZW50PgogICAgICAgICA8ZXhpZjpQaXhlbFhEaW1lbnNpb24+Njg8L2V4aWY6UGl4ZWxYRGltZW5zaW9uPgogICAgICAgICA8ZXhpZjpQaXhlbFlEaW1lbnNpb24+NjA8L2V4aWY6UGl4ZWxZRGltZW5zaW9uPgogICAgICAgICA8dGlmZjpSZXNvbHV0aW9uVW5pdD4yPC90aWZmOlJlc29sdXRpb25Vbml0PgogICAgICAgICA8dGlmZjpYUmVzb2x1dGlvbj4xNDQvMTwvdGlmZjpYUmVzb2x1dGlvbj4KICAgICAgICAgPHRpZmY6WVJlc29sdXRpb24+MTQ0LzE8L3RpZmY6WVJlc29sdXRpb24+CiAgICAgICAgIDx0aWZmOk9yaWVudGF0aW9uPjE8L3RpZmY6T3JpZW50YXRpb24+CiAgICAgIDwvcmRmOkRlc2NyaXB0aW9uPgogICA8L3JkZjpSREY+CjwveDp4bXBtZXRhPgrInBAqAAAGNklEQVRoBe3aC0/cOhCG4UCXUuiFwv//fUjcWmjpDQqcPpa+yOtmEalO2aTakUZOso4z83o8ngS27u/vH7qN9AS2+6PNQSGwAdIEwqI5f/T04eGh+7XEit7d3ZW+W1tbXfTRm9f4I7uJlq3b29u9tmaNAvLz58/u69evvRpssVh0Ozs7pW0Hn8I5CCYvyta9vb1eWxtHA7m+vu4+fPhQFO1Xr151u7u7pW0Hn8K5iL69vS16c3PT7e/vdwcHByVC2M6HWv4IyPn5eXd8fFwGff36dRetB57Kscj48eNH9/3799K+ffu2QAADmFZGAUn4Ie4hL168KNFhFlrS7YPWeQ4Km0ERzZY+m4dkFBDJKGvwzZs3JW+g/O7du0HaQw987mtAyHNsN6GA8MFkDskoIKLAYMINkJcvXxYQoLx//35o/LVfE8nsTnSzOYCGjBsFpI0QYEQHGIeHh0Pjr/0aICTLJhHClyFZWEs6p0WSaHOcG799+9bZZT5//lxa4Zjc0a5JDzQb0VUhmrH/VitfeDZlE2Vz7G6fuwDDdhTlWHQISLZcrdBTl4B0dXW1NDYDklu06wKyZNQTTkqEgGH2KaIgJWrqMTgPxMXFRWnRBiOFTt1XZBgXCHu/UJ2D9BEChqUACLUcQKlFn48fPxYFRgRxNMui7us6YGqUo6Oj+qdJHy84lfwBhLXFmaEqzkzbZVLt8cx5ynf7fHTSXj9iXNllAElUAAEI5Wwt+phxu4poIZZE9PLysqPGE2FzlJURosQVCbUEHDCU1Fnb0tFHrpk1kHrZWDIiQ6JUfI0Ry+XTp0+/RdaYMdbdd7g6WbdVa3z+BkgDfwOkAbKQMyRGO4Xt07nEmGKt7i/XpGhLjaJ/xkgy1c94Sbj1GFM/XjAaCDuEROocDBVoXozihJ3Fdht13b1R5TsoxHiSMzCAzUVKhHBI3ZGtUpvj2hGAOB3lKMfdq3UPmCLENePODkgbIZyOtlDM/tnZWa/uVcjlXSZVKxAAafWZVYTUQMys8yiHapFbAEg1a/bzPVWbZZI6RnGnr35zkT6HMLiGw5EkzjhjGYACnFkHjNNR5xQAcBR2omdWQOJYDYPT0cDQghQYcdrnw2giKy0oIM4KSIyvHV91bLYJB6lznw6jq+6b0/XyPSS1hW1VBNRaO5PvIb6F+C4iAiRgyda3lFqAFlHRNh/Vfad03H8xy86SpZK2NhYQMKKiJDC89tcCgM8ENLml/n2qx0tfzDgnSkSMFpRa/A6GT4hUFIgMS0ck1CJ6jAHG2LfmepznPi4Rot7w6v7ly5el0rwFkq9hii/3WFr6cFyEOc61bL0SbrtbPbeTY5732wcis56dwXEtag2/mXGJlPN1MSaCqKXltznKEhCzLvw5rRX2tYiEwBAtRB4BTpvcIiJEzBxlCQiH1SXywdAnRLPOWUsjy0D/qHxhDEtvtkDMYtY9RzlntkWHKBkjXvqy3MbcN6W+y0liSpatyZYNkAb8BkgDpHwgkjNsn/KGHCIx2jod1yKR+o3mW4kdJupPEJJptuPsQPUYUz/uX/+TRDnHWZ8Qs7XGCdfVGXYRLWApywFVtfoNEOO5BkoLNuNNsV0CYrvlDMdVo3adWgDyzuLFTstRu0pUBGU7BgQsgGcLBABOC/u0NRCzf3p6WvTk5KQ4a2v2J88UdEAAFCCzi5CEPSeIGTWzHJIrask1UQCefsp51avWEomKNm+6QIEyF+mXDIPB4BA4HEn4xxnXs4yA1Nd/B6lq819CnE9eAWm2QAKDw1H5pJa84uvLcYDyH4ha14GiGQ80gOYi/bb7lLDmWLZd0QOIt15LQ7tKAnjV73/zOjuzxE1wdNUzR02dwQCxA0m6HgSSaJiqsFUJoa6ye7L3sQkaDQQEAwOiDQzXpygmUM3EXnAsYUDadBDb/whIIkSuMHAgZdAptWxjLzWBzv83IADINdmJOJ4ls4r4uuHUNjtOfZTIbu0bFSFgKMIk0AwITrQdfArnJkpEiAyqDFAOADMko4CIBkCQNjABBqin7FJDBjzHtSwRbaIbEH60svWr03Kx0faozkPbwJQYdGjg6rbJHLKfrSYxbWvcKCDtzf/i+XQLiDXR3gBpwG+ANED+A8I8opteDCP0AAAAAElFTkSuQmCC;movable=1;resizable=1;rotatable=1;deletable=1;editable=1;locked=0;connectable=1;container=0;" parent="jvcADhcVPLt3B4X78LWL-1" vertex="1">
          <mxGeometry x="986.29" y="605.5" width="27" height="27" as="geometry" />
        </mxCell>
        <mxCell id="stSaYYKcVWD6naMzTqCq-22" style="edgeStyle=orthogonalEdgeStyle;rounded=0;orthogonalLoop=1;jettySize=auto;html=1;exitX=1;exitY=0.5;exitDx=0;exitDy=0;entryX=0;entryY=0;entryDx=0;entryDy=95;entryPerimeter=0;jumpStyle=arc;jumpSize=14;" parent="jvcADhcVPLt3B4X78LWL-1" source="stSaYYKcVWD6naMzTqCq-4" target="jvcADhcVPLt3B4X78LWL-45" edge="1">
          <mxGeometry relative="1" as="geometry">
            <Array as="points">
              <mxPoint x="680" y="619" />
              <mxPoint x="680" y="20" />
              <mxPoint x="1131" y="20" />
            </Array>
          </mxGeometry>
        </mxCell>
        <mxCell id="stSaYYKcVWD6naMzTqCq-31" style="edgeStyle=orthogonalEdgeStyle;rounded=0;orthogonalLoop=1;jettySize=auto;html=1;exitX=1;exitY=0.5;exitDx=0;exitDy=0;entryX=0;entryY=0;entryDx=0;entryDy=95;entryPerimeter=0;jumpStyle=arc;jumpSize=14;" parent="jvcADhcVPLt3B4X78LWL-1" source="stSaYYKcVWD6naMzTqCq-3" target="jvcADhcVPLt3B4X78LWL-45" edge="1">
          <mxGeometry relative="1" as="geometry" />
        </mxCell>
      </root>
    </mxGraphModel>
  </diagram>
</mxfile>
